G04*
G04 #@! TF.GenerationSoftware,Altium Limited,Altium Designer,20.1.11 (218)*
G04*
G04 Layer_Color=65535*
%FSLAX25Y25*%
%MOIN*%
G70*
G04*
G04 #@! TF.SameCoordinates,693C8C31-8EEC-4DF3-A6D9-A21B1C167F78*
G04*
G04*
G04 #@! TF.FilePolarity,Positive*
G04*
G01*
G75*
%ADD10C,0.00787*%
%ADD11C,0.01000*%
%ADD12C,0.01181*%
%ADD13C,0.00984*%
D10*
X45510Y198501D02*
G03*
X73226Y193896I14490J1499D01*
G01*
X241476Y67000D02*
G03*
X241476Y62000I0J-2500D01*
G01*
X444Y101113D02*
Y115287D01*
X5956Y101113D02*
Y115287D01*
X444Y101113D02*
X5956D01*
X242987Y93244D02*
Y98756D01*
X228813D02*
X242987D01*
X228813Y93244D02*
X242987D01*
X127400Y28500D02*
X135400D01*
Y15500D02*
Y28500D01*
X127400Y15500D02*
X135400D01*
X127400D02*
Y28500D01*
Y23000D02*
Y36000D01*
Y23000D02*
X135400D01*
Y36000D01*
X127400D02*
X135400D01*
X46700Y77200D02*
X59700D01*
Y85200D01*
X46700D02*
X59700D01*
X46700Y77200D02*
Y85200D01*
X104100Y37000D02*
X117100D01*
X104100Y29000D02*
Y37000D01*
Y29000D02*
X117100D01*
Y37000D01*
X243900Y98900D02*
X251900D01*
Y85900D02*
Y98900D01*
X243900Y85900D02*
X251900D01*
X243900D02*
Y98900D01*
X1000Y91800D02*
X14000D01*
Y99800D01*
X1000D02*
X14000D01*
X1000Y91800D02*
Y99800D01*
X100358Y54720D02*
Y67721D01*
X92358D02*
X100358D01*
X92358Y54720D02*
Y67721D01*
Y54720D02*
X100358D01*
X252700Y72100D02*
X260700D01*
X252700D02*
Y85100D01*
X260700D01*
Y72100D02*
Y85100D01*
X104100Y15600D02*
Y28600D01*
Y15600D02*
X112100D01*
Y28600D01*
X104100D02*
X112100D01*
X252700Y98800D02*
X260700D01*
Y85800D02*
Y98800D01*
X252700Y85800D02*
X260700D01*
X252700D02*
Y98800D01*
X14400Y101160D02*
Y114160D01*
X6400D02*
X14400D01*
X6400Y101160D02*
Y114160D01*
Y101160D02*
X14400D01*
X226177Y146520D02*
X239177D01*
X226177Y138520D02*
Y146520D01*
Y138520D02*
X239177D01*
Y146520D01*
X144900Y93800D02*
X157900D01*
X144900Y85800D02*
Y93800D01*
Y85800D02*
X157900D01*
Y93800D01*
X101200Y171600D02*
Y179600D01*
X88200Y171600D02*
X101200D01*
X88200D02*
Y179600D01*
X101200D01*
X228400Y85300D02*
X241400D01*
Y93300D01*
X228400D02*
X241400D01*
X228400Y85300D02*
Y93300D01*
X136600Y43100D02*
X149600D01*
X136600Y35100D02*
Y43100D01*
Y35100D02*
X149600D01*
Y43100D01*
X254800Y159800D02*
Y172800D01*
X246800D02*
X254800D01*
X246800Y159800D02*
Y172800D01*
Y159800D02*
X254800D01*
X228400Y176300D02*
X236400D01*
X228400D02*
Y189300D01*
X236400D01*
Y176300D02*
Y189300D01*
X237000Y176300D02*
X245000D01*
X237000D02*
Y189300D01*
X245000D01*
Y176300D02*
Y189300D01*
X89200Y101900D02*
Y114900D01*
X81200D02*
X89200D01*
X81200Y101900D02*
Y114900D01*
Y101900D02*
X89200D01*
X31098Y59976D02*
X44098D01*
Y67976D01*
X31098D02*
X44098D01*
X31098Y59976D02*
Y67976D01*
X31100Y68700D02*
Y76700D01*
X44100D01*
Y68700D02*
Y76700D01*
X31100Y68700D02*
X44100D01*
X31100Y77300D02*
X44100D01*
Y85300D01*
X31100D02*
X44100D01*
X31100Y77300D02*
Y85300D01*
X31160Y141200D02*
X44160D01*
X31160Y133200D02*
Y141200D01*
Y133200D02*
X44160D01*
Y141200D01*
X31900Y99800D02*
Y112800D01*
Y99800D02*
X39900D01*
Y112800D01*
X31900D02*
X39900D01*
X102200Y159800D02*
X115200D01*
Y167800D01*
X102200D02*
X115200D01*
X102200Y159800D02*
Y167800D01*
X102100Y168800D02*
X115100D01*
Y176800D01*
X102100D02*
X115100D01*
X102100Y168800D02*
Y176800D01*
X71700Y151500D02*
Y164500D01*
X63700D02*
X71700D01*
X63700Y151500D02*
Y164500D01*
Y151500D02*
X71700D01*
X104000Y5000D02*
Y15000D01*
X186000D01*
Y5000D02*
Y15000D01*
X104000Y5000D02*
X186000D01*
X25000Y119670D02*
Y139670D01*
X5000D02*
X25000D01*
X5000Y119670D02*
Y139670D01*
Y119670D02*
X25000D01*
X5000Y167000D02*
X35000D01*
Y147000D02*
Y167000D01*
X5000Y147000D02*
X35000D01*
X5000D02*
Y167000D01*
Y181000D02*
Y201000D01*
Y181000D02*
X35000D01*
Y201000D01*
X5000D02*
X35000D01*
X52480Y180591D02*
X62480D01*
X52480Y140591D02*
Y180591D01*
X62480Y140591D02*
Y180591D01*
X52480Y140591D02*
X62480D01*
X-8528Y72433D02*
X-6756Y74205D01*
X-6657D01*
X-8528Y75976D02*
X-6756Y74205D01*
X-6559D01*
X-11677D02*
X-6559D01*
Y59441D02*
X-4591D01*
X-6165Y88968D02*
X-4984D01*
X-11677Y94874D02*
X-6559D01*
X-11677Y53535D02*
X-6559D01*
Y94874D01*
X2791Y58653D02*
Y89756D01*
X-654Y58653D02*
Y89756D01*
X-3016Y58653D02*
X4071D01*
X-3016D02*
Y89756D01*
X4071D01*
X13331Y89626D02*
X14432D01*
X13331Y58626D02*
X14432D01*
X19917Y67118D02*
X19931Y65526D01*
X20016Y80898D02*
X20031Y82526D01*
X40748Y29646D02*
Y39646D01*
Y29646D02*
X70748D01*
X40748Y39646D02*
X70748D01*
Y29646D02*
Y39646D01*
X194000Y5000D02*
Y15000D01*
X256000D01*
Y5000D02*
Y15000D01*
X194000Y5000D02*
X256000D01*
X255630Y189646D02*
X265630D01*
X255630Y159646D02*
Y189646D01*
X265630Y159646D02*
Y189646D01*
X255630Y159646D02*
X265630D01*
X174000Y205000D02*
X256000D01*
X174000Y195000D02*
Y205000D01*
Y195000D02*
X256000D01*
Y205000D01*
X170000Y195000D02*
Y205000D01*
X68000Y195000D02*
X170000D01*
X68000D02*
Y205000D01*
X170000D01*
X23300Y63947D02*
Y66697D01*
Y63947D02*
X29300D01*
X23300Y72197D02*
Y74947D01*
X30300D01*
Y63947D02*
Y74947D01*
X29300Y63947D02*
X30300D01*
X23300Y66697D02*
Y72197D01*
X30300Y83997D02*
Y86747D01*
X24300D02*
X30300D01*
Y75747D02*
Y78497D01*
X23300Y75747D02*
X30300D01*
X23300D02*
Y86747D01*
X24300D01*
X30300Y78497D02*
Y83997D01*
X104880Y97813D02*
Y130096D01*
X89920Y97813D02*
X104880D01*
X89920D02*
Y130096D01*
X104880D01*
X142458Y118480D02*
X174742D01*
Y103520D02*
Y118480D01*
X142458Y103520D02*
X174742D01*
X142458D02*
Y118480D01*
X80709Y54724D02*
X87795D01*
Y59449D02*
Y62598D01*
X80709Y67323D02*
X87795D01*
X255799Y58757D02*
Y65843D01*
X247925Y58757D02*
X251075D01*
X243201D02*
Y65843D01*
X15001Y99257D02*
Y106343D01*
X19725D02*
X22875D01*
X27599Y99257D02*
Y106343D01*
X48819Y49508D02*
Y64468D01*
X75590Y49508D02*
Y64468D01*
X48819D02*
X54331D01*
X70079D02*
X75590D01*
X74409Y49508D02*
X75590D01*
X48819D02*
X50000D01*
X74016Y103937D02*
X74803Y104724D01*
X46850Y104331D02*
Y105118D01*
Y104331D02*
X47638D01*
X46850Y131890D02*
X47638D01*
X46850Y131102D02*
Y131890D01*
X74410Y131102D02*
Y131890D01*
X73622D02*
X74410D01*
X67357Y177799D02*
X74443D01*
Y169925D02*
Y173075D01*
X67357Y165201D02*
X74443D01*
X241476Y44028D02*
Y62000D01*
X101476Y44028D02*
X241476D01*
Y67000D02*
Y84972D01*
X101476Y44028D02*
Y84972D01*
X241476D01*
X99311Y11726D02*
Y27474D01*
X75689Y11726D02*
Y27474D01*
X83563Y7789D02*
X91437D01*
X83563Y31411D02*
X91437D01*
X239469Y100394D02*
X255217D01*
X239469Y124016D02*
X255217D01*
X235531Y108268D02*
Y116142D01*
X259154Y108268D02*
Y116142D01*
X3600Y18101D02*
Y41101D01*
X16600D01*
Y18101D02*
Y41101D01*
X3600Y18101D02*
X16600D01*
X173400Y20200D02*
Y34200D01*
X165400D02*
X173400D01*
X165400Y20200D02*
Y34200D01*
Y20200D02*
X173400D01*
X174300Y17300D02*
X188300D01*
Y25300D01*
X174300D02*
X188300D01*
X174300Y17300D02*
Y25300D01*
X80300Y68300D02*
Y82300D01*
X72300D02*
X80300D01*
X72300Y68300D02*
Y82300D01*
Y68300D02*
X80300D01*
X88300Y148900D02*
X89300D01*
X88300D02*
Y154900D01*
X89300D01*
Y148900D02*
X101300D01*
X89300D02*
Y154900D01*
X101300D01*
Y148900D02*
Y154900D01*
X88200Y156000D02*
X89200D01*
X88200D02*
Y162000D01*
X89200D01*
Y156000D02*
X101200D01*
X89200D02*
Y162000D01*
X101200D01*
Y156000D02*
Y162000D01*
X88200Y164700D02*
X89200D01*
X88200D02*
Y170700D01*
X89200D01*
Y164700D02*
X101200D01*
X89200D02*
Y170700D01*
X101200D01*
Y164700D02*
Y170700D01*
X225972Y147295D02*
X226972D01*
X225972D02*
Y153295D01*
X226972D01*
Y147295D02*
X238972D01*
X226972D02*
Y153295D01*
X238972D01*
Y147295D02*
Y153295D01*
X225200Y129800D02*
X239200D01*
Y137800D01*
X225200D02*
X239200D01*
X225200Y129800D02*
Y137800D01*
X85200Y38400D02*
Y52400D01*
Y38400D02*
X93200D01*
Y52400D01*
X85200D02*
X93200D01*
X251900Y71200D02*
Y85200D01*
X243900D02*
X251900D01*
X243900Y71200D02*
Y85200D01*
Y71200D02*
X251900D01*
X31040Y95000D02*
X45040D01*
X31040Y87000D02*
Y95000D01*
Y87000D02*
X45040D01*
Y95000D01*
X14800Y119100D02*
X28800D01*
X14800Y111100D02*
Y119100D01*
Y111100D02*
X28800D01*
Y119100D01*
X81100Y68360D02*
Y82360D01*
Y68360D02*
X89100D01*
Y82360D01*
X81100D02*
X89100D01*
X242600Y53000D02*
X256600D01*
X242600Y45000D02*
Y53000D01*
Y45000D02*
X256600D01*
Y53000D01*
X159060Y94700D02*
X173060D01*
Y102700D01*
X159060D02*
X173060D01*
X159060Y94700D02*
Y102700D01*
X87100Y164600D02*
Y178600D01*
X79100D02*
X87100D01*
X79100Y164600D02*
Y178600D01*
Y164600D02*
X87100D01*
X158160Y94700D02*
Y102700D01*
X144160Y94700D02*
X158160D01*
X144160D02*
Y102700D01*
X158160D01*
X165240Y43100D02*
X179240D01*
X165240Y35100D02*
Y43100D01*
Y35100D02*
X179240D01*
Y43100D01*
X150460Y35100D02*
X164460D01*
Y43100D01*
X150460D02*
X164460D01*
X150460Y35100D02*
Y43100D01*
X150460Y34300D02*
X164460D01*
X150460Y26300D02*
Y34300D01*
Y26300D02*
X164460D01*
Y34300D01*
X91700Y186200D02*
X105700D01*
Y194200D01*
X91700D02*
X105700D01*
X91700Y186200D02*
Y194200D01*
X158800Y85800D02*
X172800D01*
Y93800D01*
X158800D02*
X172800D01*
X158800Y85800D02*
Y93800D01*
X174300Y34200D02*
X188300D01*
X174300Y26200D02*
Y34200D01*
Y26200D02*
X188300D01*
Y34200D01*
X5100Y209700D02*
X19100D01*
X5100Y201700D02*
Y209700D01*
Y201700D02*
X19100D01*
Y209700D01*
X40200Y54360D02*
X48200D01*
Y40360D02*
Y54360D01*
X40200Y40360D02*
X48200D01*
X40200D02*
Y54360D01*
X138100Y15900D02*
Y29900D01*
Y15900D02*
X146100D01*
Y29900D01*
X138100D02*
X146100D01*
X118000Y15900D02*
Y29900D01*
Y15900D02*
X126000D01*
Y29900D01*
X118000D02*
X126000D01*
X147100Y23900D02*
X161100D01*
X147100Y15900D02*
Y23900D01*
Y15900D02*
X161100D01*
Y23900D01*
X84400Y38360D02*
Y52360D01*
X76400D02*
X84400D01*
X76400Y38360D02*
Y52360D01*
Y38360D02*
X84400D01*
X246800Y175500D02*
Y189500D01*
Y175500D02*
X254800D01*
Y189500D01*
X246800D02*
X254800D01*
X89800Y89100D02*
X103800D01*
Y97100D01*
X89800D02*
X103800D01*
X89800Y89100D02*
Y97100D01*
X89900Y130900D02*
X103900D01*
Y138900D01*
X89900D02*
X103900D01*
X89900Y130900D02*
Y138900D01*
X5100Y167000D02*
Y181000D01*
Y167000D02*
X13100D01*
Y181000D01*
X5100D02*
X13100D01*
X45800Y95000D02*
X59800D01*
X45800Y87000D02*
Y95000D01*
Y87000D02*
X59800D01*
Y95000D01*
X71224Y82468D02*
Y96469D01*
X63224D02*
X71224D01*
X63224Y82468D02*
Y96469D01*
Y82468D02*
X71224D01*
X81200Y116100D02*
Y130100D01*
Y116100D02*
X89200D01*
Y130100D01*
X81200D02*
X89200D01*
X80378Y83157D02*
Y97158D01*
X72378D02*
X80378D01*
X72378Y83157D02*
Y97158D01*
Y83157D02*
X80378D01*
X89100Y83060D02*
Y97060D01*
X81100D02*
X89100D01*
X81100Y83060D02*
Y97060D01*
Y83060D02*
X89100D01*
X21609Y4173D02*
X23971D01*
X17573Y8209D02*
X21609Y4173D01*
X17573Y8209D02*
Y25827D01*
X32829Y4173D02*
X35191D01*
X39227Y8209D01*
Y25827D01*
X17573D02*
X23971D01*
X32829D02*
X39227D01*
X32729Y55298D02*
X39127D01*
X17473D02*
X23871D01*
X39127Y37679D02*
Y55298D01*
X35091Y33644D02*
X39127Y37679D01*
X32729Y33644D02*
X35091D01*
X17473Y37679D02*
Y55298D01*
Y37679D02*
X21509Y33644D01*
X23871D01*
X134744Y134218D02*
Y132250D01*
X135400Y131595D01*
X136056Y132250D01*
X136712Y131595D01*
X137368Y132250D01*
Y134218D01*
X138680D02*
Y132250D01*
X139336Y131595D01*
X139992Y132250D01*
X140648Y131595D01*
X141304Y132250D01*
Y134218D01*
X142616D02*
Y132250D01*
X143272Y131595D01*
X143928Y132250D01*
X144583Y131595D01*
X145239Y132250D01*
Y134218D01*
X146551Y131595D02*
Y132250D01*
X147207D01*
Y131595D01*
X146551D01*
X150487D02*
Y134874D01*
Y133562D01*
X149831D01*
X151143D01*
X150487D01*
Y134874D01*
X151143Y135530D01*
X155079Y131595D02*
X153767D01*
X153111Y132250D01*
Y133562D01*
X153767Y134218D01*
X155079D01*
X155735Y133562D01*
Y132906D01*
X153111D01*
X159670Y135530D02*
Y131595D01*
X157703D01*
X157047Y132250D01*
Y133562D01*
X157703Y134218D01*
X159670D01*
X162950Y131595D02*
X161638D01*
X160982Y132250D01*
Y133562D01*
X161638Y134218D01*
X162950D01*
X163606Y133562D01*
Y132906D01*
X160982D01*
X164918Y134218D02*
X166230Y131595D01*
X167542Y134218D01*
X170822Y131595D02*
X169510D01*
X168854Y132250D01*
Y133562D01*
X169510Y134218D01*
X170822D01*
X171478Y133562D01*
Y132906D01*
X168854D01*
X172790Y131595D02*
X174101D01*
X173445D01*
Y135530D01*
X172790D01*
X176069Y131595D02*
Y132250D01*
X176725D01*
Y131595D01*
X176069D01*
X181973Y134218D02*
X180005D01*
X179349Y133562D01*
Y132250D01*
X180005Y131595D01*
X181973D01*
X183941D02*
X185253D01*
X185909Y132250D01*
Y133562D01*
X185253Y134218D01*
X183941D01*
X183285Y133562D01*
Y132250D01*
X183941Y131595D01*
X187221D02*
Y134218D01*
X187877D01*
X188532Y133562D01*
Y131595D01*
Y133562D01*
X189189Y134218D01*
X189844Y133562D01*
Y131595D01*
X106693Y129428D02*
Y128641D01*
X106299Y128247D01*
X108267Y129428D02*
Y128641D01*
X107873Y128247D01*
X109448Y129034D02*
Y126673D01*
X111022D01*
X112990D02*
X112203D01*
X111809Y127067D01*
Y127854D01*
X112203Y128247D01*
X112990D01*
X113383Y127854D01*
Y127460D01*
X111809D01*
X114564Y128247D02*
X115351D01*
X115745Y127854D01*
Y126673D01*
X114564D01*
X114171Y127067D01*
X114564Y127460D01*
X115745D01*
X116532Y128247D02*
Y126673D01*
Y127460D01*
X116926Y127854D01*
X117319Y128247D01*
X117713D01*
X118894Y126673D02*
Y128247D01*
X120074D01*
X120468Y127854D01*
Y126673D01*
X124010Y128641D02*
Y128247D01*
X123616D01*
X124404D01*
X124010D01*
Y127067D01*
X124404Y126673D01*
X125978D02*
X126765D01*
X127159Y127067D01*
Y127854D01*
X126765Y128247D01*
X125978D01*
X125584Y127854D01*
Y127067D01*
X125978Y126673D01*
X131881Y129034D02*
Y126673D01*
X130701D01*
X130307Y127067D01*
Y127854D01*
X130701Y128247D01*
X131881D01*
X133849Y126673D02*
X133062D01*
X132669Y127067D01*
Y127854D01*
X133062Y128247D01*
X133849D01*
X134243Y127854D01*
Y127460D01*
X132669D01*
X135030Y126673D02*
X136211D01*
X136604Y127067D01*
X136211Y127460D01*
X135424D01*
X135030Y127854D01*
X135424Y128247D01*
X136604D01*
X137391Y126673D02*
X138179D01*
X137785D01*
Y128247D01*
X137391D01*
X140147Y125886D02*
X140540D01*
X140934Y126279D01*
Y128247D01*
X139753D01*
X139359Y127854D01*
Y127067D01*
X139753Y126673D01*
X140934D01*
X141721D02*
Y128247D01*
X142902D01*
X143295Y127854D01*
Y126673D01*
X146444Y128247D02*
Y127067D01*
X146837Y126673D01*
X148018D01*
Y126279D01*
X147624Y125886D01*
X147231D01*
X148018Y126673D02*
Y128247D01*
X149199Y126673D02*
X149986D01*
X150379Y127067D01*
Y127854D01*
X149986Y128247D01*
X149199D01*
X148805Y127854D01*
Y127067D01*
X149199Y126673D01*
X151167Y128247D02*
Y127067D01*
X151560Y126673D01*
X152741D01*
Y128247D01*
X153528D02*
Y126673D01*
Y127460D01*
X153922Y127854D01*
X154315Y128247D01*
X154709D01*
X158644Y126673D02*
X159432D01*
X159825Y127067D01*
Y127854D01*
X159432Y128247D01*
X158644D01*
X158251Y127854D01*
Y127067D01*
X158644Y126673D01*
X160612Y128247D02*
Y127067D01*
X161006Y126673D01*
X161399Y127067D01*
X161793Y126673D01*
X162187Y127067D01*
Y128247D01*
X162974Y126673D02*
Y128247D01*
X164155D01*
X164548Y127854D01*
Y126673D01*
X167697Y129034D02*
Y126673D01*
X168877D01*
X169271Y127067D01*
Y127460D01*
Y127854D01*
X168877Y128247D01*
X167697D01*
X170452Y126673D02*
X171239D01*
X171632Y127067D01*
Y127854D01*
X171239Y128247D01*
X170452D01*
X170058Y127854D01*
Y127067D01*
X170452Y126673D01*
X172813Y128247D02*
X173600D01*
X173994Y127854D01*
Y126673D01*
X172813D01*
X172420Y127067D01*
X172813Y127460D01*
X173994D01*
X174781Y128247D02*
Y126673D01*
Y127460D01*
X175174Y127854D01*
X175568Y128247D01*
X175962D01*
X178717Y129034D02*
Y126673D01*
X177536D01*
X177142Y127067D01*
Y127854D01*
X177536Y128247D01*
X178717D01*
X179504Y126673D02*
X180684D01*
X181078Y127067D01*
X180684Y127460D01*
X179897D01*
X179504Y127854D01*
X179897Y128247D01*
X181078D01*
X182259Y129428D02*
Y128641D01*
X181865Y128247D01*
X183833Y129428D02*
Y128641D01*
X183440Y128247D01*
X187375Y127854D02*
X188950D01*
X193673Y126673D02*
X192098D01*
X193673Y128247D01*
Y128641D01*
X193279Y129034D01*
X192492D01*
X192098Y128641D01*
X194460D02*
X194853Y129034D01*
X195640D01*
X196034Y128641D01*
Y128247D01*
X195640Y127854D01*
X196034Y127460D01*
Y127067D01*
X195640Y126673D01*
X194853D01*
X194460Y127067D01*
Y127460D01*
X194853Y127854D01*
X194460Y128247D01*
Y128641D01*
X194853Y127854D02*
X195640D01*
X196821Y125886D02*
Y128247D01*
X198002D01*
X198395Y127854D01*
Y127067D01*
X198002Y126673D01*
X196821D01*
X199182D02*
X199970D01*
X199576D01*
Y128247D01*
X199182D01*
X201150Y126673D02*
Y128247D01*
X202331D01*
X202725Y127854D01*
Y126673D01*
X203512D02*
X204693D01*
X205086Y127067D01*
X204693Y127460D01*
X203905D01*
X203512Y127854D01*
X203905Y128247D01*
X205086D01*
X208235Y125886D02*
Y128247D01*
X209415D01*
X209809Y127854D01*
Y127067D01*
X209415Y126673D01*
X208235D01*
X210596Y128247D02*
Y126673D01*
Y127460D01*
X210990Y127854D01*
X211383Y128247D01*
X211777D01*
X213351Y126673D02*
X214138D01*
X214532Y127067D01*
Y127854D01*
X214138Y128247D01*
X213351D01*
X212958Y127854D01*
Y127067D01*
X213351Y126673D01*
X215319Y125886D02*
X215713D01*
X216106Y126279D01*
Y128247D01*
X218861Y126673D02*
X218074D01*
X217680Y127067D01*
Y127854D01*
X218074Y128247D01*
X218861D01*
X219255Y127854D01*
Y127460D01*
X217680D01*
X221616Y128247D02*
X220435D01*
X220042Y127854D01*
Y127067D01*
X220435Y126673D01*
X221616D01*
X222797Y128641D02*
Y128247D01*
X222403D01*
X223190D01*
X222797D01*
Y127067D01*
X223190Y126673D01*
X84055Y160432D02*
X86679D01*
X85367D01*
Y156496D01*
X84252Y150098D02*
Y154034D01*
X86220D01*
X86876Y153378D01*
Y152066D01*
X86220Y151410D01*
X84252D01*
X85564D02*
X86876Y150098D01*
X3051Y122638D02*
Y126574D01*
X1083Y124606D01*
X3706D01*
X1083Y136055D02*
X1739Y136711D01*
X3051D01*
X3706Y136055D01*
Y135399D01*
X3051Y134743D01*
X2395D01*
X3051D01*
X3706Y134088D01*
Y133431D01*
X3051Y132776D01*
X1739D01*
X1083Y133431D01*
X29002Y123524D02*
X26378D01*
X29002Y126147D01*
Y126803D01*
X28346Y127459D01*
X27034D01*
X26378Y126803D01*
X15933Y172164D02*
X17245D01*
X16589D01*
Y168228D01*
X15933D01*
X17245D01*
X21837Y171508D02*
X21181Y172164D01*
X19869D01*
X19213Y171508D01*
Y168884D01*
X19869Y168228D01*
X21181D01*
X21837Y168884D01*
X25773Y171508D02*
X25117Y172164D01*
X23805D01*
X23149Y171508D01*
Y170852D01*
X23805Y170196D01*
X25117D01*
X25773Y169540D01*
Y168884D01*
X25117Y168228D01*
X23805D01*
X23149Y168884D01*
X27084Y168228D02*
Y172164D01*
X29052D01*
X29708Y171508D01*
Y170196D01*
X29052Y169540D01*
X27084D01*
X31020Y168228D02*
X32332D01*
X31676D01*
Y172164D01*
X31020Y171508D01*
X26575Y132677D02*
X27887D01*
X27231D01*
Y136613D01*
X26575Y135957D01*
X20374Y206396D02*
X21686D01*
X21030D01*
Y202461D01*
X20374D01*
X21686D01*
X26278Y205740D02*
X25622Y206396D01*
X24310D01*
X23654Y205740D01*
Y203117D01*
X24310Y202461D01*
X25622D01*
X26278Y203117D01*
X30213Y205740D02*
X29557Y206396D01*
X28245D01*
X27589Y205740D01*
Y205084D01*
X28245Y204429D01*
X29557D01*
X30213Y203772D01*
Y203117D01*
X29557Y202461D01*
X28245D01*
X27589Y203117D01*
X31525Y202461D02*
Y206396D01*
X33493D01*
X34149Y205740D01*
Y204429D01*
X33493Y203772D01*
X31525D01*
X70572Y14075D02*
X73852D01*
X74508Y14731D01*
Y16043D01*
X73852Y16699D01*
X70572D01*
X71228Y20634D02*
X70572Y19978D01*
Y18666D01*
X71228Y18011D01*
X71884D01*
X72540Y18666D01*
Y19978D01*
X73196Y20634D01*
X73852D01*
X74508Y19978D01*
Y18666D01*
X73852Y18011D01*
X70572Y24570D02*
Y21946D01*
X74508D01*
Y24570D01*
X72540Y21946D02*
Y23258D01*
X74508Y25882D02*
X70572D01*
Y27850D01*
X71228Y28506D01*
X72540D01*
X73196Y27850D01*
Y25882D01*
Y27194D02*
X74508Y28506D01*
X228937Y104035D02*
X225001D01*
Y106003D01*
X225657Y106659D01*
X226969D01*
X227625Y106003D01*
Y104035D01*
Y105347D02*
X228937Y106659D01*
X225001Y110595D02*
Y107971D01*
X228937D01*
Y110595D01*
X226969Y107971D02*
Y109283D01*
X225657Y114531D02*
X225001Y113875D01*
Y112563D01*
X225657Y111907D01*
X226313D01*
X226969Y112563D01*
Y113875D01*
X227625Y114531D01*
X228281D01*
X228937Y113875D01*
Y112563D01*
X228281Y111907D01*
X225001Y118466D02*
Y115843D01*
X228937D01*
Y118466D01*
X226969Y115843D02*
Y117155D01*
X225001Y119778D02*
Y122402D01*
Y121090D01*
X228937D01*
X2362Y150295D02*
X3674D01*
X3018D01*
Y154231D01*
X2362Y153575D01*
X2487Y183887D02*
X3799D01*
X3143D01*
Y187823D01*
X2487Y187167D01*
X49268Y173378D02*
X50580D01*
X49924D01*
Y177314D01*
X49268Y176658D01*
X38189Y31693D02*
X39501D01*
X38845D01*
Y35629D01*
X38189Y34973D01*
X112213Y1787D02*
Y3099D01*
Y2443D01*
X108277D01*
X108933Y1787D01*
X202213D02*
Y3099D01*
Y2443D01*
X198277D01*
X198933Y1787D01*
X266987Y182987D02*
X268299D01*
X267643D01*
Y186923D01*
X266987Y186267D01*
X251378Y206594D02*
Y207906D01*
Y207250D01*
X247442D01*
X248098Y206594D01*
X165256Y206791D02*
Y208103D01*
Y207447D01*
X161320D01*
X161976Y206791D01*
X42980Y28051D02*
X41930D01*
X42455D01*
Y25427D01*
X41930Y24902D01*
X41405D01*
X40881Y25427D01*
X44029Y24902D02*
Y28051D01*
X45603D01*
X46128Y27526D01*
Y26476D01*
X45603Y25952D01*
X44029D01*
X48752Y24902D02*
Y28051D01*
X47178Y26476D01*
X49277D01*
X66897Y149212D02*
X65847D01*
X66372D01*
Y146588D01*
X65847Y146063D01*
X65323D01*
X64798Y146588D01*
X67946Y146063D02*
Y149212D01*
X69521D01*
X70046Y148687D01*
Y147638D01*
X69521Y147113D01*
X67946D01*
X71095Y148687D02*
X71620Y149212D01*
X72669D01*
X73194Y148687D01*
Y148163D01*
X72669Y147638D01*
X72145D01*
X72669D01*
X73194Y147113D01*
Y146588D01*
X72669Y146063D01*
X71620D01*
X71095Y146588D01*
X12763Y144488D02*
X11714D01*
X12238D01*
Y141864D01*
X11714Y141339D01*
X11189D01*
X10664Y141864D01*
X13813Y141339D02*
Y144488D01*
X15387D01*
X15912Y143963D01*
Y142913D01*
X15387Y142389D01*
X13813D01*
X19060Y141339D02*
X16961D01*
X19060Y143438D01*
Y143963D01*
X18536Y144488D01*
X17486D01*
X16961Y143963D01*
X259449Y194389D02*
X258400D01*
X258925D01*
Y191765D01*
X258400Y191241D01*
X257875D01*
X257350Y191765D01*
X260499Y191241D02*
Y194389D01*
X262073D01*
X262598Y193865D01*
Y192815D01*
X262073Y192290D01*
X260499D01*
X263647Y191241D02*
X264697D01*
X264172D01*
Y194389D01*
X263647Y193865D01*
X24081Y62598D02*
X23032D01*
X23557D01*
Y59974D01*
X23032Y59449D01*
X22507D01*
X21982Y59974D01*
X25131Y62598D02*
X27230D01*
Y62073D01*
X25131Y59974D01*
Y59449D01*
X38813Y160531D02*
X37501D01*
X38157D01*
Y157251D01*
X37501Y156595D01*
X36845D01*
X36189Y157251D01*
X42748Y160531D02*
X41436Y159875D01*
X40124Y158563D01*
Y157251D01*
X40780Y156595D01*
X42092D01*
X42748Y157251D01*
Y157907D01*
X42092Y158563D01*
X40124D01*
X189862Y11810D02*
X188550D01*
X189206D01*
Y8531D01*
X188550Y7875D01*
X187894D01*
X187238Y8531D01*
X191174Y7875D02*
X192486D01*
X191830D01*
Y11810D01*
X191174Y11154D01*
X38813Y193897D02*
X37501D01*
X38157D01*
Y190617D01*
X37501Y189961D01*
X36845D01*
X36189Y190617D01*
X42748Y193897D02*
X40124D01*
Y191929D01*
X41436Y192585D01*
X42092D01*
X42748Y191929D01*
Y190617D01*
X42092Y189961D01*
X40780D01*
X40124Y190617D01*
X116569Y193799D02*
X115257D01*
X115912D01*
Y190519D01*
X115257Y189863D01*
X114601D01*
X113945Y190519D01*
X119848Y189863D02*
Y193799D01*
X117880Y191831D01*
X120504D01*
X216076Y193799D02*
X214764D01*
X215420D01*
Y190519D01*
X214764Y189863D01*
X214108D01*
X213453Y190519D01*
X217388Y193143D02*
X218044Y193799D01*
X219356D01*
X220012Y193143D01*
Y192487D01*
X219356Y191831D01*
X218700D01*
X219356D01*
X220012Y191175D01*
Y190519D01*
X219356Y189863D01*
X218044D01*
X217388Y190519D01*
X223557Y20177D02*
X222245D01*
X222901D01*
Y16897D01*
X222245Y16241D01*
X221589D01*
X220933Y16897D01*
X227492Y16241D02*
X224869D01*
X227492Y18865D01*
Y19521D01*
X226836Y20177D01*
X225524D01*
X224869Y19521D01*
D11*
X79134Y104331D02*
G03*
X79134Y104331I-394J0D01*
G01*
D12*
X2413Y115680D02*
X4381D01*
X228420Y95213D02*
Y97181D01*
X111122Y149047D02*
Y145111D01*
X113090D01*
X113746Y145767D01*
Y146423D01*
X113090Y147079D01*
X111122D01*
X113090D01*
X113746Y147735D01*
Y148391D01*
X113090Y149047D01*
X111122D01*
X117026Y145111D02*
X115714D01*
X115058Y145767D01*
Y147079D01*
X115714Y147735D01*
X117026D01*
X117682Y147079D01*
Y146423D01*
X115058D01*
X120305Y143799D02*
X120961D01*
X121617Y144455D01*
Y147735D01*
X119650D01*
X118993Y147079D01*
Y145767D01*
X119650Y145111D01*
X121617D01*
X122929Y147735D02*
Y145767D01*
X123585Y145111D01*
X125553D01*
Y147735D01*
X128833Y145111D02*
X127521D01*
X126865Y145767D01*
Y147079D01*
X127521Y147735D01*
X128833D01*
X129489Y147079D01*
Y146423D01*
X126865D01*
X137360Y148391D02*
X136704Y149047D01*
X135392D01*
X134737Y148391D01*
Y145767D01*
X135392Y145111D01*
X136704D01*
X137360Y145767D01*
X140640Y145111D02*
X139328D01*
X138672Y145767D01*
Y147079D01*
X139328Y147735D01*
X140640D01*
X141296Y147079D01*
Y146423D01*
X138672D01*
X145232Y149047D02*
Y145111D01*
X143264D01*
X142608Y145767D01*
Y147079D01*
X143264Y147735D01*
X145232D01*
X146544D02*
Y145111D01*
Y146423D01*
X147200Y147079D01*
X147856Y147735D01*
X148512D01*
X150479Y145111D02*
X151791D01*
X151135D01*
Y147735D01*
X150479D01*
X156383D02*
X154415D01*
X153759Y147079D01*
Y145767D01*
X154415Y145111D01*
X156383D01*
D13*
X111024Y141731D02*
Y137795D01*
X112991D01*
X113647Y138451D01*
Y139107D01*
Y139763D01*
X112991Y140419D01*
X111024D01*
X115615D02*
X116927D01*
X117583Y139763D01*
Y137795D01*
X115615D01*
X114959Y138451D01*
X115615Y139107D01*
X117583D01*
X118895Y137795D02*
X120863D01*
X121519Y138451D01*
X120863Y139107D01*
X119551D01*
X118895Y139763D01*
X119551Y140419D01*
X121519D01*
X124799Y137795D02*
X123487D01*
X122831Y138451D01*
Y139763D01*
X123487Y140419D01*
X124799D01*
X125455Y139763D01*
Y139107D01*
X122831D01*
X129390Y141731D02*
Y137795D01*
X127422D01*
X126767Y138451D01*
Y139763D01*
X127422Y140419D01*
X129390D01*
X135294Y137795D02*
X136606D01*
X137262Y138451D01*
Y139763D01*
X136606Y140419D01*
X135294D01*
X134638Y139763D01*
Y138451D01*
X135294Y137795D01*
X138574D02*
Y140419D01*
X140542D01*
X141198Y139763D01*
Y137795D01*
X146445Y140419D02*
X147101D01*
Y139763D01*
X146445D01*
Y140419D01*
Y138451D02*
X147101D01*
Y137795D01*
X146445D01*
Y138451D01*
M02*
