G04*
G04 #@! TF.GenerationSoftware,Altium Limited,Altium Designer,20.1.11 (218)*
G04*
G04 Layer_Color=8388736*
%FSLAX25Y25*%
%MOIN*%
G70*
G04*
G04 #@! TF.SameCoordinates,693C8C31-8EEC-4DF3-A6D9-A21B1C167F78*
G04*
G04*
G04 #@! TF.FilePolarity,Negative*
G04*
G01*
G75*
%ADD35R,0.03487X0.02987*%
%ADD36R,0.02987X0.03487*%
%ADD37R,0.05906X0.03543*%
%ADD38R,0.03543X0.05906*%
%ADD39R,0.08268X0.08268*%
%ADD40R,0.06299X0.07087*%
%ADD41R,0.05709X0.01968*%
%ADD42R,0.04331X0.03150*%
%ADD43R,0.11024X0.10630*%
%ADD44R,0.10630X0.11024*%
%ADD45R,0.05118X0.03150*%
%ADD46R,0.03150X0.05118*%
%ADD47R,0.03150X0.09449*%
%ADD48R,0.14567X0.09449*%
%ADD49R,0.06378X0.02638*%
%ADD50R,0.02638X0.06378*%
%ADD51R,0.11417X0.08661*%
%ADD52C,0.12000*%
%ADD53R,0.05906X0.04331*%
%ADD54R,0.04331X0.05906*%
%ADD55R,0.03937X0.03937*%
%ADD56R,0.07087X0.12598*%
%ADD57O,0.07087X0.08661*%
%ADD58R,0.07087X0.08661*%
%ADD59R,0.07480X0.07480*%
%ADD60C,0.07480*%
%ADD61O,0.08661X0.07087*%
%ADD62R,0.08661X0.07087*%
G04:AMPARAMS|DCode=63|XSize=86.61mil|YSize=55.12mil|CornerRadius=15.75mil|HoleSize=0mil|Usage=FLASHONLY|Rotation=0.000|XOffset=0mil|YOffset=0mil|HoleType=Round|Shape=RoundedRectangle|*
%AMROUNDEDRECTD63*
21,1,0.08661,0.02362,0,0,0.0*
21,1,0.05512,0.05512,0,0,0.0*
1,1,0.03150,0.02756,-0.01181*
1,1,0.03150,-0.02756,-0.01181*
1,1,0.03150,-0.02756,0.01181*
1,1,0.03150,0.02756,0.01181*
%
%ADD63ROUNDEDRECTD63*%
%ADD64C,0.16535*%
%ADD65C,0.13386*%
%ADD66C,0.08268*%
%ADD67R,0.08268X0.08268*%
%ADD68C,0.29921*%
%ADD69C,0.03150*%
D35*
X3200Y103400D02*
D03*
Y113000D02*
D03*
D36*
X231100Y96000D02*
D03*
X240700D02*
D03*
D37*
X131400Y18260D02*
D03*
Y25740D02*
D03*
Y33240D02*
D03*
Y25760D02*
D03*
X247900Y88660D02*
D03*
Y96140D02*
D03*
X96358Y57480D02*
D03*
Y64961D02*
D03*
X256700Y82340D02*
D03*
Y74860D02*
D03*
X108100Y25840D02*
D03*
Y18360D02*
D03*
X256700Y88560D02*
D03*
Y96040D02*
D03*
X10400Y103920D02*
D03*
Y111400D02*
D03*
X250800Y162560D02*
D03*
Y170040D02*
D03*
X232400Y186540D02*
D03*
Y179060D02*
D03*
X241000Y186540D02*
D03*
Y179060D02*
D03*
X85200Y104660D02*
D03*
Y112140D02*
D03*
X35900Y110040D02*
D03*
Y102560D02*
D03*
X67700Y154260D02*
D03*
Y161740D02*
D03*
D38*
X49460Y81200D02*
D03*
X56940D02*
D03*
X114340Y33000D02*
D03*
X106860D02*
D03*
X3760Y95800D02*
D03*
X11240D02*
D03*
X236417Y142520D02*
D03*
X228937D02*
D03*
X155140Y89800D02*
D03*
X147660D02*
D03*
X90960Y175600D02*
D03*
X98440D02*
D03*
X231160Y89300D02*
D03*
X238640D02*
D03*
X146840Y39100D02*
D03*
X139360D02*
D03*
X33858Y63976D02*
D03*
X41339D02*
D03*
X41340Y72700D02*
D03*
X33860D02*
D03*
Y81300D02*
D03*
X41340D02*
D03*
X41400Y137200D02*
D03*
X33920D02*
D03*
X104960Y163800D02*
D03*
X112440D02*
D03*
X104860Y172800D02*
D03*
X112340D02*
D03*
D39*
X8500Y78732D02*
D03*
Y69283D02*
D03*
X96358Y32395D02*
D03*
D40*
X18146Y61409D02*
D03*
Y86606D02*
D03*
D41*
X19031Y68890D02*
D03*
Y71449D02*
D03*
Y74008D02*
D03*
Y76567D02*
D03*
Y79126D02*
D03*
D42*
X26800Y66495D02*
D03*
Y72400D02*
D03*
Y84200D02*
D03*
Y78294D02*
D03*
D43*
X97400Y104309D02*
D03*
Y123600D02*
D03*
D44*
X168246Y111000D02*
D03*
X148954D02*
D03*
D45*
X89370Y57284D02*
D03*
Y64764D02*
D03*
X79134Y57284D02*
D03*
Y61024D02*
D03*
Y64764D02*
D03*
X65782Y175240D02*
D03*
Y171500D02*
D03*
Y167760D02*
D03*
X76018Y175240D02*
D03*
Y167760D02*
D03*
D46*
X253240Y67418D02*
D03*
X249500D02*
D03*
X245760D02*
D03*
X253240Y57182D02*
D03*
X245760D02*
D03*
X17560Y97682D02*
D03*
X21300D02*
D03*
X25040D02*
D03*
X17560Y107918D02*
D03*
X25040D02*
D03*
D47*
X52205Y44783D02*
D03*
X57205D02*
D03*
X62205D02*
D03*
X67205D02*
D03*
X72205D02*
D03*
D48*
X62205Y69193D02*
D03*
D49*
X77165Y107087D02*
D03*
Y110236D02*
D03*
Y113386D02*
D03*
Y116535D02*
D03*
Y119685D02*
D03*
Y122835D02*
D03*
Y125984D02*
D03*
Y129134D02*
D03*
X44094D02*
D03*
Y125984D02*
D03*
Y122835D02*
D03*
Y119685D02*
D03*
Y116535D02*
D03*
Y113386D02*
D03*
Y110236D02*
D03*
Y107087D02*
D03*
D50*
X71653Y134646D02*
D03*
X68504D02*
D03*
X65354D02*
D03*
X62205D02*
D03*
X59055D02*
D03*
X55905D02*
D03*
X52756D02*
D03*
X49606D02*
D03*
Y101575D02*
D03*
X52756D02*
D03*
X55905D02*
D03*
X59055D02*
D03*
X62205D02*
D03*
X65354D02*
D03*
X68504D02*
D03*
X71653D02*
D03*
D51*
X10100Y23302D02*
D03*
Y35900D02*
D03*
D52*
X40000Y204000D02*
D03*
X263700Y8000D02*
D03*
X263701Y204000D02*
D03*
X87900Y19200D02*
D03*
D53*
X169400Y23460D02*
D03*
Y30940D02*
D03*
X76300Y71560D02*
D03*
Y79040D02*
D03*
X89200Y49140D02*
D03*
Y41660D02*
D03*
X247900Y74460D02*
D03*
Y81940D02*
D03*
X85100Y79100D02*
D03*
Y71620D02*
D03*
X83100Y167860D02*
D03*
Y175340D02*
D03*
X44200Y43620D02*
D03*
Y51100D02*
D03*
X142100Y26640D02*
D03*
Y19160D02*
D03*
X122000Y26640D02*
D03*
Y19160D02*
D03*
X80400Y41620D02*
D03*
Y49100D02*
D03*
X250800Y186240D02*
D03*
Y178760D02*
D03*
X9100Y177740D02*
D03*
Y170260D02*
D03*
X67224Y85728D02*
D03*
Y93209D02*
D03*
X85200Y126840D02*
D03*
Y119360D02*
D03*
X76378Y86417D02*
D03*
Y93898D02*
D03*
X85100Y86320D02*
D03*
Y93800D02*
D03*
D54*
X177560Y21300D02*
D03*
X185040D02*
D03*
X228460Y133800D02*
D03*
X235940D02*
D03*
X41780Y91000D02*
D03*
X34300D02*
D03*
X25540Y115100D02*
D03*
X18060D02*
D03*
X253340Y49000D02*
D03*
X245860D02*
D03*
X162320Y98700D02*
D03*
X169800D02*
D03*
X147420D02*
D03*
X154900D02*
D03*
X175980Y39100D02*
D03*
X168500D02*
D03*
X153720D02*
D03*
X161200D02*
D03*
X161200Y30300D02*
D03*
X153720D02*
D03*
X94960Y190200D02*
D03*
X102440D02*
D03*
X162060Y89800D02*
D03*
X169540D02*
D03*
X185040Y30200D02*
D03*
X177560D02*
D03*
X15840Y205700D02*
D03*
X8360D02*
D03*
X157840Y19900D02*
D03*
X150360D02*
D03*
X93060Y93100D02*
D03*
X100540D02*
D03*
X93160Y134900D02*
D03*
X100640D02*
D03*
X56540Y91000D02*
D03*
X49060D02*
D03*
D55*
X98450Y151900D02*
D03*
X92150D02*
D03*
X98350Y159000D02*
D03*
X92050D02*
D03*
X98350Y167700D02*
D03*
X92050D02*
D03*
X236122Y150295D02*
D03*
X229823D02*
D03*
D56*
X28400Y23071D02*
D03*
Y6929D02*
D03*
X28300Y36400D02*
D03*
Y52542D02*
D03*
D57*
X180000Y10000D02*
D03*
X170000D02*
D03*
X160000D02*
D03*
X150000D02*
D03*
X140000D02*
D03*
X130000D02*
D03*
X120000D02*
D03*
X55748Y34646D02*
D03*
X65748D02*
D03*
X250000Y10000D02*
D03*
X240000D02*
D03*
X230000D02*
D03*
X220000D02*
D03*
X210000D02*
D03*
X240000Y200000D02*
D03*
X230000D02*
D03*
X220000D02*
D03*
X210000D02*
D03*
X200000D02*
D03*
X190000D02*
D03*
X180000D02*
D03*
X74000D02*
D03*
X84000D02*
D03*
X94000D02*
D03*
X104000D02*
D03*
X114000D02*
D03*
X124000D02*
D03*
X134000D02*
D03*
X144000D02*
D03*
X154000D02*
D03*
X226476Y79500D02*
D03*
X216476D02*
D03*
X206476D02*
D03*
X196476D02*
D03*
X186476D02*
D03*
X176476D02*
D03*
X166476D02*
D03*
X156476D02*
D03*
X146476D02*
D03*
X136476D02*
D03*
X126476D02*
D03*
X116476D02*
D03*
X106476D02*
D03*
X236476Y49500D02*
D03*
X226476D02*
D03*
X216476D02*
D03*
X206476D02*
D03*
X196476D02*
D03*
X186476D02*
D03*
X176476D02*
D03*
X166476D02*
D03*
X156476D02*
D03*
X146476D02*
D03*
X136476D02*
D03*
X126476D02*
D03*
X116476D02*
D03*
X106476D02*
D03*
D58*
X110000Y10000D02*
D03*
X45748Y34646D02*
D03*
X200000Y10000D02*
D03*
X250000Y200000D02*
D03*
X164000D02*
D03*
X236476Y79500D02*
D03*
D59*
X20000Y134670D02*
D03*
X10000Y152000D02*
D03*
Y186000D02*
D03*
D60*
Y124670D02*
D03*
Y134670D02*
D03*
X20000Y124670D02*
D03*
X10000Y162000D02*
D03*
X20000Y152000D02*
D03*
X30000Y162000D02*
D03*
X20000D02*
D03*
X30000Y152000D02*
D03*
Y186000D02*
D03*
X20000Y196000D02*
D03*
X30000D02*
D03*
X20000Y186000D02*
D03*
X10000Y196000D02*
D03*
D61*
X57480Y145591D02*
D03*
Y155591D02*
D03*
Y165591D02*
D03*
X260630Y174646D02*
D03*
Y164646D02*
D03*
D62*
X57480Y175591D02*
D03*
X260630Y184646D02*
D03*
D63*
X8500Y61016D02*
D03*
Y87000D02*
D03*
D64*
X8400Y50000D02*
D03*
X8600Y8500D02*
D03*
D65*
X60000Y200000D02*
D03*
D66*
X96358Y6805D02*
D03*
X78642D02*
D03*
Y32395D02*
D03*
X234547Y103347D02*
D03*
Y121063D02*
D03*
X260138D02*
D03*
D67*
Y103347D02*
D03*
D68*
X260000Y140000D02*
D03*
Y30000D02*
D03*
X55000Y10000D02*
D03*
D69*
X242717Y72638D02*
D03*
X243001Y69587D02*
D03*
X88976Y188386D02*
D03*
X167520Y192028D02*
D03*
X171457D02*
D03*
X163583D02*
D03*
X159646D02*
D03*
X163878Y154921D02*
D03*
X159941D02*
D03*
Y158858D02*
D03*
X121800Y91900D02*
D03*
X111700Y86200D02*
D03*
X163878Y158858D02*
D03*
X215158Y173917D02*
D03*
X219882Y162894D02*
D03*
X120571Y165748D02*
D03*
X117815Y170669D02*
D03*
X61024Y79035D02*
D03*
X62500Y82579D02*
D03*
X67618Y75886D02*
D03*
X219783Y155020D02*
D03*
X219193Y152264D02*
D03*
X22736Y80413D02*
D03*
X76378Y89665D02*
D03*
X96161Y72835D02*
D03*
X169390Y19094D02*
D03*
X71752Y112697D02*
D03*
X67524Y82069D02*
D03*
X90100Y79200D02*
D03*
X181600Y60800D02*
D03*
X156225Y25295D02*
D03*
X160531D02*
D03*
X164370Y25394D02*
D03*
X50394Y155512D02*
D03*
X73452Y53924D02*
D03*
X62897Y53527D02*
D03*
X38091Y142323D02*
D03*
X41732Y142421D02*
D03*
X38780Y114665D02*
D03*
X58169Y95079D02*
D03*
X243012Y30807D02*
D03*
X218898Y170374D02*
D03*
X215650Y166634D02*
D03*
X30399Y68110D02*
D03*
X71653Y157874D02*
D03*
X109055Y169685D02*
D03*
X94882Y171653D02*
D03*
X33268Y44094D02*
D03*
X231102Y70079D02*
D03*
X219291Y149213D02*
D03*
X151000Y34000D02*
D03*
X142126Y29921D02*
D03*
X122047Y32283D02*
D03*
X78347Y157677D02*
D03*
X82284Y162205D02*
D03*
X103400Y97000D02*
D03*
X181000Y33800D02*
D03*
X174400Y99400D02*
D03*
X80700Y82700D02*
D03*
X80000Y53300D02*
D03*
X89000D02*
D03*
X162200Y84600D02*
D03*
X29100Y115000D02*
D03*
X85200Y97400D02*
D03*
X59600Y56000D02*
D03*
X30062Y94262D02*
D03*
X83500Y140100D02*
D03*
X151064Y41936D02*
D03*
X14093Y177694D02*
D03*
X42000Y95000D02*
D03*
X142600Y98700D02*
D03*
X59000Y106000D02*
D03*
X101000Y140000D02*
D03*
X21000Y206000D02*
D03*
X259000Y49000D02*
D03*
X173000Y44000D02*
D03*
X30000Y84000D02*
D03*
X182000Y40400D02*
D03*
X44000Y74650D02*
D03*
Y77800D02*
D03*
X86700Y162800D02*
D03*
X253300Y63700D02*
D03*
X244800Y173800D02*
D03*
X121800Y71200D02*
D03*
X111600Y71600D02*
D03*
M02*
