G04*
G04 #@! TF.GenerationSoftware,Altium Limited,Altium Designer,20.1.11 (218)*
G04*
G04 Layer_Physical_Order=2*
G04 Layer_Color=16711680*
%FSLAX25Y25*%
%MOIN*%
G70*
G04*
G04 #@! TF.SameCoordinates,693C8C31-8EEC-4DF3-A6D9-A21B1C167F78*
G04*
G04*
G04 #@! TF.FilePolarity,Positive*
G04*
G01*
G75*
%ADD12C,0.01181*%
%ADD18R,0.07480X0.07480*%
%ADD59R,0.07480X0.07480*%
%ADD60C,0.07480*%
%ADD71C,0.02362*%
%ADD72C,0.03937*%
%ADD74C,0.01575*%
%ADD75O,0.06299X0.07874*%
%ADD76R,0.06299X0.07874*%
%ADD77R,0.06693X0.06693*%
%ADD78C,0.06693*%
%ADD79O,0.07874X0.06299*%
%ADD80R,0.07874X0.06299*%
G04:AMPARAMS|DCode=81|XSize=78.74mil|YSize=47.24mil|CornerRadius=11.81mil|HoleSize=0mil|Usage=FLASHONLY|Rotation=0.000|XOffset=0mil|YOffset=0mil|HoleType=Round|Shape=RoundedRectangle|*
%AMROUNDEDRECTD81*
21,1,0.07874,0.02362,0,0,0.0*
21,1,0.05512,0.04724,0,0,0.0*
1,1,0.02362,0.02756,-0.01181*
1,1,0.02362,-0.02756,-0.01181*
1,1,0.02362,-0.02756,0.01181*
1,1,0.02362,0.02756,0.01181*
%
%ADD81ROUNDEDRECTD81*%
%ADD82C,0.15748*%
%ADD83C,0.12598*%
%ADD84C,0.29134*%
%ADD85C,0.02362*%
%ADD86O,0.06299X0.03543*%
G36*
X255906Y208268D02*
X255906Y190846D01*
X100394Y190847D01*
X100394Y208305D01*
X100748Y208659D01*
X255906Y208268D01*
D02*
G37*
G36*
X35039Y187806D02*
X34152D01*
X33955Y188283D01*
X33229Y189229D01*
X32283Y189955D01*
X31182Y190411D01*
X30000Y190567D01*
X28818Y190411D01*
X27717Y189955D01*
X26771Y189229D01*
X26045Y188283D01*
X25589Y187182D01*
X25433Y186000D01*
X25589Y184818D01*
X26045Y183717D01*
X26771Y182771D01*
X27717Y182045D01*
X28818Y181589D01*
X30000Y181433D01*
X31182Y181589D01*
X32283Y182045D01*
X33229Y182771D01*
X33955Y183717D01*
X34152Y184194D01*
X37252D01*
X46373Y175073D01*
X46959Y174681D01*
X47650Y174544D01*
X48008Y174044D01*
X48008Y155628D01*
X47985Y155512D01*
X48008Y155396D01*
X48008Y150353D01*
X48100Y149893D01*
X48361Y149502D01*
X48361Y149502D01*
X48425Y149438D01*
Y149213D01*
X48650D01*
X48715Y149148D01*
X48715Y149148D01*
X49105Y148887D01*
X49566Y148796D01*
X49566Y148796D01*
X53063Y148796D01*
X53310Y148296D01*
X52910Y147775D01*
X52474Y146721D01*
X52325Y145591D01*
X52474Y144460D01*
X52910Y143406D01*
X53604Y142502D01*
X54509Y141808D01*
X55562Y141371D01*
X56693Y141223D01*
X58268D01*
X59398Y141371D01*
X60452Y141808D01*
X61356Y142502D01*
X62051Y143406D01*
X62487Y144460D01*
X62636Y145591D01*
X62487Y146721D01*
X62051Y147775D01*
X61651Y148296D01*
X61897Y148796D01*
X66536Y148796D01*
X66996Y148888D01*
X67387Y149149D01*
X67387Y149149D01*
X82294Y164056D01*
X82794D01*
X84351Y162499D01*
X84475Y161878D01*
X84997Y161097D01*
X85778Y160575D01*
X86399Y160451D01*
X86811Y160039D01*
X220472Y160039D01*
X220472Y83015D01*
X219972Y82845D01*
X219565Y83376D01*
X218660Y84070D01*
X217607Y84507D01*
X216476Y84655D01*
X215346Y84507D01*
X214292Y84070D01*
X213388Y83376D01*
X212694Y82471D01*
X212257Y81418D01*
X212108Y80287D01*
Y78713D01*
X212257Y77582D01*
X212694Y76529D01*
X213388Y75624D01*
X214292Y74930D01*
X215346Y74493D01*
X216476Y74344D01*
X217607Y74493D01*
X218660Y74930D01*
X219565Y75624D01*
X219972Y76155D01*
X220472Y75985D01*
Y73622D01*
X229194D01*
Y71474D01*
X228877Y71000D01*
X228694Y70079D01*
X228750Y69794D01*
X228445Y69421D01*
X228445Y69421D01*
Y67421D01*
X233071D01*
X233328Y67678D01*
Y69157D01*
X233511Y70079D01*
X233328Y71000D01*
X233208Y71179D01*
Y73622D01*
X243754D01*
Y66522D01*
X230672Y53440D01*
X230597Y53329D01*
X230302Y53034D01*
X229803Y53066D01*
X229565Y53376D01*
X228660Y54070D01*
X227607Y54507D01*
X226476Y54655D01*
X225346Y54507D01*
X224292Y54070D01*
X223388Y53376D01*
X222693Y52471D01*
X222257Y51418D01*
X222108Y50287D01*
Y48713D01*
X222257Y47582D01*
X222693Y46529D01*
X223388Y45624D01*
X224292Y44930D01*
X225346Y44493D01*
X226476Y44344D01*
X227607Y44493D01*
X228660Y44930D01*
X229565Y45624D01*
X230259Y46529D01*
X230696Y47582D01*
X230844Y48713D01*
Y49013D01*
X231283Y49100D01*
X231608Y49317D01*
X232108Y49050D01*
Y48713D01*
X232257Y47582D01*
X232694Y46529D01*
X233388Y45624D01*
X234292Y44930D01*
X235346Y44493D01*
X236476Y44344D01*
X237607Y44493D01*
X238660Y44930D01*
X239565Y45624D01*
X240259Y46529D01*
X240696Y47582D01*
X240844Y48713D01*
Y50287D01*
X240715Y51272D01*
X240943Y51640D01*
X241090Y51772D01*
X263673Y51772D01*
X264173Y51638D01*
Y46063D01*
X263906Y33465D01*
X244882Y33465D01*
X244488Y33858D01*
X220472D01*
X181890Y33858D01*
X180689Y32658D01*
X180670Y32661D01*
X180553Y32638D01*
X180435D01*
X180325Y32593D01*
X180209Y32570D01*
X180110Y32504D01*
X180001Y32458D01*
X179917Y32375D01*
X179818Y32309D01*
X171548Y24039D01*
X146168Y24039D01*
X138647Y31560D01*
X138647Y31560D01*
X138256Y31821D01*
X137795Y31913D01*
X137795Y31913D01*
X123836Y31913D01*
X123720Y31890D01*
X123601Y31890D01*
X123492Y31844D01*
X123375Y31821D01*
X123276Y31755D01*
X123167Y31710D01*
X123083Y31626D01*
X122984Y31560D01*
X122942Y31496D01*
X121153D01*
X121110Y31560D01*
X121011Y31626D01*
X120928Y31710D01*
X120818Y31755D01*
X120719Y31821D01*
X120603Y31844D01*
X120493Y31890D01*
X120375D01*
X120258Y31913D01*
X115066D01*
X95733Y51245D01*
X95343Y51506D01*
X94882Y51598D01*
X94882Y51598D01*
X61916Y51598D01*
X61047Y52467D01*
X61047Y54126D01*
X61303Y54297D01*
X61825Y55078D01*
X62009Y56000D01*
X61825Y56922D01*
X61303Y57703D01*
X60522Y58225D01*
X60219Y58285D01*
X60138Y58366D01*
X59813D01*
X59600Y58408D01*
X59387Y58366D01*
X36244D01*
Y59449D01*
X36152Y59909D01*
X35891Y60300D01*
X35891Y60300D01*
X28763Y67428D01*
X28763Y83858D01*
X28672Y84319D01*
X28411Y84710D01*
X28020Y84971D01*
X27953Y84984D01*
Y88073D01*
X27976Y88189D01*
Y114597D01*
X27953Y114713D01*
Y115287D01*
X27976Y115403D01*
Y124803D01*
X27976Y124803D01*
X27884Y125264D01*
X27623Y125655D01*
X27623Y125655D01*
X25614Y127664D01*
Y130142D01*
X25591Y130259D01*
Y139081D01*
X25614Y139198D01*
Y149495D01*
X25753Y149566D01*
X26113Y149629D01*
X26771Y148771D01*
X27717Y148045D01*
X28818Y147589D01*
X30000Y147433D01*
X31182Y147589D01*
X32283Y148045D01*
X33229Y148771D01*
X33955Y149717D01*
X34411Y150818D01*
X34567Y152000D01*
X34411Y153182D01*
X33955Y154283D01*
X33229Y155229D01*
X32283Y155955D01*
X31182Y156411D01*
X30000Y156567D01*
X28818Y156411D01*
X27717Y155955D01*
X26771Y155229D01*
X26113Y154371D01*
X25753Y154434D01*
X25614Y154505D01*
Y159626D01*
X25591Y159742D01*
X25591Y159861D01*
X25591Y159861D01*
Y164139D01*
X25591Y164139D01*
X25591Y164258D01*
X25614Y164374D01*
Y164961D01*
X25614Y164961D01*
X25591Y165077D01*
Y166196D01*
X14093Y177694D01*
X13525Y178793D01*
X13600Y178867D01*
X13645Y178977D01*
X13711Y179075D01*
X13734Y179192D01*
X13780Y179301D01*
Y179420D01*
X13803Y179536D01*
X13803Y181119D01*
X14156Y181473D01*
X14527D01*
Y190237D01*
X14590Y190551D01*
X14590Y190551D01*
X14590Y198859D01*
X14498Y199320D01*
X14237Y199711D01*
X13884Y200064D01*
X13884Y200064D01*
X13493Y200325D01*
X13032Y200417D01*
X13032Y200417D01*
X11138D01*
X10000Y200567D01*
X8862Y200417D01*
X2362Y200417D01*
X2362Y200417D01*
Y208268D01*
X35039D01*
Y187806D01*
D02*
G37*
G36*
X52362Y174508D02*
Y171260D01*
X62598D01*
Y174508D01*
X110236Y174508D01*
X110236Y169251D01*
X109883Y168898D01*
X85433Y168898D01*
X66536Y150000D01*
X49566Y150000D01*
X49213Y150353D01*
X49213Y174508D01*
X52362D01*
D02*
G37*
G36*
X13032Y199213D02*
X13386Y198859D01*
X13386Y190551D01*
X13362Y190527D01*
X5472D01*
Y181473D01*
X12598D01*
X12598Y179536D01*
X12390Y179397D01*
X11868Y178616D01*
X11685Y177694D01*
X11868Y176772D01*
X12390Y175991D01*
X13171Y175469D01*
X14083Y175287D01*
X24409Y164961D01*
Y164374D01*
X24393Y164371D01*
X23909Y164342D01*
X23229Y165229D01*
X22283Y165955D01*
X21182Y166411D01*
X20000Y166567D01*
X18818Y166411D01*
X17717Y165955D01*
X16771Y165229D01*
X16045Y164283D01*
X15589Y163182D01*
X15433Y162000D01*
X15589Y160818D01*
X16045Y159717D01*
X16771Y158771D01*
X17717Y158045D01*
X18818Y157589D01*
X20000Y157433D01*
X21182Y157589D01*
X22283Y158045D01*
X23229Y158771D01*
X23909Y159658D01*
X24393Y159629D01*
X24409Y159626D01*
Y154374D01*
X24393Y154370D01*
X23909Y154342D01*
X23229Y155229D01*
X22283Y155955D01*
X21182Y156411D01*
X20000Y156567D01*
X18818Y156411D01*
X17717Y155955D01*
X16771Y155229D01*
X16045Y154283D01*
X15589Y153182D01*
X15433Y152000D01*
X15589Y150818D01*
X16045Y149717D01*
X16771Y148771D01*
X17717Y148045D01*
X18818Y147589D01*
X20000Y147433D01*
X21182Y147589D01*
X22283Y148045D01*
X23229Y148771D01*
X23909Y149658D01*
X24393Y149629D01*
X24409Y149626D01*
Y139198D01*
X15473D01*
Y130142D01*
X24409D01*
Y127165D01*
X26772Y124803D01*
Y115403D01*
X26691Y115000D01*
X26772Y114597D01*
Y88189D01*
X20079Y88189D01*
X19291Y87402D01*
Y64567D01*
X27339Y56519D01*
Y42914D01*
X27431Y42453D01*
X27431Y42453D01*
X27692Y42062D01*
X27692Y42062D01*
X28082Y41801D01*
X28082Y41801D01*
X28543Y41709D01*
X29506Y41709D01*
X29807Y41649D01*
X30020Y41437D01*
X36614Y41437D01*
X36614Y57087D01*
X59489Y57087D01*
X59843Y56733D01*
X59842Y51968D01*
X61417Y50394D01*
X94882Y50394D01*
X114567Y30709D01*
X120258D01*
X120344Y30580D01*
X121125Y30058D01*
X122047Y29875D01*
X122969Y30058D01*
X123750Y30580D01*
X123836Y30709D01*
X137795Y30709D01*
X145669Y22835D01*
X172047Y22835D01*
X180670Y31457D01*
X181000Y31392D01*
X181922Y31575D01*
X182393Y31890D01*
X244094Y31890D01*
Y16929D01*
X242913Y15748D01*
X144587Y15748D01*
X140551Y19783D01*
X140483D01*
X139435Y20832D01*
X139435Y20832D01*
X139435Y20832D01*
X139264Y20946D01*
X139044Y21093D01*
X139044Y21093D01*
X139044Y21093D01*
X138864Y21129D01*
X138584Y21185D01*
X138583Y21185D01*
X138583Y21185D01*
X115558Y21184D01*
X113056Y23686D01*
X113056Y23686D01*
X108332Y28411D01*
X107941Y28672D01*
X107480Y28763D01*
X107480Y28763D01*
X101279D01*
Y37317D01*
X92211D01*
X89370Y40157D01*
X89105D01*
X88647Y40615D01*
X88256Y40876D01*
X87795Y40968D01*
X87795Y40968D01*
X62598Y40968D01*
X62138Y40876D01*
X61747Y40615D01*
X61486Y40225D01*
X61472Y40157D01*
X61417D01*
X61024Y39764D01*
Y29551D01*
X50458D01*
X50079Y29930D01*
Y39764D01*
X48935Y39764D01*
X48819Y39787D01*
X42873D01*
X42873Y39787D01*
X42757Y39764D01*
X41417D01*
Y38705D01*
X41407Y38690D01*
X41315Y38229D01*
X41315Y38229D01*
X41316Y35016D01*
X29157Y22858D01*
X2362Y22858D01*
Y42656D01*
X2814Y42870D01*
X3345Y42434D01*
X4918Y41594D01*
X6625Y41076D01*
X8400Y40901D01*
X10175Y41076D01*
X11882Y41594D01*
X13455Y42434D01*
X14834Y43566D01*
X15966Y44945D01*
X16806Y46518D01*
X17324Y48225D01*
X17499Y50000D01*
X17324Y51775D01*
X16806Y53482D01*
X15966Y55055D01*
X14834Y56434D01*
X13455Y57565D01*
X13171Y57718D01*
X13090Y58328D01*
X13481Y58913D01*
X13664Y59835D01*
Y62197D01*
X13481Y63118D01*
X12959Y63900D01*
X12178Y64422D01*
X11256Y64605D01*
X5744D01*
X4822Y64422D01*
X4041Y63900D01*
X3519Y63118D01*
X3336Y62197D01*
Y59835D01*
X3519Y58913D01*
X3857Y58406D01*
X3740Y57777D01*
X3345Y57565D01*
X2814Y57130D01*
X2362Y57344D01*
X2362Y199213D01*
X13032Y199213D01*
D02*
G37*
G36*
X27559Y66929D02*
X35039Y59449D01*
Y43267D01*
X34686Y42913D01*
X28543Y42914D01*
Y57018D01*
X28543Y57677D01*
X21654Y64567D01*
X21654Y83858D01*
X27559Y83858D01*
X27559Y66929D01*
D02*
G37*
G36*
X91437Y36122D02*
Y27474D01*
X101279D01*
Y27559D01*
X107480D01*
X112205Y22835D01*
X115059Y19980D01*
X138583Y19980D01*
X144465Y14097D01*
X144465Y5141D01*
X135827D01*
Y15354D01*
X106496Y15354D01*
X105929Y15922D01*
Y18996D01*
X105837Y19457D01*
X105576Y19848D01*
X105185Y20109D01*
X104724Y20200D01*
X84259D01*
X77363Y27095D01*
X77597Y27569D01*
X78642Y27432D01*
X79926Y27601D01*
X81124Y28097D01*
X82152Y28885D01*
X82940Y29913D01*
X83436Y31111D01*
X83605Y32395D01*
X83436Y33680D01*
X82940Y34877D01*
X82152Y35905D01*
X81124Y36694D01*
X79926Y37190D01*
X78642Y37359D01*
X77357Y37190D01*
X76160Y36694D01*
X75132Y35905D01*
X74343Y34877D01*
X73847Y33680D01*
X73678Y32395D01*
X73847Y31111D01*
X74286Y30051D01*
X74110Y29673D01*
X73991Y29551D01*
X62598Y29551D01*
X62598Y39764D01*
X87795Y39764D01*
X91437Y36122D01*
D02*
G37*
G36*
X48819Y28346D02*
X74410Y28346D01*
X83760Y18996D01*
X104724D01*
Y3937D01*
X145669D01*
X145669Y14173D01*
X153150Y14173D01*
X153150Y1181D01*
X68577Y1181D01*
X68333Y1617D01*
X69075Y2828D01*
X70024Y5119D01*
X70602Y7529D01*
X70797Y10000D01*
X70602Y12471D01*
X70024Y14882D01*
X69075Y17172D01*
X67780Y19285D01*
X66170Y21170D01*
X64285Y22780D01*
X62172Y24075D01*
X59882Y25024D01*
X57471Y25602D01*
X55000Y25797D01*
X52529Y25602D01*
X50118Y25024D01*
X47828Y24075D01*
X45715Y22780D01*
X43830Y21170D01*
X42220Y19285D01*
X40925Y17172D01*
X39976Y14882D01*
X39398Y12471D01*
X39203Y10000D01*
X39398Y7529D01*
X39976Y5119D01*
X40925Y2828D01*
X41667Y1617D01*
X41423Y1181D01*
X1181D01*
Y21654D01*
X30315Y21654D01*
X42520Y33858D01*
X42520Y38229D01*
X42873Y38583D01*
X48819D01*
X48819Y28346D01*
D02*
G37*
%LPC*%
G36*
X254331Y205118D02*
X245669D01*
Y194882D01*
X254331D01*
Y205118D01*
D02*
G37*
G36*
X168331D02*
X159669D01*
Y194882D01*
X168331D01*
Y205118D01*
D02*
G37*
G36*
X240000Y205155D02*
X238870Y205007D01*
X237816Y204570D01*
X236911Y203876D01*
X236217Y202971D01*
X235781Y201918D01*
X235632Y200787D01*
Y199213D01*
X235781Y198082D01*
X236217Y197029D01*
X236911Y196124D01*
X237816Y195430D01*
X238870Y194993D01*
X240000Y194844D01*
X241130Y194993D01*
X242184Y195430D01*
X243089Y196124D01*
X243783Y197029D01*
X244219Y198082D01*
X244368Y199213D01*
Y200787D01*
X244219Y201918D01*
X243783Y202971D01*
X243089Y203876D01*
X242184Y204570D01*
X241130Y205007D01*
X240000Y205155D01*
D02*
G37*
G36*
X230000D02*
X228870Y205007D01*
X227816Y204570D01*
X226911Y203876D01*
X226217Y202971D01*
X225781Y201918D01*
X225632Y200787D01*
Y199213D01*
X225781Y198082D01*
X226217Y197029D01*
X226911Y196124D01*
X227816Y195430D01*
X228870Y194993D01*
X230000Y194844D01*
X231131Y194993D01*
X232184Y195430D01*
X233089Y196124D01*
X233783Y197029D01*
X234219Y198082D01*
X234368Y199213D01*
Y200787D01*
X234219Y201918D01*
X233783Y202971D01*
X233089Y203876D01*
X232184Y204570D01*
X231131Y205007D01*
X230000Y205155D01*
D02*
G37*
G36*
X220000D02*
X218869Y205007D01*
X217816Y204570D01*
X216911Y203876D01*
X216217Y202971D01*
X215781Y201918D01*
X215632Y200787D01*
Y199213D01*
X215781Y198082D01*
X216217Y197029D01*
X216911Y196124D01*
X217816Y195430D01*
X218869Y194993D01*
X220000Y194844D01*
X221130Y194993D01*
X222184Y195430D01*
X223089Y196124D01*
X223783Y197029D01*
X224219Y198082D01*
X224368Y199213D01*
Y200787D01*
X224219Y201918D01*
X223783Y202971D01*
X223089Y203876D01*
X222184Y204570D01*
X221130Y205007D01*
X220000Y205155D01*
D02*
G37*
G36*
X210000D02*
X208870Y205007D01*
X207816Y204570D01*
X206911Y203876D01*
X206217Y202971D01*
X205781Y201918D01*
X205632Y200787D01*
Y199213D01*
X205781Y198082D01*
X206217Y197029D01*
X206911Y196124D01*
X207816Y195430D01*
X208870Y194993D01*
X210000Y194844D01*
X211130Y194993D01*
X212184Y195430D01*
X213089Y196124D01*
X213783Y197029D01*
X214219Y198082D01*
X214368Y199213D01*
Y200787D01*
X214219Y201918D01*
X213783Y202971D01*
X213089Y203876D01*
X212184Y204570D01*
X211130Y205007D01*
X210000Y205155D01*
D02*
G37*
G36*
X200000D02*
X198870Y205007D01*
X197816Y204570D01*
X196911Y203876D01*
X196217Y202971D01*
X195781Y201918D01*
X195632Y200787D01*
Y199213D01*
X195781Y198082D01*
X196217Y197029D01*
X196911Y196124D01*
X197816Y195430D01*
X198870Y194993D01*
X200000Y194844D01*
X201131Y194993D01*
X202184Y195430D01*
X203089Y196124D01*
X203783Y197029D01*
X204219Y198082D01*
X204368Y199213D01*
Y200787D01*
X204219Y201918D01*
X203783Y202971D01*
X203089Y203876D01*
X202184Y204570D01*
X201131Y205007D01*
X200000Y205155D01*
D02*
G37*
G36*
X190000D02*
X188870Y205007D01*
X187816Y204570D01*
X186911Y203876D01*
X186217Y202971D01*
X185781Y201918D01*
X185632Y200787D01*
Y199213D01*
X185781Y198082D01*
X186217Y197029D01*
X186911Y196124D01*
X187816Y195430D01*
X188870Y194993D01*
X190000Y194844D01*
X191130Y194993D01*
X192184Y195430D01*
X193089Y196124D01*
X193783Y197029D01*
X194219Y198082D01*
X194368Y199213D01*
Y200787D01*
X194219Y201918D01*
X193783Y202971D01*
X193089Y203876D01*
X192184Y204570D01*
X191130Y205007D01*
X190000Y205155D01*
D02*
G37*
G36*
X180000D02*
X178869Y205007D01*
X177816Y204570D01*
X176911Y203876D01*
X176217Y202971D01*
X175781Y201918D01*
X175632Y200787D01*
Y199213D01*
X175781Y198082D01*
X176217Y197029D01*
X176911Y196124D01*
X177816Y195430D01*
X178869Y194993D01*
X180000Y194844D01*
X181131Y194993D01*
X182184Y195430D01*
X183089Y196124D01*
X183783Y197029D01*
X184219Y198082D01*
X184368Y199213D01*
Y200787D01*
X184219Y201918D01*
X183783Y202971D01*
X183089Y203876D01*
X182184Y204570D01*
X181131Y205007D01*
X180000Y205155D01*
D02*
G37*
G36*
X154000D02*
X152869Y205007D01*
X151816Y204570D01*
X150911Y203876D01*
X150217Y202971D01*
X149781Y201918D01*
X149632Y200787D01*
Y199213D01*
X149781Y198082D01*
X150217Y197029D01*
X150911Y196124D01*
X151816Y195430D01*
X152869Y194993D01*
X154000Y194844D01*
X155131Y194993D01*
X156184Y195430D01*
X157089Y196124D01*
X157783Y197029D01*
X158219Y198082D01*
X158368Y199213D01*
Y200787D01*
X158219Y201918D01*
X157783Y202971D01*
X157089Y203876D01*
X156184Y204570D01*
X155131Y205007D01*
X154000Y205155D01*
D02*
G37*
G36*
X144000D02*
X142869Y205007D01*
X141816Y204570D01*
X140911Y203876D01*
X140217Y202971D01*
X139781Y201918D01*
X139632Y200787D01*
Y199213D01*
X139781Y198082D01*
X140217Y197029D01*
X140911Y196124D01*
X141816Y195430D01*
X142869Y194993D01*
X144000Y194844D01*
X145131Y194993D01*
X146184Y195430D01*
X147089Y196124D01*
X147783Y197029D01*
X148219Y198082D01*
X148368Y199213D01*
Y200787D01*
X148219Y201918D01*
X147783Y202971D01*
X147089Y203876D01*
X146184Y204570D01*
X145131Y205007D01*
X144000Y205155D01*
D02*
G37*
G36*
X134000D02*
X132870Y205007D01*
X131816Y204570D01*
X130911Y203876D01*
X130217Y202971D01*
X129781Y201918D01*
X129632Y200787D01*
Y199213D01*
X129781Y198082D01*
X130217Y197029D01*
X130911Y196124D01*
X131816Y195430D01*
X132870Y194993D01*
X134000Y194844D01*
X135131Y194993D01*
X136184Y195430D01*
X137089Y196124D01*
X137783Y197029D01*
X138219Y198082D01*
X138368Y199213D01*
Y200787D01*
X138219Y201918D01*
X137783Y202971D01*
X137089Y203876D01*
X136184Y204570D01*
X135131Y205007D01*
X134000Y205155D01*
D02*
G37*
G36*
X124000D02*
X122870Y205007D01*
X121816Y204570D01*
X120911Y203876D01*
X120217Y202971D01*
X119781Y201918D01*
X119632Y200787D01*
Y199213D01*
X119781Y198082D01*
X120217Y197029D01*
X120911Y196124D01*
X121816Y195430D01*
X122870Y194993D01*
X124000Y194844D01*
X125130Y194993D01*
X126184Y195430D01*
X127089Y196124D01*
X127783Y197029D01*
X128219Y198082D01*
X128368Y199213D01*
Y200787D01*
X128219Y201918D01*
X127783Y202971D01*
X127089Y203876D01*
X126184Y204570D01*
X125130Y205007D01*
X124000Y205155D01*
D02*
G37*
G36*
X114000D02*
X112870Y205007D01*
X111816Y204570D01*
X110911Y203876D01*
X110217Y202971D01*
X109781Y201918D01*
X109632Y200787D01*
Y199213D01*
X109781Y198082D01*
X110217Y197029D01*
X110911Y196124D01*
X111816Y195430D01*
X112870Y194993D01*
X114000Y194844D01*
X115130Y194993D01*
X116184Y195430D01*
X117089Y196124D01*
X117783Y197029D01*
X118219Y198082D01*
X118368Y199213D01*
Y200787D01*
X118219Y201918D01*
X117783Y202971D01*
X117089Y203876D01*
X116184Y204570D01*
X115130Y205007D01*
X114000Y205155D01*
D02*
G37*
G36*
X20000Y200567D02*
X18818Y200411D01*
X17717Y199955D01*
X16771Y199229D01*
X16045Y198283D01*
X15589Y197182D01*
X15433Y196000D01*
X15589Y194818D01*
X16045Y193717D01*
X16771Y192771D01*
X17717Y192045D01*
X18818Y191589D01*
X20000Y191433D01*
X21182Y191589D01*
X22283Y192045D01*
X23229Y192771D01*
X23955Y193717D01*
X24411Y194818D01*
X24567Y196000D01*
X24411Y197182D01*
X23955Y198283D01*
X23229Y199229D01*
X22283Y199955D01*
X21182Y200411D01*
X20000Y200567D01*
D02*
G37*
G36*
Y190567D02*
X18818Y190411D01*
X17717Y189955D01*
X16771Y189229D01*
X16045Y188283D01*
X15589Y187182D01*
X15433Y186000D01*
X15589Y184818D01*
X16045Y183717D01*
X16771Y182771D01*
X17717Y182045D01*
X18818Y181589D01*
X20000Y181433D01*
X21182Y181589D01*
X22283Y182045D01*
X23229Y182771D01*
X23955Y183717D01*
X24411Y184818D01*
X24567Y186000D01*
X24411Y187182D01*
X23955Y188283D01*
X23229Y189229D01*
X22283Y189955D01*
X21182Y190411D01*
X20000Y190567D01*
D02*
G37*
G36*
X41732Y144830D02*
X40811Y144646D01*
X40237Y144263D01*
X39991Y144132D01*
X39495Y144225D01*
X39012Y144548D01*
X38091Y144731D01*
X37169Y144548D01*
X36388Y144026D01*
X35865Y143245D01*
X35682Y142323D01*
X35865Y141401D01*
X36137Y140995D01*
Y128012D01*
X36092Y127983D01*
X35570Y127201D01*
X35387Y126279D01*
X35570Y125358D01*
X36092Y124576D01*
X36874Y124054D01*
X37795Y123871D01*
X38717Y124054D01*
X39328Y124462D01*
X39814Y124278D01*
X39862Y123913D01*
X37502Y121553D01*
X37111Y120967D01*
X36973Y120276D01*
Y116214D01*
X36554Y115587D01*
X36371Y114665D01*
X36554Y113744D01*
X37077Y112962D01*
X37858Y112440D01*
X38780Y112257D01*
X39701Y112440D01*
X40483Y112962D01*
X41005Y113744D01*
X41188Y114665D01*
X41005Y115587D01*
X40586Y116214D01*
Y119527D01*
X43010Y121951D01*
X43401Y122537D01*
X43539Y123228D01*
Y140873D01*
X43957Y141500D01*
X44141Y142421D01*
X43957Y143343D01*
X43435Y144124D01*
X42654Y144646D01*
X41732Y144830D01*
D02*
G37*
G36*
X121800Y94309D02*
X120878Y94125D01*
X120097Y93603D01*
X119575Y92822D01*
X119392Y91900D01*
X119575Y90978D01*
X119994Y90352D01*
Y83558D01*
X119494Y83431D01*
X118660Y84070D01*
X117607Y84507D01*
X116476Y84655D01*
X115346Y84507D01*
X114292Y84070D01*
X113905Y83773D01*
X113456Y83994D01*
Y84577D01*
X113925Y85278D01*
X114109Y86200D01*
X113925Y87122D01*
X113403Y87903D01*
X112622Y88425D01*
X111700Y88608D01*
X110778Y88425D01*
X109997Y87903D01*
X109475Y87122D01*
X109292Y86200D01*
X109475Y85278D01*
X109844Y84726D01*
Y83793D01*
X109344Y83546D01*
X108660Y84070D01*
X107607Y84507D01*
X106476Y84655D01*
X105346Y84507D01*
X104292Y84070D01*
X103388Y83376D01*
X102693Y82471D01*
X102257Y81418D01*
X102256Y81406D01*
X96800D01*
X96109Y81269D01*
X95523Y80877D01*
X94523Y79877D01*
X94131Y79291D01*
X93994Y78600D01*
Y73842D01*
X93936Y73756D01*
X93753Y72835D01*
X93936Y71913D01*
X94458Y71132D01*
X95240Y70609D01*
X96161Y70426D01*
X97083Y70609D01*
X97865Y71132D01*
X98387Y71913D01*
X98570Y72835D01*
X98387Y73756D01*
X97865Y74538D01*
X97606Y74710D01*
Y77794D01*
X102229D01*
X102257Y77582D01*
X102693Y76529D01*
X103388Y75624D01*
X104292Y74930D01*
X105346Y74493D01*
X106476Y74344D01*
X107607Y74493D01*
X108660Y74930D01*
X109344Y75454D01*
X109844Y75207D01*
Y73223D01*
X109375Y72522D01*
X109192Y71600D01*
X109375Y70678D01*
X109897Y69897D01*
X110678Y69375D01*
X111600Y69191D01*
X112522Y69375D01*
X113303Y69897D01*
X113825Y70678D01*
X114008Y71600D01*
X113825Y72522D01*
X113456Y73074D01*
Y75006D01*
X113905Y75227D01*
X114292Y74930D01*
X115346Y74493D01*
X116476Y74344D01*
X117607Y74493D01*
X118660Y74930D01*
X119494Y75569D01*
X119994Y75442D01*
Y72748D01*
X119575Y72122D01*
X119392Y71200D01*
X119575Y70278D01*
X120097Y69497D01*
X120878Y68975D01*
X121800Y68792D01*
X122722Y68975D01*
X123503Y69497D01*
X124025Y70278D01*
X124208Y71200D01*
X124025Y72122D01*
X123606Y72748D01*
Y74891D01*
X124055Y75112D01*
X124292Y74930D01*
X125346Y74493D01*
X126476Y74344D01*
X127607Y74493D01*
X128660Y74930D01*
X129565Y75624D01*
X130259Y76529D01*
X130696Y77582D01*
X130844Y78713D01*
Y80287D01*
X130696Y81418D01*
X130259Y82471D01*
X129565Y83376D01*
X128660Y84070D01*
X127607Y84507D01*
X126476Y84655D01*
X125346Y84507D01*
X124292Y84070D01*
X124055Y83888D01*
X123606Y84109D01*
Y90352D01*
X124025Y90978D01*
X124208Y91900D01*
X124025Y92822D01*
X123503Y93603D01*
X122722Y94125D01*
X121800Y94309D01*
D02*
G37*
G36*
X62500Y84987D02*
X61578Y84804D01*
X60952Y84385D01*
X59668D01*
X58977Y84248D01*
X58391Y83856D01*
X54141Y79606D01*
X45548D01*
X44922Y80025D01*
X44000Y80208D01*
X43078Y80025D01*
X42297Y79503D01*
X41775Y78722D01*
X41592Y77800D01*
X41775Y76878D01*
X42211Y76225D01*
X41775Y75572D01*
X41592Y74650D01*
X41775Y73729D01*
X42297Y72947D01*
X43078Y72425D01*
X44000Y72242D01*
X44922Y72425D01*
X45703Y72947D01*
X46225Y73729D01*
X46258Y73894D01*
X55900D01*
X56592Y74031D01*
X57178Y74423D01*
X59780Y77025D01*
X60102Y76810D01*
X61024Y76627D01*
X61945Y76810D01*
X62727Y77332D01*
X63249Y78114D01*
X63432Y79035D01*
X63249Y79957D01*
X63412Y80352D01*
X63422Y80354D01*
X64203Y80876D01*
X64725Y81657D01*
X64908Y82579D01*
X64725Y83500D01*
X64203Y84282D01*
X63422Y84804D01*
X62500Y84987D01*
D02*
G37*
G36*
X206476Y84655D02*
X205346Y84507D01*
X204292Y84070D01*
X203388Y83376D01*
X202694Y82471D01*
X202257Y81418D01*
X202108Y80287D01*
Y78713D01*
X202257Y77582D01*
X202694Y76529D01*
X203388Y75624D01*
X204292Y74930D01*
X205346Y74493D01*
X206476Y74344D01*
X207607Y74493D01*
X208660Y74930D01*
X209565Y75624D01*
X210259Y76529D01*
X210696Y77582D01*
X210844Y78713D01*
Y80287D01*
X210696Y81418D01*
X210259Y82471D01*
X209565Y83376D01*
X208660Y84070D01*
X207607Y84507D01*
X206476Y84655D01*
D02*
G37*
G36*
X196476D02*
X195346Y84507D01*
X194292Y84070D01*
X193388Y83376D01*
X192693Y82471D01*
X192257Y81418D01*
X192108Y80287D01*
Y78713D01*
X192257Y77582D01*
X192693Y76529D01*
X193388Y75624D01*
X194292Y74930D01*
X195346Y74493D01*
X196476Y74344D01*
X197607Y74493D01*
X198660Y74930D01*
X199565Y75624D01*
X200259Y76529D01*
X200696Y77582D01*
X200845Y78713D01*
Y80287D01*
X200696Y81418D01*
X200259Y82471D01*
X199565Y83376D01*
X198660Y84070D01*
X197607Y84507D01*
X196476Y84655D01*
D02*
G37*
G36*
X186476D02*
X185346Y84507D01*
X184292Y84070D01*
X183388Y83376D01*
X182694Y82471D01*
X182257Y81418D01*
X182108Y80287D01*
Y78713D01*
X182257Y77582D01*
X182694Y76529D01*
X183388Y75624D01*
X184292Y74930D01*
X185346Y74493D01*
X186476Y74344D01*
X187607Y74493D01*
X188660Y74930D01*
X189565Y75624D01*
X190259Y76529D01*
X190696Y77582D01*
X190845Y78713D01*
Y80287D01*
X190696Y81418D01*
X190259Y82471D01*
X189565Y83376D01*
X188660Y84070D01*
X187607Y84507D01*
X186476Y84655D01*
D02*
G37*
G36*
X176476D02*
X175346Y84507D01*
X174292Y84070D01*
X173388Y83376D01*
X172694Y82471D01*
X172257Y81418D01*
X172108Y80287D01*
Y78713D01*
X172257Y77582D01*
X172694Y76529D01*
X173388Y75624D01*
X174292Y74930D01*
X175346Y74493D01*
X176476Y74344D01*
X177607Y74493D01*
X178660Y74930D01*
X179565Y75624D01*
X180259Y76529D01*
X180696Y77582D01*
X180844Y78713D01*
Y80287D01*
X180696Y81418D01*
X180259Y82471D01*
X179565Y83376D01*
X178660Y84070D01*
X177607Y84507D01*
X176476Y84655D01*
D02*
G37*
G36*
X156476D02*
X155346Y84507D01*
X154292Y84070D01*
X153388Y83376D01*
X152693Y82471D01*
X152257Y81418D01*
X152108Y80287D01*
Y78713D01*
X152257Y77582D01*
X152693Y76529D01*
X153388Y75624D01*
X154292Y74930D01*
X155346Y74493D01*
X156476Y74344D01*
X157607Y74493D01*
X158660Y74930D01*
X159565Y75624D01*
X160259Y76529D01*
X160696Y77582D01*
X160845Y78713D01*
Y80287D01*
X160696Y81418D01*
X160259Y82471D01*
X159565Y83376D01*
X158660Y84070D01*
X157607Y84507D01*
X156476Y84655D01*
D02*
G37*
G36*
X146476D02*
X145346Y84507D01*
X144292Y84070D01*
X143388Y83376D01*
X142693Y82471D01*
X142257Y81418D01*
X142108Y80287D01*
Y78713D01*
X142257Y77582D01*
X142693Y76529D01*
X143388Y75624D01*
X144292Y74930D01*
X145346Y74493D01*
X146476Y74344D01*
X147607Y74493D01*
X148660Y74930D01*
X149565Y75624D01*
X150259Y76529D01*
X150696Y77582D01*
X150845Y78713D01*
Y80287D01*
X150696Y81418D01*
X150259Y82471D01*
X149565Y83376D01*
X148660Y84070D01*
X147607Y84507D01*
X146476Y84655D01*
D02*
G37*
G36*
X136476D02*
X135346Y84507D01*
X134292Y84070D01*
X133388Y83376D01*
X132694Y82471D01*
X132257Y81418D01*
X132108Y80287D01*
Y78713D01*
X132257Y77582D01*
X132694Y76529D01*
X133388Y75624D01*
X134292Y74930D01*
X135346Y74493D01*
X136476Y74344D01*
X137607Y74493D01*
X138660Y74930D01*
X139565Y75624D01*
X140259Y76529D01*
X140696Y77582D01*
X140845Y78713D01*
Y80287D01*
X140696Y81418D01*
X140259Y82471D01*
X139565Y83376D01*
X138660Y84070D01*
X137607Y84507D01*
X136476Y84655D01*
D02*
G37*
G36*
X80700Y85109D02*
X79778Y84925D01*
X78997Y84403D01*
X72888Y78294D01*
X67618D01*
X66696Y78111D01*
X65915Y77589D01*
X65393Y76807D01*
X65210Y75886D01*
X65393Y74964D01*
X65915Y74183D01*
X66696Y73661D01*
X67618Y73477D01*
X73886D01*
X74808Y73661D01*
X75589Y74183D01*
X82403Y80997D01*
X82925Y81778D01*
X83109Y82700D01*
X82925Y83622D01*
X82403Y84403D01*
X81622Y84925D01*
X80700Y85109D01*
D02*
G37*
G36*
X216476Y54655D02*
X215346Y54507D01*
X214292Y54070D01*
X213388Y53376D01*
X212694Y52471D01*
X212257Y51418D01*
X212108Y50287D01*
Y48713D01*
X212257Y47582D01*
X212694Y46529D01*
X213388Y45624D01*
X214292Y44930D01*
X215346Y44493D01*
X216476Y44344D01*
X217607Y44493D01*
X218660Y44930D01*
X219565Y45624D01*
X219972Y46155D01*
X220472Y45985D01*
Y47043D01*
X220696Y47582D01*
X220845Y48713D01*
Y50287D01*
X220696Y51418D01*
X220472Y51957D01*
Y53015D01*
X219972Y52845D01*
X219565Y53376D01*
X218660Y54070D01*
X217607Y54507D01*
X216476Y54655D01*
D02*
G37*
G36*
X206476D02*
X205346Y54507D01*
X204292Y54070D01*
X203388Y53376D01*
X202694Y52471D01*
X202257Y51418D01*
X202108Y50287D01*
Y48713D01*
X202257Y47582D01*
X202694Y46529D01*
X203388Y45624D01*
X204292Y44930D01*
X205346Y44493D01*
X206476Y44344D01*
X207607Y44493D01*
X208660Y44930D01*
X209565Y45624D01*
X210259Y46529D01*
X210696Y47582D01*
X210844Y48713D01*
Y50287D01*
X210696Y51418D01*
X210259Y52471D01*
X209565Y53376D01*
X208660Y54070D01*
X207607Y54507D01*
X206476Y54655D01*
D02*
G37*
G36*
X192126Y63409D02*
X179921D01*
X179460Y63317D01*
X179070Y63056D01*
X178809Y62666D01*
X178717Y62205D01*
Y52912D01*
X178748Y52757D01*
X178758Y52600D01*
X178793Y52529D01*
X178809Y52451D01*
X178896Y52320D01*
X178966Y52179D01*
X179207Y51864D01*
X179522Y51104D01*
X179640Y50208D01*
Y48792D01*
X179522Y47896D01*
X179207Y47136D01*
X178966Y46821D01*
X178896Y46680D01*
X178809Y46549D01*
X178793Y46471D01*
X178758Y46400D01*
X178748Y46243D01*
X178717Y46088D01*
Y38976D01*
X178809Y38515D01*
X179070Y38125D01*
X179460Y37864D01*
X179921Y37772D01*
X192126D01*
X192587Y37864D01*
X192977Y38125D01*
X193239Y38515D01*
X193330Y38976D01*
Y45038D01*
X193830Y45284D01*
X194292Y44930D01*
X195346Y44493D01*
X196476Y44344D01*
X197607Y44493D01*
X198660Y44930D01*
X199565Y45624D01*
X200259Y46529D01*
X200696Y47582D01*
X200845Y48713D01*
Y50287D01*
X200696Y51418D01*
X200259Y52471D01*
X199565Y53376D01*
X198660Y54070D01*
X197607Y54507D01*
X196476Y54655D01*
X195346Y54507D01*
X194292Y54070D01*
X193830Y53716D01*
X193330Y53962D01*
Y62205D01*
X193239Y62666D01*
X192977Y63056D01*
X192587Y63317D01*
X192126Y63409D01*
D02*
G37*
G36*
X166476Y54655D02*
X165346Y54507D01*
X164292Y54070D01*
X163388Y53376D01*
X162694Y52471D01*
X162257Y51418D01*
X162108Y50287D01*
Y48713D01*
X162257Y47582D01*
X162694Y46529D01*
X163388Y45624D01*
X164292Y44930D01*
X165346Y44493D01*
X166476Y44344D01*
X167607Y44493D01*
X168660Y44930D01*
X169565Y45624D01*
X170259Y46529D01*
X170696Y47582D01*
X170844Y48713D01*
Y50287D01*
X170696Y51418D01*
X170259Y52471D01*
X169565Y53376D01*
X168660Y54070D01*
X167607Y54507D01*
X166476Y54655D01*
D02*
G37*
G36*
X156476D02*
X155346Y54507D01*
X154292Y54070D01*
X153388Y53376D01*
X152693Y52471D01*
X152257Y51418D01*
X152108Y50287D01*
Y48713D01*
X152257Y47582D01*
X152693Y46529D01*
X153388Y45624D01*
X154292Y44930D01*
X155346Y44493D01*
X156476Y44344D01*
X157607Y44493D01*
X158660Y44930D01*
X159565Y45624D01*
X160259Y46529D01*
X160696Y47582D01*
X160845Y48713D01*
Y50287D01*
X160696Y51418D01*
X160259Y52471D01*
X159565Y53376D01*
X158660Y54070D01*
X157607Y54507D01*
X156476Y54655D01*
D02*
G37*
G36*
X146476D02*
X145346Y54507D01*
X144292Y54070D01*
X143388Y53376D01*
X142693Y52471D01*
X142257Y51418D01*
X142108Y50287D01*
Y48713D01*
X142257Y47582D01*
X142693Y46529D01*
X143388Y45624D01*
X144292Y44930D01*
X145346Y44493D01*
X146476Y44344D01*
X147607Y44493D01*
X148660Y44930D01*
X149565Y45624D01*
X150259Y46529D01*
X150696Y47582D01*
X150845Y48713D01*
Y50287D01*
X150696Y51418D01*
X150259Y52471D01*
X149565Y53376D01*
X148660Y54070D01*
X147607Y54507D01*
X146476Y54655D01*
D02*
G37*
G36*
X136476D02*
X135346Y54507D01*
X134292Y54070D01*
X133388Y53376D01*
X132694Y52471D01*
X132257Y51418D01*
X132108Y50287D01*
Y48713D01*
X132257Y47582D01*
X132694Y46529D01*
X133388Y45624D01*
X134292Y44930D01*
X135346Y44493D01*
X136476Y44344D01*
X137607Y44493D01*
X138660Y44930D01*
X139565Y45624D01*
X140259Y46529D01*
X140696Y47582D01*
X140845Y48713D01*
Y50287D01*
X140696Y51418D01*
X140259Y52471D01*
X139565Y53376D01*
X138660Y54070D01*
X137607Y54507D01*
X136476Y54655D01*
D02*
G37*
G36*
X126476D02*
X125346Y54507D01*
X124292Y54070D01*
X123388Y53376D01*
X122694Y52471D01*
X122257Y51418D01*
X122108Y50287D01*
Y48713D01*
X122257Y47582D01*
X122694Y46529D01*
X123388Y45624D01*
X124292Y44930D01*
X125346Y44493D01*
X126476Y44344D01*
X127607Y44493D01*
X128660Y44930D01*
X129565Y45624D01*
X130259Y46529D01*
X130696Y47582D01*
X130844Y48713D01*
Y50287D01*
X130696Y51418D01*
X130259Y52471D01*
X129565Y53376D01*
X128660Y54070D01*
X127607Y54507D01*
X126476Y54655D01*
D02*
G37*
G36*
X116476D02*
X115346Y54507D01*
X114292Y54070D01*
X113388Y53376D01*
X112694Y52471D01*
X112257Y51418D01*
X112108Y50287D01*
Y48713D01*
X112257Y47582D01*
X112694Y46529D01*
X113388Y45624D01*
X114292Y44930D01*
X115346Y44493D01*
X116476Y44344D01*
X117607Y44493D01*
X118660Y44930D01*
X119565Y45624D01*
X120259Y46529D01*
X120696Y47582D01*
X120844Y48713D01*
Y50287D01*
X120696Y51418D01*
X120259Y52471D01*
X119565Y53376D01*
X118660Y54070D01*
X117607Y54507D01*
X116476Y54655D01*
D02*
G37*
G36*
X106476D02*
X105346Y54507D01*
X104292Y54070D01*
X103388Y53376D01*
X102693Y52471D01*
X102257Y51418D01*
X102108Y50287D01*
Y48713D01*
X102257Y47582D01*
X102693Y46529D01*
X103388Y45624D01*
X104292Y44930D01*
X105346Y44493D01*
X106476Y44344D01*
X107607Y44493D01*
X108660Y44930D01*
X109565Y45624D01*
X110259Y46529D01*
X110696Y47582D01*
X110845Y48713D01*
Y50287D01*
X110696Y51418D01*
X110259Y52471D01*
X109565Y53376D01*
X108660Y54070D01*
X107607Y54507D01*
X106476Y54655D01*
D02*
G37*
%LPD*%
G36*
X192126Y50422D02*
X192108Y50287D01*
Y48713D01*
X192126Y48578D01*
Y38976D01*
X179921D01*
Y46088D01*
X180259Y46529D01*
X180696Y47582D01*
X180844Y48713D01*
Y50287D01*
X180696Y51418D01*
X180259Y52471D01*
X179921Y52912D01*
Y62205D01*
X192126D01*
Y50422D01*
D02*
G37*
%LPC*%
G36*
X186476Y54655D02*
X185346Y54507D01*
X184292Y54070D01*
X183388Y53376D01*
X182694Y52471D01*
X182257Y51418D01*
X182108Y50287D01*
Y48713D01*
X182257Y47582D01*
X182694Y46529D01*
X183388Y45624D01*
X184292Y44930D01*
X185346Y44493D01*
X186476Y44344D01*
X187607Y44493D01*
X188660Y44930D01*
X189565Y45624D01*
X190259Y46529D01*
X190696Y47582D01*
X190845Y48713D01*
Y50287D01*
X190696Y51418D01*
X190259Y52471D01*
X189565Y53376D01*
X188660Y54070D01*
X187607Y54507D01*
X186476Y54655D01*
D02*
G37*
G36*
X58268Y169959D02*
X56693D01*
X55562Y169810D01*
X54509Y169373D01*
X53604Y168679D01*
X52910Y167775D01*
X52474Y166721D01*
X52325Y165591D01*
X52474Y164460D01*
X52910Y163407D01*
X53604Y162502D01*
X54509Y161808D01*
X55562Y161371D01*
X56693Y161223D01*
X58268D01*
X59398Y161371D01*
X60452Y161808D01*
X61356Y162502D01*
X62051Y163407D01*
X62487Y164460D01*
X62636Y165591D01*
X62487Y166721D01*
X62051Y167775D01*
X61356Y168679D01*
X60452Y169373D01*
X59398Y169810D01*
X58268Y169959D01*
D02*
G37*
G36*
Y159959D02*
X56693D01*
X55562Y159810D01*
X54509Y159373D01*
X53604Y158679D01*
X52910Y157775D01*
X52474Y156721D01*
X52325Y155591D01*
X52474Y154460D01*
X52910Y153407D01*
X53604Y152502D01*
X54509Y151808D01*
X55562Y151371D01*
X56693Y151223D01*
X58268D01*
X59398Y151371D01*
X60452Y151808D01*
X61356Y152502D01*
X62051Y153407D01*
X62487Y154460D01*
X62636Y155591D01*
X62487Y156721D01*
X62051Y157775D01*
X61356Y158679D01*
X60452Y159373D01*
X59398Y159810D01*
X58268Y159959D01*
D02*
G37*
G36*
X14527Y156527D02*
X5472D01*
Y147473D01*
X14527D01*
Y156527D01*
D02*
G37*
G36*
X10000Y139237D02*
X8818Y139081D01*
X7717Y138625D01*
X6771Y137899D01*
X6045Y136953D01*
X5589Y135852D01*
X5433Y134670D01*
X5589Y133488D01*
X6045Y132387D01*
X6771Y131441D01*
X7717Y130715D01*
X8818Y130259D01*
X10000Y130103D01*
X11182Y130259D01*
X12283Y130715D01*
X13229Y131441D01*
X13955Y132387D01*
X14411Y133488D01*
X14567Y134670D01*
X14411Y135852D01*
X13955Y136953D01*
X13229Y137899D01*
X12283Y138625D01*
X11182Y139081D01*
X10000Y139237D01*
D02*
G37*
G36*
X20000Y129237D02*
X18818Y129081D01*
X17717Y128625D01*
X16771Y127899D01*
X16045Y126953D01*
X15589Y125852D01*
X15433Y124670D01*
X15589Y123488D01*
X16045Y122387D01*
X16771Y121441D01*
X17717Y120715D01*
X18818Y120259D01*
X20000Y120103D01*
X21182Y120259D01*
X22283Y120715D01*
X23229Y121441D01*
X23955Y122387D01*
X24411Y123488D01*
X24567Y124670D01*
X24411Y125852D01*
X23955Y126953D01*
X23229Y127899D01*
X22283Y128625D01*
X21182Y129081D01*
X20000Y129237D01*
D02*
G37*
G36*
X10000D02*
X8818Y129081D01*
X7717Y128625D01*
X6771Y127899D01*
X6045Y126953D01*
X5589Y125852D01*
X5433Y124670D01*
X5589Y123488D01*
X6045Y122387D01*
X6771Y121441D01*
X7717Y120715D01*
X8818Y120259D01*
X10000Y120103D01*
X11182Y120259D01*
X12283Y120715D01*
X13229Y121441D01*
X13955Y122387D01*
X14411Y123488D01*
X14567Y124670D01*
X14411Y125852D01*
X13955Y126953D01*
X13229Y127899D01*
X12283Y128625D01*
X11182Y129081D01*
X10000Y129237D01*
D02*
G37*
G36*
X9878Y89978D02*
X7122D01*
X6351Y89877D01*
X5633Y89579D01*
X5016Y89106D01*
X4543Y88489D01*
X4245Y87771D01*
X4144Y87000D01*
X4245Y86229D01*
X4543Y85511D01*
X5016Y84894D01*
X5633Y84421D01*
X6351Y84123D01*
X7122Y84022D01*
X9878D01*
X10649Y84123D01*
X11367Y84421D01*
X11984Y84894D01*
X12457Y85511D01*
X12755Y86229D01*
X12856Y87000D01*
X12755Y87771D01*
X12457Y88489D01*
X11984Y89106D01*
X11367Y89579D01*
X10649Y89877D01*
X9878Y89978D01*
D02*
G37*
G36*
X96358Y11768D02*
X95074Y11599D01*
X93876Y11103D01*
X92848Y10315D01*
X92060Y9287D01*
X91564Y8089D01*
X91395Y6805D01*
X91564Y5520D01*
X92060Y4323D01*
X92848Y3295D01*
X93876Y2506D01*
X95074Y2010D01*
X96358Y1841D01*
X97643Y2010D01*
X98840Y2506D01*
X99868Y3295D01*
X100657Y4323D01*
X101153Y5520D01*
X101322Y6805D01*
X101153Y8089D01*
X100657Y9287D01*
X99868Y10315D01*
X98840Y11103D01*
X97643Y11599D01*
X96358Y11768D01*
D02*
G37*
G36*
X78642D02*
X77357Y11599D01*
X76160Y11103D01*
X75132Y10315D01*
X74343Y9287D01*
X73847Y8089D01*
X73678Y6805D01*
X73847Y5520D01*
X74343Y4323D01*
X75132Y3295D01*
X76160Y2506D01*
X77357Y2010D01*
X78642Y1841D01*
X79926Y2010D01*
X81124Y2506D01*
X82152Y3295D01*
X82940Y4323D01*
X83436Y5520D01*
X83605Y6805D01*
X83436Y8089D01*
X82940Y9287D01*
X82152Y10315D01*
X81124Y11103D01*
X79926Y11599D01*
X78642Y11768D01*
D02*
G37*
%LPD*%
D12*
X244094Y141120D02*
G03*
X244094Y138880I15905J-1120D01*
G01*
X245560Y65774D02*
Y117404D01*
X247528Y61339D02*
Y118220D01*
X236476Y50287D02*
X247528Y61339D01*
X239370Y126378D02*
X247528Y118220D01*
X231949Y52163D02*
X245560Y65774D01*
X233858Y129106D02*
X245560Y117404D01*
X252362Y64957D02*
Y120473D01*
X244094Y128740D02*
X252362Y120473D01*
Y64957D02*
X253300Y64020D01*
X231949Y52126D02*
Y52163D01*
X226476Y49500D02*
X227746Y50769D01*
X230592D02*
X231949Y52126D01*
X227746Y50769D02*
X230592D01*
X253300Y63700D02*
Y64020D01*
X233858Y129106D02*
Y167520D01*
X216732Y184646D02*
X233858Y167520D01*
X239370Y126378D02*
Y167717D01*
X218209Y188878D02*
X239370Y167717D01*
X99219Y188878D02*
X218209D01*
X99311Y184646D02*
X216732D01*
X218602Y170669D02*
X218898Y170374D01*
X122343Y173917D02*
X215158D01*
X117815Y170669D02*
X218602D01*
X98528Y189570D02*
X99219Y188878D01*
X98528Y189570D02*
Y202663D01*
X119882Y176378D02*
X122343Y173917D01*
X58268Y176378D02*
X119882D01*
X57480Y175591D02*
X58268Y176378D01*
X56721Y176350D02*
X57480Y175591D01*
X84000Y199957D02*
Y200000D01*
Y199957D02*
X99311Y184646D01*
X95290Y205900D02*
X98528Y202663D01*
X121800Y71200D02*
Y91900D01*
X111650Y86150D02*
X111700Y86200D01*
X111650Y71650D02*
Y86150D01*
X219562Y162894D02*
X219882D01*
X120571Y165748D02*
X214567D01*
X215453Y166634D01*
X59236Y79035D02*
X61024D01*
X55900Y75700D02*
X59236Y79035D01*
X59668Y82579D02*
X62500D01*
X54890Y77800D02*
X59668Y82579D01*
X44000Y77800D02*
X54890D01*
X45519Y75700D02*
X55900D01*
X215453Y166634D02*
X215650D01*
X37795Y126279D02*
X37943Y126427D01*
Y142175D01*
X38091Y142323D01*
X38780Y114665D02*
Y120276D01*
X41732Y123228D01*
Y142421D01*
X244094Y141120D02*
Y173094D01*
Y128740D02*
Y138880D01*
Y173094D02*
X244800Y173800D01*
X86700Y162800D02*
X86926Y162574D01*
X87761D01*
X87934Y162402D01*
X219070D01*
X219562Y162894D01*
X74000Y200787D02*
X79113Y205900D01*
X95290D01*
X30000Y186000D02*
X38000D01*
X47650Y176350D02*
X56721D01*
X38000Y186000D02*
X47650Y176350D01*
X95800Y73800D02*
Y78600D01*
X96800Y79600D02*
X106376D01*
X95800Y78600D02*
X96800Y79600D01*
X236476Y49500D02*
Y50287D01*
X106376Y79600D02*
X106476Y79500D01*
X45060Y75241D02*
X45519Y75700D01*
X44000Y74650D02*
X44320D01*
X44910Y75241D01*
X45060D01*
X74000Y200000D02*
Y200787D01*
X111600Y71600D02*
X111650Y71650D01*
D18*
X96358Y32395D02*
D03*
D59*
X260138Y103347D02*
D03*
D60*
X96358Y6805D02*
D03*
X78642D02*
D03*
Y32395D02*
D03*
X234547Y103347D02*
D03*
Y121063D02*
D03*
X260138D02*
D03*
D71*
X73886Y75886D02*
X80700Y82700D01*
X67618Y75886D02*
X73886D01*
D72*
X223721Y91634D02*
X230709Y84646D01*
X97047Y180315D02*
X215059D01*
X223721Y171653D01*
X88976Y188386D02*
X97047Y180315D01*
X223721Y164623D02*
Y171653D01*
X223819Y161263D02*
Y164524D01*
X223721Y164623D02*
X223819Y164524D01*
X223721Y91634D02*
Y161164D01*
X223819Y161263D01*
X94000Y198573D02*
Y200000D01*
D74*
X231201Y70177D02*
Y82244D01*
X230709Y82736D02*
Y84646D01*
Y82736D02*
X231201Y82244D01*
X231102Y70079D02*
X231201Y70177D01*
X181600Y41013D02*
X182000Y40613D01*
Y40400D02*
Y40613D01*
X166476Y48713D02*
Y49500D01*
D75*
X180000Y10000D02*
D03*
X170000D02*
D03*
X160000D02*
D03*
X150000D02*
D03*
X140000D02*
D03*
X130000D02*
D03*
X120000D02*
D03*
X55748Y34646D02*
D03*
X65748D02*
D03*
X250000Y10000D02*
D03*
X240000D02*
D03*
X230000D02*
D03*
X220000D02*
D03*
X210000D02*
D03*
X240000Y200000D02*
D03*
X230000D02*
D03*
X220000D02*
D03*
X210000D02*
D03*
X200000D02*
D03*
X190000D02*
D03*
X180000D02*
D03*
X74000D02*
D03*
X84000D02*
D03*
X94000D02*
D03*
X104000D02*
D03*
X114000D02*
D03*
X124000D02*
D03*
X134000D02*
D03*
X144000D02*
D03*
X154000D02*
D03*
X226476Y79500D02*
D03*
X216476D02*
D03*
X206476D02*
D03*
X196476D02*
D03*
X186476D02*
D03*
X176476D02*
D03*
X166476D02*
D03*
X156476D02*
D03*
X146476D02*
D03*
X136476D02*
D03*
X126476D02*
D03*
X116476D02*
D03*
X106476D02*
D03*
X236476Y49500D02*
D03*
X226476D02*
D03*
X216476D02*
D03*
X206476D02*
D03*
X196476D02*
D03*
X186476D02*
D03*
X176476D02*
D03*
X166476D02*
D03*
X156476D02*
D03*
X146476D02*
D03*
X136476D02*
D03*
X126476D02*
D03*
X116476D02*
D03*
X106476D02*
D03*
D76*
X110000Y10000D02*
D03*
X45748Y34646D02*
D03*
X200000Y10000D02*
D03*
X250000Y200000D02*
D03*
X164000D02*
D03*
X236476Y79500D02*
D03*
D77*
X20000Y134670D02*
D03*
X10000Y152000D02*
D03*
Y186000D02*
D03*
D78*
Y124670D02*
D03*
Y134670D02*
D03*
X20000Y124670D02*
D03*
X10000Y162000D02*
D03*
X20000Y152000D02*
D03*
X30000Y162000D02*
D03*
X20000D02*
D03*
X30000Y152000D02*
D03*
Y186000D02*
D03*
X20000Y196000D02*
D03*
X30000D02*
D03*
X20000Y186000D02*
D03*
X10000Y196000D02*
D03*
D79*
X57480Y145591D02*
D03*
Y155591D02*
D03*
Y165591D02*
D03*
X260630Y174646D02*
D03*
Y164646D02*
D03*
D80*
X57480Y175591D02*
D03*
X260630Y184646D02*
D03*
D81*
X8500Y61016D02*
D03*
D82*
X8400Y50000D02*
D03*
X8600Y8500D02*
D03*
D83*
X60000Y200000D02*
D03*
D84*
X260000Y140000D02*
D03*
Y30000D02*
D03*
X55000Y10000D02*
D03*
D85*
X242717Y72638D02*
D03*
X243001Y69587D02*
D03*
X88976Y188386D02*
D03*
X47736Y67520D02*
D03*
X48917Y63976D02*
D03*
X44980Y63779D02*
D03*
X41339Y63976D02*
D03*
X50000Y60335D02*
D03*
X46457D02*
D03*
X43110Y60236D02*
D03*
X167520Y192028D02*
D03*
X171457D02*
D03*
X163583D02*
D03*
X159646D02*
D03*
X163878Y154921D02*
D03*
X159941D02*
D03*
Y158858D02*
D03*
X121800Y91900D02*
D03*
X111700Y86200D02*
D03*
X163878Y158858D02*
D03*
X215158Y173917D02*
D03*
X219882Y162894D02*
D03*
X120571Y165748D02*
D03*
X117815Y170669D02*
D03*
X61024Y79035D02*
D03*
X62500Y82579D02*
D03*
X67618Y75886D02*
D03*
X219783Y155020D02*
D03*
X219193Y152264D02*
D03*
X22736Y80413D02*
D03*
X22835Y82776D02*
D03*
X76378Y89665D02*
D03*
X96161Y72835D02*
D03*
X169390Y19094D02*
D03*
X71752Y112697D02*
D03*
X67524Y82069D02*
D03*
X90100Y79200D02*
D03*
X181600Y60800D02*
D03*
X156225Y25295D02*
D03*
X160531D02*
D03*
X164370Y25394D02*
D03*
X181496Y17224D02*
D03*
X131004Y23327D02*
D03*
X128248Y25689D02*
D03*
X50689Y162795D02*
D03*
X50591Y158858D02*
D03*
X50394Y155512D02*
D03*
X73452Y53924D02*
D03*
X62897Y53527D02*
D03*
X30118Y43996D02*
D03*
X38091Y142323D02*
D03*
X37795Y126279D02*
D03*
X41732Y142421D02*
D03*
X38780Y114665D02*
D03*
X58169Y95079D02*
D03*
X243012Y27559D02*
D03*
Y30807D02*
D03*
X218898Y170374D02*
D03*
X215650Y166634D02*
D03*
X30399Y68110D02*
D03*
X39272Y60138D02*
D03*
X71653Y157874D02*
D03*
X109055Y169685D02*
D03*
X94882Y171653D02*
D03*
X33268Y44094D02*
D03*
X231102Y70079D02*
D03*
X219291Y149213D02*
D03*
X151000Y34000D02*
D03*
X142126Y29921D02*
D03*
X122047Y32283D02*
D03*
X78347Y157677D02*
D03*
X82284Y162205D02*
D03*
X103400Y97000D02*
D03*
X181000Y33800D02*
D03*
X174400Y99400D02*
D03*
X80700Y82700D02*
D03*
X80000Y53300D02*
D03*
X89000D02*
D03*
X162200Y84600D02*
D03*
X29100Y115000D02*
D03*
X85200Y97400D02*
D03*
X59600Y56000D02*
D03*
X30062Y94262D02*
D03*
X83500Y140100D02*
D03*
X151064Y41936D02*
D03*
X14093Y177694D02*
D03*
X42000Y95000D02*
D03*
X142600Y98700D02*
D03*
X59000Y106000D02*
D03*
X101000Y140000D02*
D03*
X21000Y206000D02*
D03*
X259000Y49000D02*
D03*
X173000Y44000D02*
D03*
X30000Y84000D02*
D03*
X3600Y109800D02*
D03*
X14600Y107300D02*
D03*
X115200Y23500D02*
D03*
X182000Y40400D02*
D03*
X44000Y74650D02*
D03*
Y77800D02*
D03*
X86700Y162800D02*
D03*
X253300Y63700D02*
D03*
X244800Y173800D02*
D03*
X121800Y71200D02*
D03*
X111600Y71600D02*
D03*
D86*
X8500Y87000D02*
D03*
M02*
