G04*
G04 #@! TF.GenerationSoftware,Altium Limited,Altium Designer,20.1.11 (218)*
G04*
G04 Layer_Color=32768*
%FSLAX25Y25*%
%MOIN*%
G70*
G04*
G04 #@! TF.SameCoordinates,693C8C31-8EEC-4DF3-A6D9-A21B1C167F78*
G04*
G04*
G04 #@! TF.FilePolarity,Positive*
G04*
G01*
G75*
%ADD11C,0.01000*%
%ADD88C,0.01968*%
D11*
X-91606Y-222646D02*
X272567D01*
Y-222350D02*
Y-182980D01*
X-91606Y-222350D02*
Y-182980D01*
Y-183276D02*
X272567D01*
X-91606D02*
Y-114378D01*
X65874Y-183276D02*
Y-143905D01*
X203669D02*
Y-114378D01*
X-91606Y-143905D02*
X272567D01*
Y-183276D02*
Y-114378D01*
X-91606D02*
X272567D01*
X72500Y-169502D02*
Y-171502D01*
X71500Y-172501D01*
X76498Y-169502D02*
Y-171502D01*
X75499Y-172501D01*
X79497Y-170502D02*
Y-176500D01*
X83496D01*
X88494D02*
X86495D01*
X85496Y-175500D01*
Y-173501D01*
X86495Y-172501D01*
X88494D01*
X89494Y-173501D01*
Y-174501D01*
X85496D01*
X92493Y-172501D02*
X94493D01*
X95492Y-173501D01*
Y-176500D01*
X92493D01*
X91493Y-175500D01*
X92493Y-174501D01*
X95492D01*
X97492Y-172501D02*
Y-176500D01*
Y-174501D01*
X98491Y-173501D01*
X99491Y-172501D01*
X100491D01*
X103490Y-176500D02*
Y-172501D01*
X106489D01*
X107488Y-173501D01*
Y-176500D01*
X116486Y-171502D02*
Y-172501D01*
X115486D01*
X117485D01*
X116486D01*
Y-175500D01*
X117485Y-176500D01*
X121484D02*
X123483D01*
X124483Y-175500D01*
Y-173501D01*
X123483Y-172501D01*
X121484D01*
X120484Y-173501D01*
Y-175500D01*
X121484Y-176500D01*
X136479Y-170502D02*
Y-176500D01*
X133480D01*
X132480Y-175500D01*
Y-173501D01*
X133480Y-172501D01*
X136479D01*
X141477Y-176500D02*
X139478D01*
X138478Y-175500D01*
Y-173501D01*
X139478Y-172501D01*
X141477D01*
X142477Y-173501D01*
Y-174501D01*
X138478D01*
X144476Y-176500D02*
X147475D01*
X148475Y-175500D01*
X147475Y-174501D01*
X145476D01*
X144476Y-173501D01*
X145476Y-172501D01*
X148475D01*
X150475Y-176500D02*
X152474D01*
X151474D01*
Y-172501D01*
X150475D01*
X157472Y-178499D02*
X158472D01*
X159472Y-177500D01*
Y-172501D01*
X156473D01*
X155473Y-173501D01*
Y-175500D01*
X156473Y-176500D01*
X159472D01*
X161471D02*
Y-172501D01*
X164470D01*
X165470Y-173501D01*
Y-176500D01*
X173467Y-172501D02*
Y-175500D01*
X174467Y-176500D01*
X177466D01*
Y-177500D01*
X176466Y-178499D01*
X175466D01*
X177466Y-176500D02*
Y-172501D01*
X180465Y-176500D02*
X182464D01*
X183464Y-175500D01*
Y-173501D01*
X182464Y-172501D01*
X180465D01*
X179465Y-173501D01*
Y-175500D01*
X180465Y-176500D01*
X185463Y-172501D02*
Y-175500D01*
X186463Y-176500D01*
X189462D01*
Y-172501D01*
X191461D02*
Y-176500D01*
Y-174501D01*
X192461Y-173501D01*
X193461Y-172501D01*
X194460D01*
X204457Y-176500D02*
X206456D01*
X207456Y-175500D01*
Y-173501D01*
X206456Y-172501D01*
X204457D01*
X203457Y-173501D01*
Y-175500D01*
X204457Y-176500D01*
X209455Y-172501D02*
Y-175500D01*
X210455Y-176500D01*
X211455Y-175500D01*
X212454Y-176500D01*
X213454Y-175500D01*
Y-172501D01*
X215453Y-176500D02*
Y-172501D01*
X218453D01*
X219452Y-173501D01*
Y-176500D01*
X227450Y-170502D02*
Y-176500D01*
X230449D01*
X231448Y-175500D01*
Y-174501D01*
Y-173501D01*
X230449Y-172501D01*
X227450D01*
X234447Y-176500D02*
X236447D01*
X237446Y-175500D01*
Y-173501D01*
X236447Y-172501D01*
X234447D01*
X233448Y-173501D01*
Y-175500D01*
X234447Y-176500D01*
X240445Y-172501D02*
X242445D01*
X243444Y-173501D01*
Y-176500D01*
X240445D01*
X239446Y-175500D01*
X240445Y-174501D01*
X243444D01*
X245444Y-172501D02*
Y-176500D01*
Y-174501D01*
X246443Y-173501D01*
X247443Y-172501D01*
X248443D01*
X255440Y-170502D02*
Y-176500D01*
X252442D01*
X251442Y-175500D01*
Y-173501D01*
X252442Y-172501D01*
X255440D01*
X257440Y-176500D02*
X260439D01*
X261439Y-175500D01*
X260439Y-174501D01*
X258439D01*
X257440Y-173501D01*
X258439Y-172501D01*
X261439D01*
X264438Y-169502D02*
Y-171502D01*
X263438Y-172501D01*
X268436Y-169502D02*
Y-171502D01*
X267437Y-172501D01*
X79000Y-157502D02*
Y-163500D01*
X81999D01*
X82999Y-162500D01*
Y-161501D01*
X81999Y-160501D01*
X79000D01*
X81999D01*
X82999Y-159501D01*
Y-158502D01*
X81999Y-157502D01*
X79000D01*
X85998Y-159501D02*
X87997D01*
X88997Y-160501D01*
Y-163500D01*
X85998D01*
X84998Y-162500D01*
X85998Y-161501D01*
X88997D01*
X90996Y-163500D02*
X93995D01*
X94995Y-162500D01*
X93995Y-161501D01*
X91996D01*
X90996Y-160501D01*
X91996Y-159501D01*
X94995D01*
X99993Y-163500D02*
X97994D01*
X96994Y-162500D01*
Y-160501D01*
X97994Y-159501D01*
X99993D01*
X100993Y-160501D01*
Y-161501D01*
X96994D01*
X106991Y-157502D02*
Y-163500D01*
X103992D01*
X102992Y-162500D01*
Y-160501D01*
X103992Y-159501D01*
X106991D01*
X115988Y-163500D02*
X117987D01*
X118987Y-162500D01*
Y-160501D01*
X117987Y-159501D01*
X115988D01*
X114988Y-160501D01*
Y-162500D01*
X115988Y-163500D01*
X120986D02*
Y-159501D01*
X123985D01*
X124985Y-160501D01*
Y-163500D01*
X132983Y-159501D02*
Y-162500D01*
X133982Y-163500D01*
X134982Y-162500D01*
X135982Y-163500D01*
X136981Y-162500D01*
Y-159501D01*
X138981D02*
Y-162500D01*
X139980Y-163500D01*
X140980Y-162500D01*
X141980Y-163500D01*
X142979Y-162500D01*
Y-159501D01*
X144979D02*
Y-162500D01*
X145978Y-163500D01*
X146978Y-162500D01*
X147978Y-163500D01*
X148977Y-162500D01*
Y-159501D01*
X150977Y-163500D02*
Y-162500D01*
X151976D01*
Y-163500D01*
X150977D01*
X156975D02*
Y-158502D01*
Y-160501D01*
X155975D01*
X157975D01*
X156975D01*
Y-158502D01*
X157975Y-157502D01*
X163972Y-163500D02*
X161973D01*
X160974Y-162500D01*
Y-160501D01*
X161973Y-159501D01*
X163972D01*
X164972Y-160501D01*
Y-161501D01*
X160974D01*
X170970Y-157502D02*
Y-163500D01*
X167971D01*
X166972Y-162500D01*
Y-160501D01*
X167971Y-159501D01*
X170970D01*
X175969Y-163500D02*
X173969D01*
X172970Y-162500D01*
Y-160501D01*
X173969Y-159501D01*
X175969D01*
X176968Y-160501D01*
Y-161501D01*
X172970D01*
X178968Y-159501D02*
X180967Y-163500D01*
X182966Y-159501D01*
X187965Y-163500D02*
X185965D01*
X184966Y-162500D01*
Y-160501D01*
X185965Y-159501D01*
X187965D01*
X188964Y-160501D01*
Y-161501D01*
X184966D01*
X190964Y-163500D02*
X192963D01*
X191964D01*
Y-157502D01*
X190964D01*
X195962Y-163500D02*
Y-162500D01*
X196962D01*
Y-163500D01*
X195962D01*
X204959Y-159501D02*
X201960D01*
X200960Y-160501D01*
Y-162500D01*
X201960Y-163500D01*
X204959D01*
X207958D02*
X209958D01*
X210957Y-162500D01*
Y-160501D01*
X209958Y-159501D01*
X207958D01*
X206959Y-160501D01*
Y-162500D01*
X207958Y-163500D01*
X212957D02*
Y-159501D01*
X213956D01*
X214956Y-160501D01*
Y-163500D01*
Y-160501D01*
X215956Y-159501D01*
X216955Y-160501D01*
Y-163500D01*
X-71921Y-167435D02*
Y-173433D01*
X-68922D01*
X-67923Y-172433D01*
Y-171434D01*
X-68922Y-170434D01*
X-71921D01*
X-68922D01*
X-67923Y-169434D01*
Y-168435D01*
X-68922Y-167435D01*
X-71921D01*
X-62924Y-173433D02*
X-64924D01*
X-65923Y-172433D01*
Y-170434D01*
X-64924Y-169434D01*
X-62924D01*
X-61924Y-170434D01*
Y-171434D01*
X-65923D01*
X-57926Y-175432D02*
X-56926D01*
X-55926Y-174433D01*
Y-169434D01*
X-58925D01*
X-59925Y-170434D01*
Y-172433D01*
X-58925Y-173433D01*
X-55926D01*
X-53927Y-169434D02*
Y-172433D01*
X-52927Y-173433D01*
X-49928D01*
Y-169434D01*
X-44930Y-173433D02*
X-46929D01*
X-47929Y-172433D01*
Y-170434D01*
X-46929Y-169434D01*
X-44930D01*
X-43930Y-170434D01*
Y-171434D01*
X-47929D01*
X-31934Y-168435D02*
X-32934Y-167435D01*
X-34933D01*
X-35933Y-168435D01*
Y-172433D01*
X-34933Y-173433D01*
X-32934D01*
X-31934Y-172433D01*
X-26936Y-173433D02*
X-28935D01*
X-29935Y-172433D01*
Y-170434D01*
X-28935Y-169434D01*
X-26936D01*
X-25936Y-170434D01*
Y-171434D01*
X-29935D01*
X-19938Y-167435D02*
Y-173433D01*
X-22937D01*
X-23937Y-172433D01*
Y-170434D01*
X-22937Y-169434D01*
X-19938D01*
X-17939D02*
Y-173433D01*
Y-171434D01*
X-16939Y-170434D01*
X-15939Y-169434D01*
X-14940D01*
X-11941Y-173433D02*
X-9941D01*
X-10941D01*
Y-169434D01*
X-11941D01*
X-2944D02*
X-5943D01*
X-6942Y-170434D01*
Y-172433D01*
X-5943Y-173433D01*
X-2944D01*
X-8867Y-198962D02*
X-11867D01*
X-12866Y-199962D01*
Y-201961D01*
X-11867Y-202961D01*
X-8867D01*
X-3869D02*
X-5868D01*
X-6868Y-201961D01*
Y-199962D01*
X-5868Y-198962D01*
X-3869D01*
X-2869Y-199962D01*
Y-200961D01*
X-6868D01*
X3129Y-196963D02*
Y-202961D01*
X130D01*
X-870Y-201961D01*
Y-199962D01*
X130Y-198962D01*
X3129D01*
X5128D02*
Y-202961D01*
Y-200961D01*
X6128Y-199962D01*
X7127Y-198962D01*
X8127D01*
X11126Y-202961D02*
X13126D01*
X12126D01*
Y-198962D01*
X11126D01*
X20123D02*
X17124D01*
X16125Y-199962D01*
Y-201961D01*
X17124Y-202961D01*
X20123D01*
X22122D02*
Y-201961D01*
X23122D01*
Y-202961D01*
X22122D01*
X27121Y-196963D02*
Y-202961D01*
X30120D01*
X31120Y-201961D01*
Y-200961D01*
Y-199962D01*
X30120Y-198962D01*
X27121D01*
X36118Y-202961D02*
X34119D01*
X33119Y-201961D01*
Y-199962D01*
X34119Y-198962D01*
X36118D01*
X37118Y-199962D01*
Y-200961D01*
X33119D01*
X41116Y-204960D02*
X42116D01*
X43116Y-203960D01*
Y-198962D01*
X40117D01*
X39117Y-199962D01*
Y-201961D01*
X40117Y-202961D01*
X43116D01*
X45115Y-198962D02*
Y-201961D01*
X46115Y-202961D01*
X49114D01*
Y-198962D01*
X54112Y-202961D02*
X52113D01*
X51113Y-201961D01*
Y-199962D01*
X52113Y-198962D01*
X54112D01*
X55112Y-199962D01*
Y-200961D01*
X51113D01*
X57111Y-202961D02*
X60110D01*
X61110Y-201961D01*
X60110Y-200961D01*
X58111D01*
X57111Y-199962D01*
X58111Y-198962D01*
X61110D01*
X63109Y-196963D02*
Y-202961D01*
Y-199962D01*
X64109Y-198962D01*
X66108D01*
X67108Y-199962D01*
Y-202961D01*
X72106Y-200961D02*
Y-199962D01*
X71107D01*
Y-200961D01*
X72106D01*
X73106Y-199962D01*
Y-197962D01*
X72106Y-196963D01*
X70107D01*
X69107Y-197962D01*
Y-201961D01*
X70107Y-202961D01*
X73106D01*
X77105Y-204960D02*
X78104D01*
X79104Y-203960D01*
Y-198962D01*
X76105D01*
X75105Y-199962D01*
Y-201961D01*
X76105Y-202961D01*
X79104D01*
X81103D02*
Y-198962D01*
X82103D01*
X83103Y-199962D01*
Y-202961D01*
Y-199962D01*
X84102Y-198962D01*
X85102Y-199962D01*
Y-202961D01*
X88101Y-198962D02*
X90101D01*
X91100Y-199962D01*
Y-202961D01*
X88101D01*
X87102Y-201961D01*
X88101Y-200961D01*
X91100D01*
X93100Y-202961D02*
X95099D01*
X94099D01*
Y-198962D01*
X93100D01*
X98098Y-202961D02*
X100097D01*
X99098D01*
Y-196963D01*
X98098D01*
X103096Y-202961D02*
Y-201961D01*
X104096D01*
Y-202961D01*
X103096D01*
X112093Y-198962D02*
X109094D01*
X108095Y-199962D01*
Y-201961D01*
X109094Y-202961D01*
X112093D01*
X115093D02*
X117092D01*
X118091Y-201961D01*
Y-199962D01*
X117092Y-198962D01*
X115093D01*
X114093Y-199962D01*
Y-201961D01*
X115093Y-202961D01*
X120091D02*
Y-198962D01*
X121090D01*
X122090Y-199962D01*
Y-202961D01*
Y-199962D01*
X123090Y-198962D01*
X124090Y-199962D01*
Y-202961D01*
X-67923Y-197962D02*
X-68922Y-196963D01*
X-70922D01*
X-71921Y-197962D01*
Y-201961D01*
X-70922Y-202961D01*
X-68922D01*
X-67923Y-201961D01*
X-64924Y-202961D02*
X-62924D01*
X-61924Y-201961D01*
Y-199962D01*
X-62924Y-198962D01*
X-64924D01*
X-65923Y-199962D01*
Y-201961D01*
X-64924Y-202961D01*
X-59925D02*
Y-198962D01*
X-56926D01*
X-55926Y-199962D01*
Y-202961D01*
X-52927Y-197962D02*
Y-198962D01*
X-53927D01*
X-51928D01*
X-52927D01*
Y-201961D01*
X-51928Y-202961D01*
X-47929Y-198962D02*
X-45930D01*
X-44930Y-199962D01*
Y-202961D01*
X-47929D01*
X-48929Y-201961D01*
X-47929Y-200961D01*
X-44930D01*
X-38932Y-198962D02*
X-41931D01*
X-42931Y-199962D01*
Y-201961D01*
X-41931Y-202961D01*
X-38932D01*
X-35933Y-197962D02*
Y-198962D01*
X-36933D01*
X-34933D01*
X-35933D01*
Y-201961D01*
X-34933Y-202961D01*
X-31934Y-198962D02*
X-30935D01*
Y-199962D01*
X-31934D01*
Y-198962D01*
Y-201961D02*
X-30935D01*
Y-202961D01*
X-31934D01*
Y-201961D01*
X13220Y330609D02*
X17219Y326610D01*
X13220D02*
X17219Y330609D01*
X13220Y328609D02*
X17219D01*
X15220Y326610D02*
Y330609D01*
X19218Y325610D02*
Y326610D01*
X20218D01*
Y325610D01*
X19218D01*
X28216Y330609D02*
X27216Y331608D01*
X25217D01*
X24217Y330609D01*
Y326610D01*
X25217Y325610D01*
X27216D01*
X28216Y326610D01*
Y328609D01*
X26216D01*
X30215Y325610D02*
Y331608D01*
X32214Y329609D01*
X34214Y331608D01*
Y325610D01*
X36213Y330609D02*
X37213Y331608D01*
X39212D01*
X40212Y330609D01*
Y329609D01*
X39212Y328609D01*
X38212D01*
X39212D01*
X40212Y327610D01*
Y326610D01*
X39212Y325610D01*
X37213D01*
X36213Y326610D01*
X48209Y328609D02*
X52208D01*
X60205Y325610D02*
Y331608D01*
X62205Y329609D01*
X64204Y331608D01*
Y325610D01*
X67203Y329609D02*
X69202D01*
X70202Y328609D01*
Y325610D01*
X67203D01*
X66203Y326610D01*
X67203Y327610D01*
X70202D01*
X72201Y325610D02*
Y329609D01*
X75200D01*
X76200Y328609D01*
Y325610D01*
X78199Y329609D02*
Y326610D01*
X79199Y325610D01*
X82198D01*
Y329609D01*
X85197Y325610D02*
Y330609D01*
Y328609D01*
X84197D01*
X86197D01*
X85197D01*
Y330609D01*
X86197Y331608D01*
X90196Y329609D02*
X92195D01*
X93195Y328609D01*
Y325610D01*
X90196D01*
X89196Y326610D01*
X90196Y327610D01*
X93195D01*
X99193Y329609D02*
X96194D01*
X95194Y328609D01*
Y326610D01*
X96194Y325610D01*
X99193D01*
X102192Y330609D02*
Y329609D01*
X101192D01*
X103191D01*
X102192D01*
Y326610D01*
X103191Y325610D01*
X106190Y329609D02*
Y326610D01*
X107190Y325610D01*
X110189D01*
Y329609D01*
X112188D02*
Y325610D01*
Y327610D01*
X113188Y328609D01*
X114188Y329609D01*
X115188D01*
X118186Y325610D02*
X120186D01*
X119186D01*
Y329609D01*
X118186D01*
X123185Y325610D02*
Y329609D01*
X126184D01*
X127184Y328609D01*
Y325610D01*
X131182Y323611D02*
X132182D01*
X133182Y324611D01*
Y329609D01*
X130183D01*
X129183Y328609D01*
Y326610D01*
X130183Y325610D01*
X133182D01*
X141179D02*
Y331608D01*
X145178Y325610D01*
Y331608D01*
X148177Y325610D02*
X150176D01*
X151176Y326610D01*
Y328609D01*
X150176Y329609D01*
X148177D01*
X147177Y328609D01*
Y326610D01*
X148177Y325610D01*
X154175Y330609D02*
Y329609D01*
X153175D01*
X155175D01*
X154175D01*
Y326610D01*
X155175Y325610D01*
X161173D02*
X159173D01*
X158174Y326610D01*
Y328609D01*
X159173Y329609D01*
X161173D01*
X162172Y328609D01*
Y327610D01*
X158174D01*
X164172Y325610D02*
X167171D01*
X168170Y326610D01*
X167171Y327610D01*
X165171D01*
X164172Y328609D01*
X165171Y329609D01*
X168170D01*
X13220Y320766D02*
X17219Y316767D01*
X13220D02*
X17219Y320766D01*
X13220Y318767D02*
X17219D01*
X15220Y316767D02*
Y320766D01*
X19218Y315768D02*
Y316767D01*
X20218D01*
Y315768D01*
X19218D01*
X28216Y320766D02*
X27216Y321766D01*
X25217D01*
X24217Y320766D01*
Y316767D01*
X25217Y315768D01*
X27216D01*
X28216Y316767D01*
Y318767D01*
X26216D01*
X30215Y315768D02*
Y321766D01*
X32214Y319766D01*
X34214Y321766D01*
Y315768D01*
X39212D02*
Y321766D01*
X36213Y318767D01*
X40212D01*
X48209D02*
X52208D01*
X60205Y321766D02*
Y315768D01*
X64204D01*
X66203D02*
X68203D01*
X67203D01*
Y319766D01*
X66203D01*
X75200D02*
X72201D01*
X71202Y318767D01*
Y316767D01*
X72201Y315768D01*
X75200D01*
X80199D02*
X78199D01*
X77200Y316767D01*
Y318767D01*
X78199Y319766D01*
X80199D01*
X81199Y318767D01*
Y317767D01*
X77200D01*
X83198Y315768D02*
Y319766D01*
X86197D01*
X87196Y318767D01*
Y315768D01*
X93195Y319766D02*
X90196D01*
X89196Y318767D01*
Y316767D01*
X90196Y315768D01*
X93195D01*
X98193D02*
X96194D01*
X95194Y316767D01*
Y318767D01*
X96194Y319766D01*
X98193D01*
X99193Y318767D01*
Y317767D01*
X95194D01*
X13220Y340451D02*
X17219Y336452D01*
X13220D02*
X17219Y340451D01*
X13220Y338452D02*
X17219D01*
X15220Y336452D02*
Y340451D01*
X19218Y335453D02*
Y336452D01*
X20218D01*
Y335453D01*
X19218D01*
X28216Y340451D02*
X27216Y341451D01*
X25217D01*
X24217Y340451D01*
Y336452D01*
X25217Y335453D01*
X27216D01*
X28216Y336452D01*
Y338452D01*
X26216D01*
X30215Y335453D02*
Y341451D01*
X32214Y339452D01*
X34214Y341451D01*
Y335453D01*
X40212D02*
X36213D01*
X40212Y339452D01*
Y340451D01*
X39212Y341451D01*
X37213D01*
X36213Y340451D01*
X48209Y338452D02*
X52208D01*
X60205Y335453D02*
Y341451D01*
X62205Y339452D01*
X64204Y341451D01*
Y335453D01*
X69202D02*
X67203D01*
X66203Y336452D01*
Y338452D01*
X67203Y339452D01*
X69202D01*
X70202Y338452D01*
Y337452D01*
X66203D01*
X76200Y339452D02*
X73201D01*
X72201Y338452D01*
Y336452D01*
X73201Y335453D01*
X76200D01*
X78199Y341451D02*
Y335453D01*
Y338452D01*
X79199Y339452D01*
X81199D01*
X82198Y338452D01*
Y335453D01*
X85197Y339452D02*
X87196D01*
X88196Y338452D01*
Y335453D01*
X85197D01*
X84197Y336452D01*
X85197Y337452D01*
X88196D01*
X90196Y335453D02*
Y339452D01*
X93195D01*
X94194Y338452D01*
Y335453D01*
X96194D02*
X98193D01*
X97193D01*
Y339452D01*
X96194D01*
X105191D02*
X102192D01*
X101192Y338452D01*
Y336452D01*
X102192Y335453D01*
X105191D01*
X108190Y339452D02*
X110189D01*
X111189Y338452D01*
Y335453D01*
X108190D01*
X107190Y336452D01*
X108190Y337452D01*
X111189D01*
X113188Y335453D02*
X115188D01*
X114188D01*
Y341451D01*
X113188D01*
X124185D02*
Y335453D01*
X127184D01*
X128183Y336452D01*
Y340451D01*
X127184Y341451D01*
X124185D01*
X130183Y339452D02*
Y335453D01*
Y337452D01*
X131182Y338452D01*
X132182Y339452D01*
X133182D01*
X137180D02*
X139180D01*
X140179Y338452D01*
Y335453D01*
X137180D01*
X136181Y336452D01*
X137180Y337452D01*
X140179D01*
X142179Y339452D02*
Y336452D01*
X143178Y335453D01*
X144178Y336452D01*
X145178Y335453D01*
X146177Y336452D01*
Y339452D01*
X148177Y335453D02*
X150176D01*
X149177D01*
Y339452D01*
X148177D01*
X153175Y335453D02*
Y339452D01*
X156174D01*
X157174Y338452D01*
Y335453D01*
X161173Y333453D02*
X162172D01*
X163172Y334453D01*
Y339452D01*
X160173D01*
X159173Y338452D01*
Y336452D01*
X160173Y335453D01*
X163172D01*
X13220Y350294D02*
X17219Y346295D01*
X13220D02*
X17219Y350294D01*
X13220Y348294D02*
X17219D01*
X15220Y346295D02*
Y350294D01*
X19218Y345295D02*
Y346295D01*
X20218D01*
Y345295D01*
X19218D01*
X28216Y350294D02*
X27216Y351293D01*
X25217D01*
X24217Y350294D01*
Y346295D01*
X25217Y345295D01*
X27216D01*
X28216Y346295D01*
Y348294D01*
X26216D01*
X30215Y351293D02*
Y345295D01*
X33214D01*
X34214Y346295D01*
Y347295D01*
X33214Y348294D01*
X30215D01*
X33214D01*
X34214Y349294D01*
Y350294D01*
X33214Y351293D01*
X30215D01*
X39212D02*
X37213D01*
X36213Y350294D01*
Y346295D01*
X37213Y345295D01*
X39212D01*
X40212Y346295D01*
Y350294D01*
X39212Y351293D01*
X48209Y348294D02*
X52208D01*
X60205Y351293D02*
Y345295D01*
X63204D01*
X64204Y346295D01*
Y347295D01*
X63204Y348294D01*
X60205D01*
X63204D01*
X64204Y349294D01*
Y350294D01*
X63204Y351293D01*
X60205D01*
X67203Y345295D02*
X69202D01*
X70202Y346295D01*
Y348294D01*
X69202Y349294D01*
X67203D01*
X66203Y348294D01*
Y346295D01*
X67203Y345295D01*
X73201Y350294D02*
Y349294D01*
X72201D01*
X74201D01*
X73201D01*
Y346295D01*
X74201Y345295D01*
X78199Y350294D02*
Y349294D01*
X77200D01*
X79199D01*
X78199D01*
Y346295D01*
X79199Y345295D01*
X83198D02*
X85197D01*
X86197Y346295D01*
Y348294D01*
X85197Y349294D01*
X83198D01*
X82198Y348294D01*
Y346295D01*
X83198Y345295D01*
X88196D02*
Y349294D01*
X89196D01*
X90196Y348294D01*
Y345295D01*
Y348294D01*
X91195Y349294D01*
X92195Y348294D01*
Y345295D01*
X103191Y351293D02*
X101192D01*
X100192Y350294D01*
Y346295D01*
X101192Y345295D01*
X103191D01*
X104191Y346295D01*
Y350294D01*
X103191Y351293D01*
X106190Y349294D02*
X108190Y345295D01*
X110189Y349294D01*
X115188Y345295D02*
X113188D01*
X112188Y346295D01*
Y348294D01*
X113188Y349294D01*
X115188D01*
X116187Y348294D01*
Y347295D01*
X112188D01*
X118186Y349294D02*
Y345295D01*
Y347295D01*
X119186Y348294D01*
X120186Y349294D01*
X121186D01*
X124185Y345295D02*
X126184D01*
X125184D01*
Y351293D01*
X124185D01*
X130183Y349294D02*
X132182D01*
X133182Y348294D01*
Y345295D01*
X130183D01*
X129183Y346295D01*
X130183Y347295D01*
X133182D01*
X135181Y349294D02*
Y346295D01*
X136181Y345295D01*
X139180D01*
Y344296D01*
X138180Y343296D01*
X137180D01*
X139180Y345295D02*
Y349294D01*
X13220Y360136D02*
X17219Y356137D01*
X13220D02*
X17219Y360136D01*
X13220Y358137D02*
X17219D01*
X15220Y356137D02*
Y360136D01*
X19218Y355138D02*
Y356137D01*
X20218D01*
Y355138D01*
X19218D01*
X28216Y360136D02*
X27216Y361136D01*
X25217D01*
X24217Y360136D01*
Y356137D01*
X25217Y355138D01*
X27216D01*
X28216Y356137D01*
Y358137D01*
X26216D01*
X30215Y361136D02*
Y355138D01*
X33214D01*
X34214Y356137D01*
Y357137D01*
X33214Y358137D01*
X30215D01*
X33214D01*
X34214Y359137D01*
Y360136D01*
X33214Y361136D01*
X30215D01*
X40212Y360136D02*
X39212Y361136D01*
X37213D01*
X36213Y360136D01*
Y359137D01*
X37213Y358137D01*
X39212D01*
X40212Y357137D01*
Y356137D01*
X39212Y355138D01*
X37213D01*
X36213Y356137D01*
X48209Y358137D02*
X52208D01*
X60205Y361136D02*
Y355138D01*
X63204D01*
X64204Y356137D01*
Y357137D01*
X63204Y358137D01*
X60205D01*
X63204D01*
X64204Y359137D01*
Y360136D01*
X63204Y361136D01*
X60205D01*
X67203Y355138D02*
X69202D01*
X70202Y356137D01*
Y358137D01*
X69202Y359137D01*
X67203D01*
X66203Y358137D01*
Y356137D01*
X67203Y355138D01*
X73201Y360136D02*
Y359137D01*
X72201D01*
X74201D01*
X73201D01*
Y356137D01*
X74201Y355138D01*
X78199Y360136D02*
Y359137D01*
X77200D01*
X79199D01*
X78199D01*
Y356137D01*
X79199Y355138D01*
X83198D02*
X85197D01*
X86197Y356137D01*
Y358137D01*
X85197Y359137D01*
X83198D01*
X82198Y358137D01*
Y356137D01*
X83198Y355138D01*
X88196D02*
Y359137D01*
X89196D01*
X90196Y358137D01*
Y355138D01*
Y358137D01*
X91195Y359137D01*
X92195Y358137D01*
Y355138D01*
X104191Y360136D02*
X103191Y361136D01*
X101192D01*
X100192Y360136D01*
Y359137D01*
X101192Y358137D01*
X103191D01*
X104191Y357137D01*
Y356137D01*
X103191Y355138D01*
X101192D01*
X100192Y356137D01*
X107190Y355138D02*
X109189D01*
X110189Y356137D01*
Y358137D01*
X109189Y359137D01*
X107190D01*
X106190Y358137D01*
Y356137D01*
X107190Y355138D01*
X112188D02*
X114188D01*
X113188D01*
Y361136D01*
X112188D01*
X121186D02*
Y355138D01*
X118186D01*
X117187Y356137D01*
Y358137D01*
X118186Y359137D01*
X121186D01*
X126184Y355138D02*
X124185D01*
X123185Y356137D01*
Y358137D01*
X124185Y359137D01*
X126184D01*
X127184Y358137D01*
Y357137D01*
X123185D01*
X129183Y359137D02*
Y355138D01*
Y357137D01*
X130183Y358137D01*
X131182Y359137D01*
X132182D01*
X13220Y369979D02*
X17219Y365980D01*
X13220D02*
X17219Y369979D01*
X13220Y367979D02*
X17219D01*
X15220Y365980D02*
Y369979D01*
X19218Y364980D02*
Y365980D01*
X20218D01*
Y364980D01*
X19218D01*
X28216Y369979D02*
X27216Y370978D01*
X25217D01*
X24217Y369979D01*
Y365980D01*
X25217Y364980D01*
X27216D01*
X28216Y365980D01*
Y367979D01*
X26216D01*
X30215Y370978D02*
Y364980D01*
X33214D01*
X34214Y365980D01*
Y366980D01*
X33214Y367979D01*
X30215D01*
X33214D01*
X34214Y368979D01*
Y369979D01*
X33214Y370978D01*
X30215D01*
X36213D02*
Y364980D01*
X40212D01*
X48209Y367979D02*
X52208D01*
X60205Y370978D02*
Y364980D01*
X64204D01*
X70202D02*
X66203D01*
X70202Y368979D01*
Y369979D01*
X69202Y370978D01*
X67203D01*
X66203Y369979D01*
X80199Y364980D02*
X78199Y366980D01*
Y368979D01*
X80199Y370978D01*
X83198Y364980D02*
Y370978D01*
X86197D01*
X87196Y369979D01*
Y367979D01*
X86197Y366980D01*
X83198D01*
X90196Y364980D02*
X92195D01*
X93195Y365980D01*
Y367979D01*
X92195Y368979D01*
X90196D01*
X89196Y367979D01*
Y365980D01*
X90196Y364980D01*
X95194D02*
X98193D01*
X99193Y365980D01*
X98193Y366980D01*
X96194D01*
X95194Y367979D01*
X96194Y368979D01*
X99193D01*
X101192Y364980D02*
X103191D01*
X102192D01*
Y368979D01*
X101192D01*
X107190Y369979D02*
Y368979D01*
X106190D01*
X108190D01*
X107190D01*
Y365980D01*
X108190Y364980D01*
X111189D02*
X113188D01*
X112188D01*
Y368979D01*
X111189D01*
X116187D02*
X118186Y364980D01*
X120186Y368979D01*
X125184Y364980D02*
X123185D01*
X122185Y365980D01*
Y367979D01*
X123185Y368979D01*
X125184D01*
X126184Y367979D01*
Y366980D01*
X122185D01*
X128183Y364980D02*
X130183Y366980D01*
Y368979D01*
X128183Y370978D01*
X13220Y379821D02*
X17219Y375822D01*
X13220D02*
X17219Y379821D01*
X13220Y377822D02*
X17219D01*
X15220Y375822D02*
Y379821D01*
X19218Y374823D02*
Y375822D01*
X20218D01*
Y374823D01*
X19218D01*
X28216Y379821D02*
X27216Y380821D01*
X25217D01*
X24217Y379821D01*
Y375822D01*
X25217Y374823D01*
X27216D01*
X28216Y375822D01*
Y377822D01*
X26216D01*
X30215Y380821D02*
X34214D01*
X32214D01*
Y374823D01*
X36213Y380821D02*
Y374823D01*
X40212D01*
X48209Y377822D02*
X52208D01*
X60205Y380821D02*
Y374823D01*
X64204D01*
X66203D02*
X68203D01*
X67203D01*
Y380821D01*
X66203Y379821D01*
X79199Y374823D02*
X77200Y376822D01*
Y378821D01*
X79199Y380821D01*
X82198Y374823D02*
Y380821D01*
X85197D01*
X86197Y379821D01*
Y377822D01*
X85197Y376822D01*
X82198D01*
X89196Y374823D02*
X91195D01*
X92195Y375822D01*
Y377822D01*
X91195Y378821D01*
X89196D01*
X88196Y377822D01*
Y375822D01*
X89196Y374823D01*
X94194D02*
X97193D01*
X98193Y375822D01*
X97193Y376822D01*
X95194D01*
X94194Y377822D01*
X95194Y378821D01*
X98193D01*
X100192Y374823D02*
X102192D01*
X101192D01*
Y378821D01*
X100192D01*
X106190Y379821D02*
Y378821D01*
X105191D01*
X107190D01*
X106190D01*
Y375822D01*
X107190Y374823D01*
X110189D02*
X112188D01*
X111189D01*
Y378821D01*
X110189D01*
X115188D02*
X117187Y374823D01*
X119186Y378821D01*
X124185Y374823D02*
X122185D01*
X121186Y375822D01*
Y377822D01*
X122185Y378821D01*
X124185D01*
X125184Y377822D01*
Y376822D01*
X121186D01*
X127184Y374823D02*
X129183Y376822D01*
Y378821D01*
X127184Y380821D01*
X13220Y389664D02*
X17219Y385665D01*
X13220D02*
X17219Y389664D01*
X13220Y387664D02*
X17219D01*
X15220Y385665D02*
Y389664D01*
X19218Y384665D02*
Y385665D01*
X20218D01*
Y384665D01*
X19218D01*
X28216Y389664D02*
X27216Y390663D01*
X25217D01*
X24217Y389664D01*
Y385665D01*
X25217Y384665D01*
X27216D01*
X28216Y385665D01*
Y387664D01*
X26216D01*
X30215Y390663D02*
X34214D01*
X32214D01*
Y384665D01*
X40212Y389664D02*
X39212Y390663D01*
X37213D01*
X36213Y389664D01*
Y388664D01*
X37213Y387664D01*
X39212D01*
X40212Y386665D01*
Y385665D01*
X39212Y384665D01*
X37213D01*
X36213Y385665D01*
X48209Y387664D02*
X52208D01*
X60205Y390663D02*
X64204D01*
X62205D01*
Y384665D01*
X67203D02*
X69202D01*
X70202Y385665D01*
Y387664D01*
X69202Y388664D01*
X67203D01*
X66203Y387664D01*
Y385665D01*
X67203Y384665D01*
X72201Y382666D02*
Y388664D01*
X75200D01*
X76200Y387664D01*
Y385665D01*
X75200Y384665D01*
X72201D01*
X88196Y389664D02*
X87196Y390663D01*
X85197D01*
X84197Y389664D01*
Y388664D01*
X85197Y387664D01*
X87196D01*
X88196Y386665D01*
Y385665D01*
X87196Y384665D01*
X85197D01*
X84197Y385665D01*
X91195Y384665D02*
X93195D01*
X94194Y385665D01*
Y387664D01*
X93195Y388664D01*
X91195D01*
X90196Y387664D01*
Y385665D01*
X91195Y384665D01*
X96194D02*
X98193D01*
X97193D01*
Y390663D01*
X96194D01*
X105191D02*
Y384665D01*
X102192D01*
X101192Y385665D01*
Y387664D01*
X102192Y388664D01*
X105191D01*
X110189Y384665D02*
X108190D01*
X107190Y385665D01*
Y387664D01*
X108190Y388664D01*
X110189D01*
X111189Y387664D01*
Y386665D01*
X107190D01*
X113188Y388664D02*
Y384665D01*
Y386665D01*
X114188Y387664D01*
X115188Y388664D01*
X116187D01*
X13220Y399506D02*
X17219Y395508D01*
X13220D02*
X17219Y399506D01*
X13220Y397507D02*
X17219D01*
X15220Y395508D02*
Y399506D01*
X19218Y394508D02*
Y395508D01*
X20218D01*
Y394508D01*
X19218D01*
X28216Y399506D02*
X27216Y400506D01*
X25217D01*
X24217Y399506D01*
Y395508D01*
X25217Y394508D01*
X27216D01*
X28216Y395508D01*
Y397507D01*
X26216D01*
X30215Y400506D02*
X34214D01*
X32214D01*
Y394508D01*
X36213D02*
Y400506D01*
X39212D01*
X40212Y399506D01*
Y397507D01*
X39212Y396507D01*
X36213D01*
X48209Y397507D02*
X52208D01*
X60205Y400506D02*
X64204D01*
X62205D01*
Y394508D01*
X67203D02*
X69202D01*
X70202Y395508D01*
Y397507D01*
X69202Y398507D01*
X67203D01*
X66203Y397507D01*
Y395508D01*
X67203Y394508D01*
X72201Y392509D02*
Y398507D01*
X75200D01*
X76200Y397507D01*
Y395508D01*
X75200Y394508D01*
X72201D01*
X84197D02*
Y400506D01*
X87196D01*
X88196Y399506D01*
Y397507D01*
X87196Y396507D01*
X84197D01*
X91195Y398507D02*
X93195D01*
X94194Y397507D01*
Y394508D01*
X91195D01*
X90196Y395508D01*
X91195Y396507D01*
X94194D01*
X96194Y394508D02*
X99193D01*
X100192Y395508D01*
X99193Y396507D01*
X97193D01*
X96194Y397507D01*
X97193Y398507D01*
X100192D01*
X103191Y399506D02*
Y398507D01*
X102192D01*
X104191D01*
X103191D01*
Y395508D01*
X104191Y394508D01*
X110189D02*
X108190D01*
X107190Y395508D01*
Y397507D01*
X108190Y398507D01*
X110189D01*
X111189Y397507D01*
Y396507D01*
X107190D01*
X13220Y409349D02*
X17219Y405350D01*
X13220D02*
X17219Y409349D01*
X13220Y407349D02*
X17219D01*
X15220Y405350D02*
Y409349D01*
X19218Y404350D02*
Y405350D01*
X20218D01*
Y404350D01*
X19218D01*
X28216Y409349D02*
X27216Y410349D01*
X25217D01*
X24217Y409349D01*
Y405350D01*
X25217Y404350D01*
X27216D01*
X28216Y405350D01*
Y407349D01*
X26216D01*
X30215Y410349D02*
X34214D01*
X32214D01*
Y404350D01*
X39212Y410349D02*
X37213D01*
X36213Y409349D01*
Y405350D01*
X37213Y404350D01*
X39212D01*
X40212Y405350D01*
Y409349D01*
X39212Y410349D01*
X48209Y407349D02*
X52208D01*
X60205Y410349D02*
X64204D01*
X62205D01*
Y404350D01*
X67203D02*
X69202D01*
X70202Y405350D01*
Y407349D01*
X69202Y408349D01*
X67203D01*
X66203Y407349D01*
Y405350D01*
X67203Y404350D01*
X72201Y402351D02*
Y408349D01*
X75200D01*
X76200Y407349D01*
Y405350D01*
X75200Y404350D01*
X72201D01*
X87196Y410349D02*
X85197D01*
X84197Y409349D01*
Y405350D01*
X85197Y404350D01*
X87196D01*
X88196Y405350D01*
Y409349D01*
X87196Y410349D01*
X90196Y408349D02*
X92195Y404350D01*
X94194Y408349D01*
X99193Y404350D02*
X97193D01*
X96194Y405350D01*
Y407349D01*
X97193Y408349D01*
X99193D01*
X100192Y407349D01*
Y406350D01*
X96194D01*
X102192Y408349D02*
Y404350D01*
Y406350D01*
X103191Y407349D01*
X104191Y408349D01*
X105191D01*
X108190Y404350D02*
X110189D01*
X109189D01*
Y410349D01*
X108190D01*
X114188Y408349D02*
X116187D01*
X117187Y407349D01*
Y404350D01*
X114188D01*
X113188Y405350D01*
X114188Y406350D01*
X117187D01*
X119186Y408349D02*
Y405350D01*
X120186Y404350D01*
X123185D01*
Y403351D01*
X122185Y402351D01*
X121186D01*
X123185Y404350D02*
Y408349D01*
X17219Y420191D02*
X13220D01*
Y417192D01*
X15220D01*
X13220D01*
Y414193D01*
X19218D02*
X21218D01*
X20218D01*
Y418192D01*
X19218D01*
X24217Y414193D02*
X26216D01*
X25217D01*
Y420191D01*
X24217D01*
X32214Y414193D02*
X30215D01*
X29215Y415193D01*
Y417192D01*
X30215Y418192D01*
X32214D01*
X33214Y417192D01*
Y416192D01*
X29215D01*
X35213Y414193D02*
X38212D01*
X39212Y415193D01*
X38212Y416192D01*
X36213D01*
X35213Y417192D01*
X36213Y418192D01*
X39212D01*
X13220Y310924D02*
X17219Y306925D01*
X13220D02*
X17219Y310924D01*
X13220Y308924D02*
X17219D01*
X15220Y306925D02*
Y310924D01*
X19218Y305925D02*
Y306925D01*
X20218D01*
Y305925D01*
X19218D01*
X28216Y310924D02*
X27216Y311923D01*
X25217D01*
X24217Y310924D01*
Y306925D01*
X25217Y305925D01*
X27216D01*
X28216Y306925D01*
Y308924D01*
X26216D01*
X30215Y305925D02*
Y311923D01*
X32214Y309924D01*
X34214Y311923D01*
Y305925D01*
X40212D02*
X36213D01*
X40212Y309924D01*
Y310924D01*
X39212Y311923D01*
X37213D01*
X36213Y310924D01*
X42211D02*
X43211Y311923D01*
X45210D01*
X46210Y310924D01*
Y309924D01*
X45210Y308924D01*
X46210Y307925D01*
Y306925D01*
X45210Y305925D01*
X43211D01*
X42211Y306925D01*
Y307925D01*
X43211Y308924D01*
X42211Y309924D01*
Y310924D01*
X43211Y308924D02*
X45210D01*
X54207D02*
X58206D01*
X66203Y311923D02*
Y305925D01*
X69202D01*
X70202Y306925D01*
Y307925D01*
X69202Y308924D01*
X66203D01*
X69202D01*
X70202Y309924D01*
Y310924D01*
X69202Y311923D01*
X66203D01*
X73201Y305925D02*
X75200D01*
X76200Y306925D01*
Y308924D01*
X75200Y309924D01*
X73201D01*
X72201Y308924D01*
Y306925D01*
X73201Y305925D01*
X79199Y309924D02*
X81199D01*
X82198Y308924D01*
Y305925D01*
X79199D01*
X78199Y306925D01*
X79199Y307925D01*
X82198D01*
X84197Y309924D02*
Y305925D01*
Y307925D01*
X85197Y308924D01*
X86197Y309924D01*
X87196D01*
X94194Y311923D02*
Y305925D01*
X91195D01*
X90196Y306925D01*
Y308924D01*
X91195Y309924D01*
X94194D01*
X105191Y311923D02*
X103191D01*
X102192Y310924D01*
Y306925D01*
X103191Y305925D01*
X105191D01*
X106190Y306925D01*
Y310924D01*
X105191Y311923D01*
X108190Y309924D02*
Y306925D01*
X109189Y305925D01*
X112188D01*
Y309924D01*
X115188Y310924D02*
Y309924D01*
X114188D01*
X116187D01*
X115188D01*
Y306925D01*
X116187Y305925D01*
X119186D02*
X121186D01*
X120186D01*
Y311923D01*
X119186D01*
X124185Y305925D02*
X126184D01*
X125184D01*
Y309924D01*
X124185D01*
X129183Y305925D02*
Y309924D01*
X132182D01*
X133182Y308924D01*
Y305925D01*
X138180D02*
X136181D01*
X135181Y306925D01*
Y308924D01*
X136181Y309924D01*
X138180D01*
X139180Y308924D01*
Y307925D01*
X135181D01*
X353634Y249869D02*
X357633D01*
X365630Y246870D02*
Y252868D01*
X368629D01*
X369629Y251869D01*
Y249869D01*
X368629Y248869D01*
X365630D01*
X371628Y252868D02*
Y246870D01*
X375627D01*
X377626D02*
Y250869D01*
X379625Y252868D01*
X381625Y250869D01*
Y246870D01*
Y249869D01*
X377626D01*
X387623Y251869D02*
X386623Y252868D01*
X384624D01*
X383624Y251869D01*
Y247870D01*
X384624Y246870D01*
X386623D01*
X387623Y247870D01*
X393621Y252868D02*
X389622D01*
Y246870D01*
X393621D01*
X389622Y249869D02*
X391622D01*
X404617Y252868D02*
X402618D01*
X401618Y251869D01*
Y247870D01*
X402618Y246870D01*
X404617D01*
X405617Y247870D01*
Y251869D01*
X404617Y252868D01*
X407616Y246870D02*
Y252868D01*
X411615Y246870D01*
Y252868D01*
X417613D02*
X413615D01*
Y246870D01*
X417613D01*
X413615Y249869D02*
X415614D01*
X429609Y252868D02*
X425611D01*
Y249869D01*
X427610D01*
X425611D01*
Y246870D01*
X431609Y252868D02*
X433608D01*
X432608D01*
Y246870D01*
X431609D01*
X433608D01*
X436607Y252868D02*
Y246870D01*
X439606D01*
X440606Y247870D01*
Y251869D01*
X439606Y252868D01*
X436607D01*
X442605D02*
Y247870D01*
X443605Y246870D01*
X445604D01*
X446604Y247870D01*
Y252868D01*
X452602Y251869D02*
X451602Y252868D01*
X449603D01*
X448603Y251869D01*
Y247870D01*
X449603Y246870D01*
X451602D01*
X452602Y247870D01*
X454601Y252868D02*
X456601D01*
X455601D01*
Y246870D01*
X454601D01*
X456601D01*
X459600D02*
Y250869D01*
X461599Y252868D01*
X463598Y250869D01*
Y246870D01*
Y249869D01*
X459600D01*
X465598Y252868D02*
Y246870D01*
X469596D01*
X477594Y252868D02*
X479593D01*
X478593D01*
Y246870D01*
X477594D01*
X479593D01*
X482592D02*
Y252868D01*
X486591Y246870D01*
Y252868D01*
X488590D02*
X492589D01*
X490590D01*
Y246870D01*
X497587Y252868D02*
X495588D01*
X494588Y251869D01*
Y247870D01*
X495588Y246870D01*
X497587D01*
X498587Y247870D01*
Y251869D01*
X497587Y252868D01*
X510583D02*
X506584D01*
Y246870D01*
X510583D01*
X506584Y249869D02*
X508584D01*
X512582Y246870D02*
Y250869D01*
X514582Y252868D01*
X516581Y250869D01*
Y246870D01*
Y249869D01*
X512582D01*
X522579Y251869D02*
X521580Y252868D01*
X519580D01*
X518580Y251869D01*
Y247870D01*
X519580Y246870D01*
X521580D01*
X522579Y247870D01*
X524579Y252868D02*
Y246870D01*
Y249869D01*
X528577D01*
Y252868D01*
Y246870D01*
X536575D02*
Y252868D01*
X539574D01*
X540573Y251869D01*
Y249869D01*
X539574Y248869D01*
X536575D01*
X542573Y246870D02*
Y250869D01*
X544572Y252868D01*
X546571Y250869D01*
Y246870D01*
Y249869D01*
X542573D01*
X548571Y246870D02*
Y252868D01*
X552569Y246870D01*
Y252868D01*
X558568D02*
X554569D01*
Y246870D01*
X558568D01*
X554569Y249869D02*
X556568D01*
X560567Y252868D02*
Y246870D01*
X564566D01*
X576562Y251869D02*
X575562Y252868D01*
X573563D01*
X572563Y251869D01*
Y247870D01*
X573563Y246870D01*
X575562D01*
X576562Y247870D01*
X581560Y252868D02*
X579561D01*
X578561Y251869D01*
Y247870D01*
X579561Y246870D01*
X581560D01*
X582560Y247870D01*
Y251869D01*
X581560Y252868D01*
X584559Y246870D02*
Y252868D01*
X587558D01*
X588558Y251869D01*
Y249869D01*
X587558Y248869D01*
X584559D01*
X586558D02*
X588558Y246870D01*
X590557D02*
Y252868D01*
X594556Y246870D01*
Y252868D01*
X600554D02*
X596555D01*
Y246870D01*
X600554D01*
X596555Y249869D02*
X598555D01*
X602553Y246870D02*
Y252868D01*
X605552D01*
X606552Y251869D01*
Y249869D01*
X605552Y248869D01*
X602553D01*
X604553D02*
X606552Y246870D01*
X616549D02*
X614549Y248869D01*
Y250869D01*
X616549Y252868D01*
X623547D02*
X619548D01*
Y249869D01*
X621547D01*
X619548D01*
Y246870D01*
X628545Y252868D02*
X626546D01*
X625546Y251869D01*
Y247870D01*
X626546Y246870D01*
X628545D01*
X629545Y247870D01*
Y251869D01*
X628545Y252868D01*
X631544D02*
Y247870D01*
X632544Y246870D01*
X634543D01*
X635543Y247870D01*
Y252868D01*
X637542Y246870D02*
Y252868D01*
X640541D01*
X641541Y251869D01*
Y249869D01*
X640541Y248869D01*
X637542D01*
X639541D02*
X641541Y246870D01*
X652537Y252868D02*
X650538D01*
X649538Y251869D01*
Y247870D01*
X650538Y246870D01*
X652537D01*
X653537Y247870D01*
Y251869D01*
X652537Y252868D01*
X655536Y246870D02*
Y252868D01*
X659535Y246870D01*
Y252868D01*
X667532D02*
X671531D01*
X669532D01*
Y246870D01*
X673530Y252868D02*
Y246870D01*
Y249869D01*
X677529D01*
Y252868D01*
Y246870D01*
X683527Y252868D02*
X679528D01*
Y246870D01*
X683527D01*
X679528Y249869D02*
X681528D01*
X691525Y252868D02*
X695523D01*
X693524D01*
Y246870D01*
X700522Y252868D02*
X698522D01*
X697523Y251869D01*
Y247870D01*
X698522Y246870D01*
X700522D01*
X701521Y247870D01*
Y251869D01*
X700522Y252868D01*
X703521Y246870D02*
Y252868D01*
X706520D01*
X707519Y251869D01*
Y249869D01*
X706520Y248869D01*
X703521D01*
X715517Y252868D02*
Y246870D01*
X719516D01*
X721515D02*
Y250869D01*
X723514Y252868D01*
X725514Y250869D01*
Y246870D01*
Y249869D01*
X721515D01*
X727513Y252868D02*
Y251869D01*
X729512Y249869D01*
X731512Y251869D01*
Y252868D01*
X729512Y249869D02*
Y246870D01*
X737510Y252868D02*
X733511D01*
Y246870D01*
X737510D01*
X733511Y249869D02*
X735510D01*
X739509Y246870D02*
Y252868D01*
X742508D01*
X743508Y251869D01*
Y249869D01*
X742508Y248869D01*
X739509D01*
X741508D02*
X743508Y246870D01*
X745507D02*
X747506Y248869D01*
Y250869D01*
X745507Y252868D01*
X353634Y259712D02*
X357633D01*
X365630Y261711D02*
X366630Y262711D01*
X368629D01*
X369629Y261711D01*
Y260711D01*
X368629Y259712D01*
X367629D01*
X368629D01*
X369629Y258712D01*
Y257712D01*
X368629Y256713D01*
X366630D01*
X365630Y257712D01*
X381625Y262711D02*
X377626D01*
Y259712D01*
X379625D01*
X377626D01*
Y256713D01*
X383624Y262711D02*
X385624D01*
X384624D01*
Y256713D01*
X383624D01*
X385624D01*
X388622Y262711D02*
Y256713D01*
X391622D01*
X392621Y257712D01*
Y261711D01*
X391622Y262711D01*
X388622D01*
X394621D02*
Y257712D01*
X395620Y256713D01*
X397620D01*
X398619Y257712D01*
Y262711D01*
X404617Y261711D02*
X403618Y262711D01*
X401618D01*
X400619Y261711D01*
Y257712D01*
X401618Y256713D01*
X403618D01*
X404617Y257712D01*
X406617Y262711D02*
X408616D01*
X407616D01*
Y256713D01*
X406617D01*
X408616D01*
X411615D02*
Y260711D01*
X413614Y262711D01*
X415614Y260711D01*
Y256713D01*
Y259712D01*
X411615D01*
X417613Y262711D02*
Y256713D01*
X421612D01*
X427610Y261711D02*
X426610Y262711D01*
X424611D01*
X423611Y261711D01*
Y260711D01*
X424611Y259712D01*
X426610D01*
X427610Y258712D01*
Y257712D01*
X426610Y256713D01*
X424611D01*
X423611Y257712D01*
X439606Y261711D02*
X438606Y262711D01*
X436607D01*
X435607Y261711D01*
Y260711D01*
X436607Y259712D01*
X438606D01*
X439606Y258712D01*
Y257712D01*
X438606Y256713D01*
X436607D01*
X435607Y257712D01*
X441605Y262711D02*
Y256713D01*
Y259712D01*
X445604D01*
Y262711D01*
Y256713D01*
X450602Y262711D02*
X448603D01*
X447603Y261711D01*
Y257712D01*
X448603Y256713D01*
X450602D01*
X451602Y257712D01*
Y261711D01*
X450602Y262711D01*
X453602D02*
Y257712D01*
X454601Y256713D01*
X456601D01*
X457600Y257712D01*
Y262711D01*
X459600D02*
Y256713D01*
X463598D01*
X465598Y262711D02*
Y256713D01*
X468597D01*
X469596Y257712D01*
Y261711D01*
X468597Y262711D01*
X465598D01*
X477594D02*
Y256713D01*
X481593D01*
X483592Y262711D02*
X485591D01*
X484591D01*
Y256713D01*
X483592D01*
X485591D01*
X492589Y262711D02*
X488590D01*
Y256713D01*
X492589D01*
X488590Y259712D02*
X490590D01*
X503585Y262711D02*
X501586D01*
X500586Y261711D01*
Y257712D01*
X501586Y256713D01*
X503585D01*
X504585Y257712D01*
Y261711D01*
X503585Y262711D01*
X506584Y256713D02*
Y262711D01*
X510583Y256713D01*
Y262711D01*
X518580D02*
X522579D01*
X520580D01*
Y256713D01*
X524579Y262711D02*
Y256713D01*
X526578Y258712D01*
X528577Y256713D01*
Y262711D01*
X533576D02*
X531576D01*
X530577Y261711D01*
Y257712D01*
X531576Y256713D01*
X533576D01*
X534575Y257712D01*
Y261711D01*
X533576Y262711D01*
X542573D02*
Y256713D01*
X546571D01*
X548571Y262711D02*
X550570D01*
X549571D01*
Y256713D01*
X548571D01*
X550570D01*
X553569D02*
Y262711D01*
X557568Y256713D01*
Y262711D01*
X563566D02*
X559567D01*
Y256713D01*
X563566D01*
X559567Y259712D02*
X561567D01*
X569564Y261711D02*
X568564Y262711D01*
X566565D01*
X565565Y261711D01*
Y260711D01*
X566565Y259712D01*
X568564D01*
X569564Y258712D01*
Y257712D01*
X568564Y256713D01*
X566565D01*
X565565Y257712D01*
X577561Y262711D02*
X581560D01*
X579561D01*
Y256713D01*
X583560Y262711D02*
Y256713D01*
Y259712D01*
X587558D01*
Y262711D01*
Y256713D01*
X589558D02*
Y260711D01*
X591557Y262711D01*
X593556Y260711D01*
Y256713D01*
Y259712D01*
X589558D01*
X595556Y262711D02*
X599554D01*
X597555D01*
Y256713D01*
X607552Y262711D02*
X609551D01*
X608551D01*
Y256713D01*
X607552D01*
X609551D01*
X612550D02*
Y262711D01*
X616549Y256713D01*
Y262711D01*
X618548D02*
X622547D01*
X620547D01*
Y256713D01*
X628545Y262711D02*
X624546D01*
Y256713D01*
X628545D01*
X624546Y259712D02*
X626546D01*
X630544Y256713D02*
Y262711D01*
X633543D01*
X634543Y261711D01*
Y259712D01*
X633543Y258712D01*
X630544D01*
X632544D02*
X634543Y256713D01*
X640541Y261711D02*
X639541Y262711D01*
X637542D01*
X636542Y261711D01*
Y260711D01*
X637542Y259712D01*
X639541D01*
X640541Y258712D01*
Y257712D01*
X639541Y256713D01*
X637542D01*
X636542Y257712D01*
X646539Y262711D02*
X642540D01*
Y256713D01*
X646539D01*
X642540Y259712D02*
X644540D01*
X652537Y261711D02*
X651538Y262711D01*
X649538D01*
X648538Y261711D01*
Y257712D01*
X649538Y256713D01*
X651538D01*
X652537Y257712D01*
X654536Y262711D02*
X658535D01*
X656536D01*
Y256713D01*
X666533D02*
Y260711D01*
X668532Y262711D01*
X670531Y260711D01*
Y256713D01*
Y259712D01*
X666533D01*
X672531Y262711D02*
X676529D01*
X674530D01*
Y256713D01*
X684527D02*
Y260711D01*
X686526Y262711D01*
X688525Y260711D01*
Y256713D01*
Y259712D01*
X684527D01*
X696523Y256713D02*
Y262711D01*
X699522D01*
X700522Y261711D01*
Y259712D01*
X699522Y258712D01*
X696523D01*
X698522D02*
X700522Y256713D01*
X702521Y262711D02*
X704520D01*
X703521D01*
Y256713D01*
X702521D01*
X704520D01*
X711518Y261711D02*
X710518Y262711D01*
X708519D01*
X707519Y261711D01*
Y257712D01*
X708519Y256713D01*
X710518D01*
X711518Y257712D01*
Y259712D01*
X709519D01*
X713517Y262711D02*
Y256713D01*
Y259712D01*
X717516D01*
Y262711D01*
Y256713D01*
X719516Y262711D02*
X723514D01*
X721515D01*
Y256713D01*
X731512D02*
Y260711D01*
X733511Y262711D01*
X735510Y260711D01*
Y256713D01*
Y259712D01*
X731512D01*
X737510Y256713D02*
Y262711D01*
X741508Y256713D01*
Y262711D01*
X747506Y261711D02*
X746507Y262711D01*
X744507D01*
X743508Y261711D01*
Y257712D01*
X744507Y256713D01*
X746507D01*
X747506Y257712D01*
Y259712D01*
X745507D01*
X749506Y262711D02*
Y256713D01*
X753505D01*
X759503Y262711D02*
X755504D01*
Y256713D01*
X759503D01*
X755504Y259712D02*
X757503D01*
X353634Y269554D02*
X357633D01*
X365630Y266555D02*
Y272553D01*
X367629Y270554D01*
X369629Y272553D01*
Y266555D01*
X371628Y272553D02*
X373627D01*
X372628D01*
Y266555D01*
X371628D01*
X373627D01*
X376626D02*
Y272553D01*
X380625Y266555D01*
Y272553D01*
X382625D02*
X384624D01*
X383624D01*
Y266555D01*
X382625D01*
X384624D01*
X387623D02*
Y272553D01*
X389622Y270554D01*
X391622Y272553D01*
Y266555D01*
X393621Y272553D02*
Y267555D01*
X394621Y266555D01*
X396620D01*
X397620Y267555D01*
Y272553D01*
X399619Y266555D02*
Y272553D01*
X401618Y270554D01*
X403618Y272553D01*
Y266555D01*
X414614D02*
Y272553D01*
X411615Y269554D01*
X415614D01*
X417613Y266555D02*
Y272553D01*
X419613Y270554D01*
X421612Y272553D01*
Y266555D01*
X423611D02*
Y272553D01*
X425611Y270554D01*
X427610Y272553D01*
Y266555D01*
X435607Y272553D02*
Y266555D01*
X438606D01*
X439606Y267555D01*
Y271553D01*
X438606Y272553D01*
X435607D01*
X441605D02*
X443605D01*
X442605D01*
Y266555D01*
X441605D01*
X443605D01*
X450602Y271553D02*
X449603Y272553D01*
X447603D01*
X446604Y271553D01*
Y270554D01*
X447603Y269554D01*
X449603D01*
X450602Y268554D01*
Y267555D01*
X449603Y266555D01*
X447603D01*
X446604Y267555D01*
X452602Y272553D02*
X456601D01*
X454601D01*
Y266555D01*
X458600D02*
Y270554D01*
X460599Y272553D01*
X462599Y270554D01*
Y266555D01*
Y269554D01*
X458600D01*
X464598Y266555D02*
Y272553D01*
X468597Y266555D01*
Y272553D01*
X474595Y271553D02*
X473595Y272553D01*
X471596D01*
X470596Y271553D01*
Y267555D01*
X471596Y266555D01*
X473595D01*
X474595Y267555D01*
X480593Y272553D02*
X476594D01*
Y266555D01*
X480593D01*
X476594Y269554D02*
X478593D01*
X492589Y272553D02*
X488590D01*
Y269554D01*
X490590D01*
X488590D01*
Y266555D01*
X494588D02*
Y272553D01*
X497587D01*
X498587Y271553D01*
Y269554D01*
X497587Y268554D01*
X494588D01*
X496588D02*
X498587Y266555D01*
X503585Y272553D02*
X501586D01*
X500586Y271553D01*
Y267555D01*
X501586Y266555D01*
X503585D01*
X504585Y267555D01*
Y271553D01*
X503585Y272553D01*
X506584Y266555D02*
Y272553D01*
X508584Y270554D01*
X510583Y272553D01*
Y266555D01*
X518580Y272553D02*
X522579D01*
X520580D01*
Y266555D01*
X524579Y272553D02*
Y266555D01*
Y269554D01*
X528577D01*
Y272553D01*
Y266555D01*
X534575Y272553D02*
X530577D01*
Y266555D01*
X534575D01*
X530577Y269554D02*
X532576D01*
X542573Y266555D02*
Y272553D01*
X545572D01*
X546571Y271553D01*
Y269554D01*
X545572Y268554D01*
X542573D01*
X548571Y266555D02*
Y270554D01*
X550570Y272553D01*
X552569Y270554D01*
Y266555D01*
Y269554D01*
X548571D01*
X554569Y266555D02*
Y272553D01*
X558568Y266555D01*
Y272553D01*
X564566D02*
X560567D01*
Y266555D01*
X564566D01*
X560567Y269554D02*
X562566D01*
X566565Y272553D02*
Y266555D01*
X570564D01*
X582560Y272553D02*
X578561D01*
Y266555D01*
X582560D01*
X578561Y269554D02*
X580560D01*
X584559Y272553D02*
Y266555D01*
X587558D01*
X588558Y267555D01*
Y271553D01*
X587558Y272553D01*
X584559D01*
X594556Y271553D02*
X593556Y272553D01*
X591557D01*
X590557Y271553D01*
Y267555D01*
X591557Y266555D01*
X593556D01*
X594556Y267555D01*
Y269554D01*
X592557D01*
X600554Y272553D02*
X596555D01*
Y266555D01*
X600554D01*
X596555Y269554D02*
X598555D01*
X353634Y279397D02*
X357633D01*
X369629Y282396D02*
X365630D01*
Y279397D01*
X367629D01*
X365630D01*
Y276398D01*
X371628Y282396D02*
X373627D01*
X372628D01*
Y276398D01*
X371628D01*
X373627D01*
X376626Y282396D02*
Y276398D01*
X379625D01*
X380625Y277397D01*
Y281396D01*
X379625Y282396D01*
X376626D01*
X382625D02*
Y277397D01*
X383624Y276398D01*
X385624D01*
X386623Y277397D01*
Y282396D01*
X392621Y281396D02*
X391622Y282396D01*
X389622D01*
X388622Y281396D01*
Y277397D01*
X389622Y276398D01*
X391622D01*
X392621Y277397D01*
X394621Y282396D02*
X396620D01*
X395620D01*
Y276398D01*
X394621D01*
X396620D01*
X399619D02*
Y280396D01*
X401618Y282396D01*
X403618Y280396D01*
Y276398D01*
Y279397D01*
X399619D01*
X405617Y282396D02*
Y276398D01*
X409616D01*
X417613Y282396D02*
Y276398D01*
X420612D01*
X421612Y277397D01*
Y281396D01*
X420612Y282396D01*
X417613D01*
X423611D02*
X425611D01*
X424611D01*
Y276398D01*
X423611D01*
X425611D01*
X428610D02*
Y280396D01*
X430609Y282396D01*
X432608Y280396D01*
Y276398D01*
Y279397D01*
X428610D01*
X434608Y276398D02*
Y282396D01*
X436607Y280396D01*
X438606Y282396D01*
Y276398D01*
X440606Y282396D02*
X444604D01*
X442605D01*
Y276398D01*
X450602Y282396D02*
X446604D01*
Y276398D01*
X450602D01*
X446604Y279397D02*
X448603D01*
X452602Y276398D02*
Y282396D01*
X455601D01*
X456601Y281396D01*
Y279397D01*
X455601Y278397D01*
X452602D01*
X454601D02*
X456601Y276398D01*
X464598D02*
X466597D01*
X465598D01*
Y282396D01*
X464598Y281396D01*
X469596Y279397D02*
X473595D01*
X475594Y276398D02*
X477594D01*
X476594D01*
Y282396D01*
X475594Y281396D01*
X480593Y276398D02*
Y277397D01*
X481593D01*
Y276398D01*
X480593D01*
X489590Y282396D02*
X485591D01*
Y279397D01*
X487591Y280396D01*
X488590D01*
X489590Y279397D01*
Y277397D01*
X488590Y276398D01*
X486591D01*
X485591Y277397D01*
X491589Y276398D02*
Y282396D01*
X493589Y280396D01*
X495588Y282396D01*
Y276398D01*
X497587D02*
Y282396D01*
X499587Y280396D01*
X501586Y282396D01*
Y276398D01*
X504585Y275398D02*
X505585Y276398D01*
Y277397D01*
X504585D01*
Y276398D01*
X505585D01*
X504585Y275398D01*
X503585Y274398D01*
X519580Y281396D02*
X518580Y282396D01*
X516581D01*
X515582Y281396D01*
Y280396D01*
X516581Y279397D01*
X518580D01*
X519580Y278397D01*
Y277397D01*
X518580Y276398D01*
X516581D01*
X515582Y277397D01*
X524579Y282396D02*
X522579D01*
X521580Y281396D01*
Y277397D01*
X522579Y276398D01*
X524579D01*
X525578Y277397D01*
Y281396D01*
X524579Y282396D01*
X527578D02*
Y276398D01*
X531576D01*
X533576Y282396D02*
Y276398D01*
X536575D01*
X537574Y277397D01*
Y281396D01*
X536575Y282396D01*
X533576D01*
X543572D02*
X539574D01*
Y276398D01*
X543572D01*
X539574Y279397D02*
X541573D01*
X545572Y276398D02*
Y282396D01*
X548571D01*
X549571Y281396D01*
Y279397D01*
X548571Y278397D01*
X545572D01*
X547571D02*
X549571Y276398D01*
X557568D02*
Y282396D01*
X559567Y280396D01*
X561567Y282396D01*
Y276398D01*
X563566D02*
Y280396D01*
X565565Y282396D01*
X567565Y280396D01*
Y276398D01*
Y279397D01*
X563566D01*
X573563Y281396D02*
X572563Y282396D01*
X570564D01*
X569564Y281396D01*
Y280396D01*
X570564Y279397D01*
X572563D01*
X573563Y278397D01*
Y277397D01*
X572563Y276398D01*
X570564D01*
X569564Y277397D01*
X575562Y282396D02*
Y276398D01*
Y278397D01*
X579561Y282396D01*
X576562Y279397D01*
X579561Y276398D01*
X590557Y282396D02*
X588558D01*
X587558Y281396D01*
Y277397D01*
X588558Y276398D01*
X590557D01*
X591557Y277397D01*
Y281396D01*
X590557Y282396D01*
X593556Y276398D02*
Y282396D01*
X596555D01*
X597555Y281396D01*
Y279397D01*
X596555Y278397D01*
X593556D01*
X603553Y282396D02*
X599554D01*
Y276398D01*
X603553D01*
X599554Y279397D02*
X601554D01*
X605552Y276398D02*
Y282396D01*
X609551Y276398D01*
Y282396D01*
X611550D02*
X613550D01*
X612550D01*
Y276398D01*
X611550D01*
X613550D01*
X616549D02*
Y282396D01*
X620547Y276398D01*
Y282396D01*
X626546Y281396D02*
X625546Y282396D01*
X623547D01*
X622547Y281396D01*
Y277397D01*
X623547Y276398D01*
X625546D01*
X626546Y277397D01*
Y279397D01*
X624546D01*
X634543Y276398D02*
Y280396D01*
X636542Y282396D01*
X638542Y280396D01*
Y276398D01*
Y279397D01*
X634543D01*
X640541Y282396D02*
X644540D01*
X642540D01*
Y276398D01*
X652537Y282396D02*
Y276398D01*
X656536D01*
X662534Y282396D02*
X658535D01*
Y276398D01*
X662534D01*
X658535Y279397D02*
X660535D01*
X664533Y276398D02*
Y280396D01*
X666533Y282396D01*
X668532Y280396D01*
Y276398D01*
Y279397D01*
X664533D01*
X674530Y281396D02*
X673530Y282396D01*
X671531D01*
X670531Y281396D01*
Y280396D01*
X671531Y279397D01*
X673530D01*
X674530Y278397D01*
Y277397D01*
X673530Y276398D01*
X671531D01*
X670531Y277397D01*
X676529Y282396D02*
X680528D01*
X678529D01*
Y276398D01*
X688525D02*
X690525D01*
X689525D01*
Y282396D01*
X688525Y281396D01*
X693524Y276398D02*
Y282396D01*
X695523Y280396D01*
X697523Y282396D01*
Y276398D01*
X699522D02*
Y282396D01*
X701521Y280396D01*
X703521Y282396D01*
Y276398D01*
X715517Y281396D02*
X714517Y282396D01*
X712518D01*
X711518Y281396D01*
Y277397D01*
X712518Y276398D01*
X714517D01*
X715517Y277397D01*
Y279397D01*
X713517D01*
X717516Y276398D02*
Y282396D01*
X720515D01*
X721515Y281396D01*
Y279397D01*
X720515Y278397D01*
X717516D01*
X719516D02*
X721515Y276398D01*
X727513Y282396D02*
X723514D01*
Y276398D01*
X727513D01*
X723514Y279397D02*
X725514D01*
X729512Y276398D02*
Y280396D01*
X731512Y282396D01*
X733511Y280396D01*
Y276398D01*
Y279397D01*
X729512D01*
X735510Y282396D02*
X739509D01*
X737510D01*
Y276398D01*
X745507Y282396D02*
X741508D01*
Y276398D01*
X745507D01*
X741508Y279397D02*
X743508D01*
X747506Y276398D02*
Y282396D01*
X750505D01*
X751505Y281396D01*
Y279397D01*
X750505Y278397D01*
X747506D01*
X749506D02*
X751505Y276398D01*
X759503Y282396D02*
X763501D01*
X761502D01*
Y276398D01*
X765501Y282396D02*
Y276398D01*
Y279397D01*
X769499D01*
Y282396D01*
Y276398D01*
X771499D02*
Y280396D01*
X773498Y282396D01*
X775497Y280396D01*
Y276398D01*
Y279397D01*
X771499D01*
X777497Y276398D02*
Y282396D01*
X781495Y276398D01*
Y282396D01*
X793492D02*
X789493D01*
Y279397D01*
X791492D01*
X789493D01*
Y276398D01*
X795491Y282396D02*
X797490D01*
X796491D01*
Y276398D01*
X795491D01*
X797490D01*
X800489Y282396D02*
Y276398D01*
X803488D01*
X804488Y277397D01*
Y281396D01*
X803488Y282396D01*
X800489D01*
X806487D02*
Y277397D01*
X807487Y276398D01*
X809486D01*
X810486Y277397D01*
Y282396D01*
X816484Y281396D02*
X815484Y282396D01*
X813485D01*
X812485Y281396D01*
Y277397D01*
X813485Y276398D01*
X815484D01*
X816484Y277397D01*
X818484Y282396D02*
X820483D01*
X819483D01*
Y276398D01*
X818484D01*
X820483D01*
X823482D02*
Y280396D01*
X825481Y282396D01*
X827481Y280396D01*
Y276398D01*
Y279397D01*
X823482D01*
X829480Y282396D02*
Y276398D01*
X833479D01*
X337948Y292238D02*
X333949D01*
Y289239D01*
X335948Y290239D01*
X336948D01*
X337948Y289239D01*
Y287240D01*
X336948Y286240D01*
X334948D01*
X333949Y287240D01*
X339947Y286240D02*
Y287240D01*
X340947D01*
Y286240D01*
X339947D01*
X350943D02*
Y292238D01*
X353942D01*
X354942Y291239D01*
Y289239D01*
X353942Y288240D01*
X350943D01*
X356941Y286240D02*
Y290239D01*
X358941Y292238D01*
X360940Y290239D01*
Y286240D01*
Y289239D01*
X356941D01*
X362939Y286240D02*
Y292238D01*
X366938Y286240D01*
Y292238D01*
X372936D02*
X368937D01*
Y286240D01*
X372936D01*
X368937Y289239D02*
X370937D01*
X374936Y292238D02*
Y286240D01*
X378934D01*
X380934Y292238D02*
X382933D01*
X381933D01*
Y286240D01*
X380934D01*
X382933D01*
X385932Y292238D02*
X389931D01*
Y291239D01*
X385932Y287240D01*
Y286240D01*
X389931D01*
X395929Y292238D02*
X391930D01*
Y286240D01*
X395929D01*
X391930Y289239D02*
X393929D01*
X403926Y292238D02*
X407925D01*
X405926D01*
Y286240D01*
X409924Y292238D02*
Y286240D01*
Y289239D01*
X413923D01*
Y292238D01*
Y286240D01*
X419921Y292238D02*
X415922D01*
Y286240D01*
X419921D01*
X415922Y289239D02*
X417922D01*
X427918Y292238D02*
Y286240D01*
X430918D01*
X431917Y287240D01*
Y288240D01*
X430918Y289239D01*
X427918D01*
X430918D01*
X431917Y290239D01*
Y291239D01*
X430918Y292238D01*
X427918D01*
X436915D02*
X434916D01*
X433917Y291239D01*
Y287240D01*
X434916Y286240D01*
X436915D01*
X437915Y287240D01*
Y291239D01*
X436915Y292238D01*
X439915Y286240D02*
Y290239D01*
X441914Y292238D01*
X443913Y290239D01*
Y286240D01*
Y289239D01*
X439915D01*
X445913Y286240D02*
Y292238D01*
X448912D01*
X449911Y291239D01*
Y289239D01*
X448912Y288240D01*
X445913D01*
X447912D02*
X449911Y286240D01*
X451911Y292238D02*
Y286240D01*
X454910D01*
X455909Y287240D01*
Y291239D01*
X454910Y292238D01*
X451911D01*
X465906Y286240D02*
X463907Y288240D01*
Y290239D01*
X465906Y292238D01*
X471904Y286240D02*
Y292238D01*
X468905Y289239D01*
X472904D01*
X474903Y286240D02*
Y292238D01*
X477902D01*
X478902Y291239D01*
Y289239D01*
X477902Y288240D01*
X474903D01*
X484900Y291239D02*
X483900Y292238D01*
X481901D01*
X480901Y291239D01*
Y287240D01*
X481901Y286240D01*
X483900D01*
X484900Y287240D01*
X490898Y291239D02*
X489898Y292238D01*
X487899D01*
X486899Y291239D01*
Y290239D01*
X487899Y289239D01*
X489898D01*
X490898Y288240D01*
Y287240D01*
X489898Y286240D01*
X487899D01*
X486899Y287240D01*
X498896Y286240D02*
Y292238D01*
X501895D01*
X502894Y291239D01*
Y289239D01*
X501895Y288240D01*
X498896D01*
X508892Y292238D02*
X504893D01*
Y286240D01*
X508892D01*
X504893Y289239D02*
X506893D01*
X510892Y286240D02*
Y292238D01*
X513891D01*
X514890Y291239D01*
Y289239D01*
X513891Y288240D01*
X510892D01*
X512891D02*
X514890Y286240D01*
X522888D02*
Y292238D01*
X525887D01*
X526886Y291239D01*
Y289239D01*
X525887Y288240D01*
X522888D01*
X528886Y286240D02*
Y290239D01*
X530885Y292238D01*
X532885Y290239D01*
Y286240D01*
Y289239D01*
X528886D01*
X534884Y286240D02*
Y292238D01*
X538882Y286240D01*
Y292238D01*
X544881D02*
X540882D01*
Y286240D01*
X544881D01*
X540882Y289239D02*
X542881D01*
X546880Y292238D02*
Y286240D01*
X550879D01*
X552878D02*
X554877Y288240D01*
Y290239D01*
X552878Y292238D01*
X557876Y286240D02*
Y287240D01*
X558876D01*
Y286240D01*
X557876D01*
X568873D02*
Y292238D01*
X571872D01*
X572871Y291239D01*
Y289239D01*
X571872Y288240D01*
X568873D01*
X574871Y292238D02*
Y286240D01*
X578870D01*
X580869D02*
Y290239D01*
X582868Y292238D01*
X584868Y290239D01*
Y286240D01*
Y289239D01*
X580869D01*
X590866Y291239D02*
X589866Y292238D01*
X587867D01*
X586867Y291239D01*
Y287240D01*
X587867Y286240D01*
X589866D01*
X590866Y287240D01*
X596864Y292238D02*
X592865D01*
Y286240D01*
X596864D01*
X592865Y289239D02*
X594864D01*
X608860Y292238D02*
X604861D01*
Y289239D01*
X606860D01*
X604861D01*
Y286240D01*
X610859Y292238D02*
X612859D01*
X611859D01*
Y286240D01*
X610859D01*
X612859D01*
X615858Y292238D02*
Y286240D01*
X618857D01*
X619856Y287240D01*
Y291239D01*
X618857Y292238D01*
X615858D01*
X621856D02*
Y287240D01*
X622855Y286240D01*
X624855D01*
X625854Y287240D01*
Y292238D01*
X631852Y291239D02*
X630853Y292238D01*
X628853D01*
X627854Y291239D01*
Y287240D01*
X628853Y286240D01*
X630853D01*
X631852Y287240D01*
X633852Y292238D02*
X635851D01*
X634852D01*
Y286240D01*
X633852D01*
X635851D01*
X638850D02*
Y290239D01*
X640849Y292238D01*
X642849Y290239D01*
Y286240D01*
Y289239D01*
X638850D01*
X644848Y292238D02*
Y286240D01*
X648847D01*
X654845Y291239D02*
X653845Y292238D01*
X651846D01*
X650846Y291239D01*
Y290239D01*
X651846Y289239D01*
X653845D01*
X654845Y288240D01*
Y287240D01*
X653845Y286240D01*
X651846D01*
X650846Y287240D01*
X665841Y292238D02*
X663842D01*
X662842Y291239D01*
Y287240D01*
X663842Y286240D01*
X665841D01*
X666841Y287240D01*
Y291239D01*
X665841Y292238D01*
X668841Y286240D02*
Y292238D01*
X672839Y286240D01*
Y292238D01*
X680837D02*
X684835D01*
X682836D01*
Y286240D01*
X686835Y292238D02*
Y286240D01*
Y289239D01*
X690833D01*
Y292238D01*
Y286240D01*
X696831Y292238D02*
X692833D01*
Y286240D01*
X696831D01*
X692833Y289239D02*
X694832D01*
X704829Y286240D02*
Y292238D01*
X707828D01*
X708827Y291239D01*
Y289239D01*
X707828Y288240D01*
X704829D01*
X710827Y286240D02*
Y290239D01*
X712826Y292238D01*
X714826Y290239D01*
Y286240D01*
Y289239D01*
X710827D01*
X716825Y286240D02*
Y292238D01*
X720824Y286240D01*
Y292238D01*
X726822D02*
X722823D01*
Y286240D01*
X726822D01*
X722823Y289239D02*
X724822D01*
X728821Y292238D02*
Y286240D01*
X732820D01*
X744816Y291239D02*
X743816Y292238D01*
X741817D01*
X740817Y291239D01*
Y290239D01*
X741817Y289239D01*
X743816D01*
X744816Y288240D01*
Y287240D01*
X743816Y286240D01*
X741817D01*
X740817Y287240D01*
X746815Y292238D02*
X750814D01*
X748815D01*
Y286240D01*
X752813D02*
Y292238D01*
X755812D01*
X756812Y291239D01*
Y289239D01*
X755812Y288240D01*
X752813D01*
X754813D02*
X756812Y286240D01*
X758811Y292238D02*
X760811D01*
X759811D01*
Y286240D01*
X758811D01*
X760811D01*
X763810D02*
Y292238D01*
X766809D01*
X767808Y291239D01*
Y289239D01*
X766809Y288240D01*
X763810D01*
X773806Y291239D02*
X772807Y292238D01*
X770808D01*
X769808Y291239D01*
Y290239D01*
X770808Y289239D01*
X772807D01*
X773806Y288240D01*
Y287240D01*
X772807Y286240D01*
X770808D01*
X769808Y287240D01*
X781804Y286240D02*
Y290239D01*
X783803Y292238D01*
X785803Y290239D01*
Y286240D01*
Y289239D01*
X781804D01*
X791801Y291239D02*
X790801Y292238D01*
X788802D01*
X787802Y291239D01*
Y290239D01*
X788802Y289239D01*
X790801D01*
X791801Y288240D01*
Y287240D01*
X790801Y286240D01*
X788802D01*
X787802Y287240D01*
X803797Y292238D02*
X799798D01*
Y289239D01*
X801797D01*
X799798D01*
Y286240D01*
X808795Y292238D02*
X806796D01*
X805796Y291239D01*
Y287240D01*
X806796Y286240D01*
X808795D01*
X809795Y287240D01*
Y291239D01*
X808795Y292238D01*
X811794D02*
Y286240D01*
X815793D01*
X817792Y292238D02*
Y286240D01*
X821791D01*
X826789Y292238D02*
X824790D01*
X823790Y291239D01*
Y287240D01*
X824790Y286240D01*
X826789D01*
X827789Y287240D01*
Y291239D01*
X826789Y292238D01*
X829788D02*
Y286240D01*
X831788Y288240D01*
X833787Y286240D01*
Y292238D01*
X839785Y291239D02*
X838785Y292238D01*
X836786D01*
X835787Y291239D01*
Y290239D01*
X836786Y289239D01*
X838785D01*
X839785Y288240D01*
Y287240D01*
X838785Y286240D01*
X836786D01*
X835787Y287240D01*
X841784Y290239D02*
X842784D01*
Y289239D01*
X841784D01*
Y290239D01*
Y287240D02*
X842784D01*
Y286240D01*
X841784D01*
Y287240D01*
X333949Y420191D02*
Y414193D01*
X336948D01*
X337948Y415193D01*
Y416192D01*
X336948Y417192D01*
X333949D01*
X336948D01*
X337948Y418192D01*
Y419191D01*
X336948Y420191D01*
X333949D01*
X340947Y414193D02*
X342946D01*
X343946Y415193D01*
Y417192D01*
X342946Y418192D01*
X340947D01*
X339947Y417192D01*
Y415193D01*
X340947Y414193D01*
X346945Y418192D02*
X348944D01*
X349944Y417192D01*
Y414193D01*
X346945D01*
X345945Y415193D01*
X346945Y416192D01*
X349944D01*
X351943Y418192D02*
Y414193D01*
Y416192D01*
X352943Y417192D01*
X353942Y418192D01*
X354942D01*
X361940Y420191D02*
Y414193D01*
X358941D01*
X357941Y415193D01*
Y417192D01*
X358941Y418192D01*
X361940D01*
X369937Y414193D02*
X371936D01*
X370937D01*
Y418192D01*
X369937D01*
X374936Y414193D02*
Y418192D01*
X377935D01*
X378934Y417192D01*
Y414193D01*
X381933D02*
Y419191D01*
Y417192D01*
X380934D01*
X382933D01*
X381933D01*
Y419191D01*
X382933Y420191D01*
X386932Y414193D02*
X388931D01*
X389931Y415193D01*
Y417192D01*
X388931Y418192D01*
X386932D01*
X385932Y417192D01*
Y415193D01*
X386932Y414193D01*
X333949Y404350D02*
Y410349D01*
X335948Y408349D01*
X337948Y410349D01*
Y404350D01*
X339947D02*
X341946D01*
X340947D01*
Y408349D01*
X339947D01*
X344945Y404350D02*
Y408349D01*
X347944D01*
X348944Y407349D01*
Y404350D01*
X350943D02*
X352943D01*
X351943D01*
Y408349D01*
X350943D01*
X355942Y404350D02*
Y408349D01*
X356941D01*
X357941Y407349D01*
Y404350D01*
Y407349D01*
X358941Y408349D01*
X359940Y407349D01*
Y404350D01*
X361940Y408349D02*
Y405350D01*
X362939Y404350D01*
X365938D01*
Y408349D01*
X367938Y404350D02*
Y408349D01*
X368937D01*
X369937Y407349D01*
Y404350D01*
Y407349D01*
X370937Y408349D01*
X371936Y407349D01*
Y404350D01*
X379934Y410349D02*
X383933D01*
X381933D01*
Y404350D01*
X385932Y408349D02*
Y404350D01*
Y406350D01*
X386932Y407349D01*
X387931Y408349D01*
X388931D01*
X392930D02*
X394929D01*
X395929Y407349D01*
Y404350D01*
X392930D01*
X391930Y405350D01*
X392930Y406350D01*
X395929D01*
X401927Y408349D02*
X398928D01*
X397928Y407349D01*
Y405350D01*
X398928Y404350D01*
X401927D01*
X403926D02*
Y410349D01*
Y406350D02*
X406925Y408349D01*
X403926Y406350D02*
X406925Y404350D01*
X409924Y408349D02*
X410924D01*
Y407349D01*
X409924D01*
Y408349D01*
Y405350D02*
X410924D01*
Y404350D01*
X409924D01*
Y405350D01*
X424919Y404350D02*
X420921D01*
X424919Y408349D01*
Y409349D01*
X423920Y410349D01*
X421920D01*
X420921Y409349D01*
X426919D02*
X427918Y410349D01*
X429918D01*
X430918Y409349D01*
Y405350D01*
X429918Y404350D01*
X427918D01*
X426919Y405350D01*
Y409349D01*
X432917D02*
X433917Y410349D01*
X435916D01*
X436915Y409349D01*
Y405350D01*
X435916Y404350D01*
X433917D01*
X432917Y405350D01*
Y409349D01*
X438915Y408349D02*
Y405350D01*
X439915Y404350D01*
X442914D01*
Y408349D01*
X444913Y404350D02*
Y408349D01*
X445913D01*
X446912Y407349D01*
Y404350D01*
Y407349D01*
X447912Y408349D01*
X448912Y407349D01*
Y404350D01*
X458908D02*
X456909Y406350D01*
Y408349D01*
X458908Y410349D01*
X462907Y408349D02*
X464907D01*
X465906Y407349D01*
Y404350D01*
X462907D01*
X461907Y405350D01*
X462907Y406350D01*
X465906D01*
X467906Y408349D02*
Y404350D01*
Y406350D01*
X468905Y407349D01*
X469905Y408349D01*
X470904D01*
X474903Y404350D02*
X476903D01*
X477902Y405350D01*
Y407349D01*
X476903Y408349D01*
X474903D01*
X473904Y407349D01*
Y405350D01*
X474903Y404350D01*
X479902Y408349D02*
Y405350D01*
X480901Y404350D01*
X483900D01*
Y408349D01*
X485900Y404350D02*
Y408349D01*
X488899D01*
X489898Y407349D01*
Y404350D01*
X495896Y410349D02*
Y404350D01*
X492897D01*
X491898Y405350D01*
Y407349D01*
X492897Y408349D01*
X495896D01*
X507893D02*
X504893D01*
X503894Y407349D01*
Y405350D01*
X504893Y404350D01*
X507893D01*
X509892D02*
X511891D01*
X510892D01*
Y410349D01*
X509892D01*
X514890Y404350D02*
Y410349D01*
Y406350D02*
X517889Y408349D01*
X514890Y406350D02*
X517889Y404350D01*
X527886D02*
X529885D01*
X530885Y405350D01*
Y407349D01*
X529885Y408349D01*
X527886D01*
X526886Y407349D01*
Y405350D01*
X527886Y404350D01*
X532885D02*
Y408349D01*
X535884D01*
X536883Y407349D01*
Y404350D01*
X538882D02*
X540882D01*
X539882D01*
Y410349D01*
X538882D01*
X543881Y408349D02*
Y405350D01*
X544881Y404350D01*
X547880D01*
Y403351D01*
X546880Y402351D01*
X545880D01*
X547880Y404350D02*
Y408349D01*
X549879Y404350D02*
X551878Y406350D01*
Y408349D01*
X549879Y410349D01*
X560875Y404350D02*
Y410349D01*
X563874D01*
X564874Y409349D01*
Y407349D01*
X563874Y406350D01*
X560875D01*
X566874Y408349D02*
Y404350D01*
Y406350D01*
X567873Y407349D01*
X568873Y408349D01*
X569873D01*
X575871Y404350D02*
X573871D01*
X572871Y405350D01*
Y407349D01*
X573871Y408349D01*
X575871D01*
X576870Y407349D01*
Y406350D01*
X572871D01*
X579869Y404350D02*
Y409349D01*
Y407349D01*
X578870D01*
X580869D01*
X579869D01*
Y409349D01*
X580869Y410349D01*
X586867Y404350D02*
X584868D01*
X583868Y405350D01*
Y407349D01*
X584868Y408349D01*
X586867D01*
X587867Y407349D01*
Y406350D01*
X583868D01*
X589866Y408349D02*
Y404350D01*
Y406350D01*
X590866Y407349D01*
X591865Y408349D01*
X592865D01*
X598863Y404350D02*
X596864D01*
X595864Y405350D01*
Y407349D01*
X596864Y408349D01*
X598863D01*
X599863Y407349D01*
Y406350D01*
X595864D01*
X605861Y410349D02*
Y404350D01*
X602862D01*
X601862Y405350D01*
Y407349D01*
X602862Y408349D01*
X605861D01*
X614858Y409349D02*
Y408349D01*
X613858D01*
X615858D01*
X614858D01*
Y405350D01*
X615858Y404350D01*
X618857Y408349D02*
Y404350D01*
Y406350D01*
X619856Y407349D01*
X620856Y408349D01*
X621856D01*
X625854D02*
X627854D01*
X628853Y407349D01*
Y404350D01*
X625854D01*
X624855Y405350D01*
X625854Y406350D01*
X628853D01*
X634852Y408349D02*
X631852D01*
X630853Y407349D01*
Y405350D01*
X631852Y404350D01*
X634852D01*
X636851D02*
Y410349D01*
Y406350D02*
X639850Y408349D01*
X636851Y406350D02*
X639850Y404350D01*
X648847Y408349D02*
Y405350D01*
X649847Y404350D01*
X650846Y405350D01*
X651846Y404350D01*
X652846Y405350D01*
Y408349D01*
X654845Y404350D02*
X656844D01*
X655845D01*
Y408349D01*
X654845D01*
X663842Y410349D02*
Y404350D01*
X660843D01*
X659843Y405350D01*
Y407349D01*
X660843Y408349D01*
X663842D01*
X666841Y409349D02*
Y408349D01*
X665841D01*
X667841D01*
X666841D01*
Y405350D01*
X667841Y404350D01*
X670840Y410349D02*
Y404350D01*
Y407349D01*
X671840Y408349D01*
X673839D01*
X674838Y407349D01*
Y404350D01*
X682836Y408349D02*
X683836D01*
Y407349D01*
X682836D01*
Y408349D01*
Y405350D02*
X683836D01*
Y404350D01*
X682836D01*
Y405350D01*
X693832Y409349D02*
X694832Y410349D01*
X696831D01*
X697831Y409349D01*
Y405350D01*
X696831Y404350D01*
X694832D01*
X693832Y405350D01*
Y409349D01*
X699830Y404350D02*
Y405350D01*
X700830D01*
Y404350D01*
X699830D01*
X704829Y409349D02*
X705829Y410349D01*
X707828D01*
X708827Y409349D01*
Y408349D01*
X707828Y407349D01*
X706828D01*
X707828D01*
X708827Y406350D01*
Y405350D01*
X707828Y404350D01*
X705829D01*
X704829Y405350D01*
X710827Y404350D02*
Y408349D01*
X711827D01*
X712826Y407349D01*
Y404350D01*
Y407349D01*
X713826Y408349D01*
X714826Y407349D01*
Y404350D01*
X716825D02*
Y408349D01*
X717825D01*
X718824Y407349D01*
Y404350D01*
Y407349D01*
X719824Y408349D01*
X720824Y407349D01*
Y404350D01*
X333949Y394508D02*
Y400506D01*
X335948Y398507D01*
X337948Y400506D01*
Y394508D01*
X339947D02*
X341946D01*
X340947D01*
Y398507D01*
X339947D01*
X344945Y394508D02*
Y398507D01*
X347944D01*
X348944Y397507D01*
Y394508D01*
X350943D02*
X352943D01*
X351943D01*
Y398507D01*
X350943D01*
X355942Y394508D02*
Y398507D01*
X356941D01*
X357941Y397507D01*
Y394508D01*
Y397507D01*
X358941Y398507D01*
X359940Y397507D01*
Y394508D01*
X361940Y398507D02*
Y395508D01*
X362939Y394508D01*
X365938D01*
Y398507D01*
X367938Y394508D02*
Y398507D01*
X368937D01*
X369937Y397507D01*
Y394508D01*
Y397507D01*
X370937Y398507D01*
X371936Y397507D01*
Y394508D01*
X379934Y400506D02*
X383933D01*
X381933D01*
Y394508D01*
X385932Y398507D02*
Y394508D01*
Y396507D01*
X386932Y397507D01*
X387931Y398507D01*
X388931D01*
X392930D02*
X394929D01*
X395929Y397507D01*
Y394508D01*
X392930D01*
X391930Y395508D01*
X392930Y396507D01*
X395929D01*
X401927Y398507D02*
X398928D01*
X397928Y397507D01*
Y395508D01*
X398928Y394508D01*
X401927D01*
X403926D02*
Y400506D01*
Y396507D02*
X406925Y398507D01*
X403926Y396507D02*
X406925Y394508D01*
X416922Y398507D02*
X418921D01*
X419921Y397507D01*
Y394508D01*
X416922D01*
X415922Y395508D01*
X416922Y396507D01*
X419921D01*
X421920Y394508D02*
Y398507D01*
X424919D01*
X425919Y397507D01*
Y394508D01*
X431917Y400506D02*
Y394508D01*
X428918D01*
X427918Y395508D01*
Y397507D01*
X428918Y398507D01*
X431917D01*
X443913Y399506D02*
X442914Y400506D01*
X440914D01*
X439915Y399506D01*
Y395508D01*
X440914Y394508D01*
X442914D01*
X443913Y395508D01*
X446912Y394508D02*
X448912D01*
X449911Y395508D01*
Y397507D01*
X448912Y398507D01*
X446912D01*
X445913Y397507D01*
Y395508D01*
X446912Y394508D01*
X451911D02*
Y398507D01*
X452910D01*
X453910Y397507D01*
Y394508D01*
Y397507D01*
X454910Y398507D01*
X455909Y397507D01*
Y394508D01*
X457909Y392509D02*
Y398507D01*
X460908D01*
X461907Y397507D01*
Y395508D01*
X460908Y394508D01*
X457909D01*
X464907D02*
X466906D01*
X467906Y395508D01*
Y397507D01*
X466906Y398507D01*
X464907D01*
X463907Y397507D01*
Y395508D01*
X464907Y394508D01*
X469905D02*
Y398507D01*
X472904D01*
X473904Y397507D01*
Y394508D01*
X478902D02*
X476903D01*
X475903Y395508D01*
Y397507D01*
X476903Y398507D01*
X478902D01*
X479902Y397507D01*
Y396507D01*
X475903D01*
X481901Y394508D02*
Y398507D01*
X484900D01*
X485900Y397507D01*
Y394508D01*
X488899Y399506D02*
Y398507D01*
X487899D01*
X489898D01*
X488899D01*
Y395508D01*
X489898Y394508D01*
X502894Y399506D02*
X501895Y400506D01*
X499895D01*
X498896Y399506D01*
Y395508D01*
X499895Y394508D01*
X501895D01*
X502894Y395508D01*
X504893Y394508D02*
X506893D01*
X505893D01*
Y400506D01*
X504893D01*
X512891Y394508D02*
X510892D01*
X509892Y395508D01*
Y397507D01*
X510892Y398507D01*
X512891D01*
X513891Y397507D01*
Y396507D01*
X509892D01*
X516890Y398507D02*
X518889D01*
X519889Y397507D01*
Y394508D01*
X516890D01*
X515890Y395508D01*
X516890Y396507D01*
X519889D01*
X521888Y398507D02*
Y394508D01*
Y396507D01*
X522888Y397507D01*
X523887Y398507D01*
X524887D01*
X528886D02*
X530885D01*
X531885Y397507D01*
Y394508D01*
X528886D01*
X527886Y395508D01*
X528886Y396507D01*
X531885D01*
X533884Y394508D02*
Y398507D01*
X536883D01*
X537883Y397507D01*
Y394508D01*
X543881Y398507D02*
X540882D01*
X539882Y397507D01*
Y395508D01*
X540882Y394508D01*
X543881D01*
X548879D02*
X546880D01*
X545880Y395508D01*
Y397507D01*
X546880Y398507D01*
X548879D01*
X549879Y397507D01*
Y396507D01*
X545880D01*
X551878Y398507D02*
X552878D01*
Y397507D01*
X551878D01*
Y398507D01*
Y395508D02*
X552878D01*
Y394508D01*
X551878D01*
Y395508D01*
X566874Y394508D02*
X562875D01*
X566874Y398507D01*
Y399506D01*
X565874Y400506D01*
X563874D01*
X562875Y399506D01*
X568873D02*
X569873Y400506D01*
X571872D01*
X572871Y399506D01*
Y395508D01*
X571872Y394508D01*
X569873D01*
X568873Y395508D01*
Y399506D01*
X574871D02*
X575871Y400506D01*
X577870D01*
X578870Y399506D01*
Y395508D01*
X577870Y394508D01*
X575871D01*
X574871Y395508D01*
Y399506D01*
X580869Y398507D02*
Y395508D01*
X581869Y394508D01*
X584868D01*
Y398507D01*
X586867Y394508D02*
Y398507D01*
X587867D01*
X588866Y397507D01*
Y394508D01*
Y397507D01*
X589866Y398507D01*
X590866Y397507D01*
Y394508D01*
X333949Y384665D02*
Y390663D01*
X335948Y388664D01*
X337948Y390663D01*
Y384665D01*
X339947D02*
X341946D01*
X340947D01*
Y388664D01*
X339947D01*
X344945Y384665D02*
Y388664D01*
X347944D01*
X348944Y387664D01*
Y384665D01*
X350943D02*
X352943D01*
X351943D01*
Y388664D01*
X350943D01*
X355942Y384665D02*
Y388664D01*
X356941D01*
X357941Y387664D01*
Y384665D01*
Y387664D01*
X358941Y388664D01*
X359940Y387664D01*
Y384665D01*
X361940Y388664D02*
Y385665D01*
X362939Y384665D01*
X365938D01*
Y388664D01*
X367938Y384665D02*
Y388664D01*
X368937D01*
X369937Y387664D01*
Y384665D01*
Y387664D01*
X370937Y388664D01*
X371936Y387664D01*
Y384665D01*
X379934Y390663D02*
X383933D01*
X381933D01*
Y384665D01*
X385932Y390663D02*
Y384665D01*
Y387664D01*
X386932Y388664D01*
X388931D01*
X389931Y387664D01*
Y384665D01*
X391930Y388664D02*
Y384665D01*
Y386665D01*
X392930Y387664D01*
X393929Y388664D01*
X394929D01*
X398928Y384665D02*
X400927D01*
X401927Y385665D01*
Y387664D01*
X400927Y388664D01*
X398928D01*
X397928Y387664D01*
Y385665D01*
X398928Y384665D01*
X403926Y388664D02*
Y385665D01*
X404926Y384665D01*
X407925D01*
Y388664D01*
X411924Y382666D02*
X412923D01*
X413923Y383666D01*
Y388664D01*
X410924D01*
X409924Y387664D01*
Y385665D01*
X410924Y384665D01*
X413923D01*
X415922Y390663D02*
Y384665D01*
Y387664D01*
X416922Y388664D01*
X418921D01*
X419921Y387664D01*
Y384665D01*
X427918Y390663D02*
Y384665D01*
Y387664D01*
X431917D01*
Y390663D01*
Y384665D01*
X434916D02*
X436915D01*
X437915Y385665D01*
Y387664D01*
X436915Y388664D01*
X434916D01*
X433917Y387664D01*
Y385665D01*
X434916Y384665D01*
X439915D02*
X441914D01*
X440914D01*
Y390663D01*
X439915D01*
X447912Y384665D02*
X445913D01*
X444913Y385665D01*
Y387664D01*
X445913Y388664D01*
X447912D01*
X448912Y387664D01*
Y386665D01*
X444913D01*
X456909Y390663D02*
Y386665D01*
X458908Y384665D01*
X460908Y386665D01*
Y390663D01*
X462907D02*
X464907D01*
X463907D01*
Y384665D01*
X462907D01*
X464907D01*
X467906D02*
Y388664D01*
X469905Y390663D01*
X471904Y388664D01*
Y384665D01*
Y387664D01*
X467906D01*
X473904Y388664D02*
X474903D01*
Y387664D01*
X473904D01*
Y388664D01*
Y385665D02*
X474903D01*
Y384665D01*
X473904D01*
Y385665D01*
X484900Y389664D02*
X485900Y390663D01*
X487899D01*
X488899Y389664D01*
Y385665D01*
X487899Y384665D01*
X485900D01*
X484900Y385665D01*
Y389664D01*
X490898Y384665D02*
Y385665D01*
X491898D01*
Y384665D01*
X490898D01*
X499895Y390663D02*
X497896Y389664D01*
X495896Y387664D01*
Y385665D01*
X496896Y384665D01*
X498895D01*
X499895Y385665D01*
Y386665D01*
X498895Y387664D01*
X495896D01*
X501895Y384665D02*
Y388664D01*
X502894D01*
X503894Y387664D01*
Y384665D01*
Y387664D01*
X504893Y388664D01*
X505893Y387664D01*
Y384665D01*
X507893D02*
Y388664D01*
X508892D01*
X509892Y387664D01*
Y384665D01*
Y387664D01*
X510892Y388664D01*
X511891Y387664D01*
Y384665D01*
X521888D02*
X519889Y386665D01*
Y388664D01*
X521888Y390663D01*
X524887Y382666D02*
Y388664D01*
X527886D01*
X528886Y387664D01*
Y385665D01*
X527886Y384665D01*
X524887D01*
X531885Y388664D02*
X533884D01*
X534884Y387664D01*
Y384665D01*
X531885D01*
X530885Y385665D01*
X531885Y386665D01*
X534884D01*
X540882Y390663D02*
Y384665D01*
X537883D01*
X536883Y385665D01*
Y387664D01*
X537883Y388664D01*
X540882D01*
X542881Y384665D02*
X544881Y386665D01*
Y388664D01*
X542881Y390663D01*
X553878Y384665D02*
X557876Y388664D01*
X565874Y389664D02*
X566874Y390663D01*
X568873D01*
X569873Y389664D01*
Y385665D01*
X568873Y384665D01*
X566874D01*
X565874Y385665D01*
Y389664D01*
X571872Y384665D02*
Y385665D01*
X572871D01*
Y384665D01*
X571872D01*
X576870Y389664D02*
X577870Y390663D01*
X579869D01*
X580869Y389664D01*
Y388664D01*
X579869Y387664D01*
X578870D01*
X579869D01*
X580869Y386665D01*
Y385665D01*
X579869Y384665D01*
X577870D01*
X576870Y385665D01*
X582868Y384665D02*
Y388664D01*
X583868D01*
X584868Y387664D01*
Y384665D01*
Y387664D01*
X585867Y388664D01*
X586867Y387664D01*
Y384665D01*
X588866D02*
Y388664D01*
X589866D01*
X590866Y387664D01*
Y384665D01*
Y387664D01*
X591865Y388664D01*
X592865Y387664D01*
Y384665D01*
X602862D02*
X600863Y386665D01*
Y388664D01*
X602862Y390663D01*
X609860D02*
Y384665D01*
X606860D01*
X605861Y385665D01*
Y387664D01*
X606860Y388664D01*
X609860D01*
X611859D02*
Y384665D01*
Y386665D01*
X612859Y387664D01*
X613858Y388664D01*
X614858D01*
X617857Y384665D02*
X619856D01*
X618857D01*
Y388664D01*
X617857D01*
X622855Y384665D02*
X624855D01*
X623855D01*
Y390663D01*
X622855D01*
X627854Y384665D02*
X629853D01*
X628853D01*
Y390663D01*
X627854D01*
X632852Y384665D02*
X634852Y386665D01*
Y388664D01*
X632852Y390663D01*
X637851Y384665D02*
Y385665D01*
X638850D01*
Y384665D01*
X637851D01*
X648847Y390663D02*
Y384665D01*
X651846D01*
X652846Y385665D01*
Y389664D01*
X651846Y390663D01*
X648847D01*
X654845Y388664D02*
Y384665D01*
Y386665D01*
X655845Y387664D01*
X656844Y388664D01*
X657844D01*
X660843Y384665D02*
X662842D01*
X661843D01*
Y388664D01*
X660843D01*
X665841Y384665D02*
X667841D01*
X666841D01*
Y390663D01*
X665841D01*
X670840Y384665D02*
X672839D01*
X671840D01*
Y390663D01*
X670840D01*
X675838Y384665D02*
X677838D01*
X676838D01*
Y388664D01*
X675838D01*
X680837Y384665D02*
Y388664D01*
X683836D01*
X684835Y387664D01*
Y384665D01*
X688834Y382666D02*
X689834D01*
X690833Y383666D01*
Y388664D01*
X687834D01*
X686835Y387664D01*
Y385665D01*
X687834Y384665D01*
X690833D01*
X692833Y388664D02*
X693832D01*
Y387664D01*
X692833D01*
Y388664D01*
Y385665D02*
X693832D01*
Y384665D01*
X692833D01*
Y385665D01*
X703829Y390663D02*
Y384665D01*
X707828D01*
X709827D02*
X711827D01*
X710827D01*
Y390663D01*
X709827Y389664D01*
X714826Y387664D02*
X718824D01*
X720824Y390663D02*
Y384665D01*
X724822D01*
X730820D02*
X726822D01*
X730820Y388664D01*
Y389664D01*
X729821Y390663D01*
X727821D01*
X726822Y389664D01*
X333949Y364980D02*
X335948D01*
X334948D01*
Y370978D01*
X333949Y369979D01*
X338947Y364980D02*
Y365980D01*
X339947D01*
Y364980D01*
X338947D01*
X353942Y370978D02*
X349944D01*
Y367979D01*
X351943D01*
X349944D01*
Y364980D01*
X355942Y370978D02*
X357941D01*
X356941D01*
Y364980D01*
X355942D01*
X357941D01*
X360940D02*
Y370978D01*
X364939Y364980D01*
Y370978D01*
X366938D02*
X368937D01*
X367938D01*
Y364980D01*
X366938D01*
X368937D01*
X375935Y369979D02*
X374936Y370978D01*
X372936D01*
X371936Y369979D01*
Y368979D01*
X372936Y367979D01*
X374936D01*
X375935Y366980D01*
Y365980D01*
X374936Y364980D01*
X372936D01*
X371936Y365980D01*
X377935Y370978D02*
Y364980D01*
Y367979D01*
X381933D01*
Y370978D01*
Y364980D01*
X387931Y370978D02*
X383933D01*
Y364980D01*
X387931D01*
X383933Y367979D02*
X385932D01*
X389931Y370978D02*
Y364980D01*
X392930D01*
X393929Y365980D01*
Y369979D01*
X392930Y370978D01*
X389931D01*
X401927Y364980D02*
Y370978D01*
X404926D01*
X405926Y369979D01*
Y367979D01*
X404926Y366980D01*
X401927D01*
X407925Y364980D02*
Y368979D01*
X409924Y370978D01*
X411924Y368979D01*
Y364980D01*
Y367979D01*
X407925D01*
X413923Y364980D02*
Y370978D01*
X417922Y364980D01*
Y370978D01*
X423920D02*
X419921D01*
Y364980D01*
X423920D01*
X419921Y367979D02*
X421920D01*
X425919Y370978D02*
Y364980D01*
X429918D01*
X437915Y370978D02*
X441914D01*
X439915D01*
Y364980D01*
X443913Y370978D02*
Y364980D01*
Y367979D01*
X447912D01*
Y370978D01*
Y364980D01*
X449911Y370978D02*
X451911D01*
X450911D01*
Y364980D01*
X449911D01*
X451911D01*
X458908Y369979D02*
X457909Y370978D01*
X455909D01*
X454910Y369979D01*
Y365980D01*
X455909Y364980D01*
X457909D01*
X458908Y365980D01*
X460908Y370978D02*
Y364980D01*
Y366980D01*
X464907Y370978D01*
X461907Y367979D01*
X464907Y364980D01*
X466906D02*
Y370978D01*
X470904Y364980D01*
Y370978D01*
X476903D02*
X472904D01*
Y364980D01*
X476903D01*
X472904Y367979D02*
X474903D01*
X482901Y369979D02*
X481901Y370978D01*
X479902D01*
X478902Y369979D01*
Y368979D01*
X479902Y367979D01*
X481901D01*
X482901Y366980D01*
Y365980D01*
X481901Y364980D01*
X479902D01*
X478902Y365980D01*
X488899Y369979D02*
X487899Y370978D01*
X485900D01*
X484900Y369979D01*
Y368979D01*
X485900Y367979D01*
X487899D01*
X488899Y366980D01*
Y365980D01*
X487899Y364980D01*
X485900D01*
X484900Y365980D01*
X496896Y370978D02*
X498895D01*
X497896D01*
Y364980D01*
X496896D01*
X498895D01*
X505893Y369979D02*
X504893Y370978D01*
X502894D01*
X501895Y369979D01*
Y368979D01*
X502894Y367979D01*
X504893D01*
X505893Y366980D01*
Y365980D01*
X504893Y364980D01*
X502894D01*
X501895Y365980D01*
X513891Y364980D02*
Y370978D01*
X517889Y364980D01*
Y370978D01*
X522888D02*
X520888D01*
X519889Y369979D01*
Y365980D01*
X520888Y364980D01*
X522888D01*
X523887Y365980D01*
Y369979D01*
X522888Y370978D01*
X525887D02*
X529885D01*
X527886D01*
Y364980D01*
X541882Y369979D02*
X540882Y370978D01*
X538882D01*
X537883Y369979D01*
Y365980D01*
X538882Y364980D01*
X540882D01*
X541882Y365980D01*
X543881Y364980D02*
Y370978D01*
X546880D01*
X547880Y369979D01*
Y367979D01*
X546880Y366980D01*
X543881D01*
X545880D02*
X547880Y364980D01*
X549879Y370978D02*
X551878D01*
X550879D01*
Y364980D01*
X549879D01*
X551878D01*
X554877Y370978D02*
X558876D01*
X556877D01*
Y364980D01*
X560875Y370978D02*
X562875D01*
X561875D01*
Y364980D01*
X560875D01*
X562875D01*
X569873Y369979D02*
X568873Y370978D01*
X566874D01*
X565874Y369979D01*
Y365980D01*
X566874Y364980D01*
X568873D01*
X569873Y365980D01*
X571872Y364980D02*
Y368979D01*
X573871Y370978D01*
X575871Y368979D01*
Y364980D01*
Y367979D01*
X571872D01*
X577870Y370978D02*
Y364980D01*
X581869D01*
X583868Y368979D02*
X584868D01*
Y367979D01*
X583868D01*
Y368979D01*
Y365980D02*
X584868D01*
Y364980D01*
X583868D01*
Y365980D01*
X594864Y370978D02*
X598863D01*
X596864D01*
Y364980D01*
X603862Y370978D02*
X601862D01*
X600863Y369979D01*
Y365980D01*
X601862Y364980D01*
X603862D01*
X604861Y365980D01*
Y369979D01*
X603862Y370978D01*
X612859D02*
Y364980D01*
X615858D01*
X616857Y365980D01*
Y366980D01*
X615858Y367979D01*
X612859D01*
X615858D01*
X616857Y368979D01*
Y369979D01*
X615858Y370978D01*
X612859D01*
X622855D02*
X618857D01*
Y364980D01*
X622855D01*
X618857Y367979D02*
X620856D01*
X630853Y364980D02*
Y368979D01*
X632852Y370978D01*
X634852Y368979D01*
Y364980D01*
Y367979D01*
X630853D01*
X636851Y364980D02*
Y370978D01*
X639850D01*
X640849Y369979D01*
Y367979D01*
X639850Y366980D01*
X636851D01*
X642849Y364980D02*
Y370978D01*
X645848D01*
X646848Y369979D01*
Y367979D01*
X645848Y366980D01*
X642849D01*
X648847Y364980D02*
Y370978D01*
X651846D01*
X652846Y369979D01*
Y367979D01*
X651846Y366980D01*
X648847D01*
X650846D02*
X652846Y364980D01*
X657844Y370978D02*
X655845D01*
X654845Y369979D01*
Y365980D01*
X655845Y364980D01*
X657844D01*
X658844Y365980D01*
Y369979D01*
X657844Y370978D01*
X660843D02*
X664842Y364980D01*
Y370978D02*
X660843Y364980D01*
X666841Y370978D02*
X668841D01*
X667841D01*
Y364980D01*
X666841D01*
X668841D01*
X671840D02*
Y370978D01*
X673839Y368979D01*
X675838Y370978D01*
Y364980D01*
X677838D02*
Y368979D01*
X679837Y370978D01*
X681836Y368979D01*
Y364980D01*
Y367979D01*
X677838D01*
X683836Y370978D02*
X687834D01*
X685835D01*
Y364980D01*
X693832Y370978D02*
X689834D01*
Y364980D01*
X693832D01*
X689834Y367979D02*
X691833D01*
X695832Y370978D02*
Y364980D01*
X699830D01*
X701830Y370978D02*
Y369979D01*
X703829Y367979D01*
X705829Y369979D01*
Y370978D01*
X703829Y367979D02*
Y364980D01*
X713826D02*
X715825D01*
X714826D01*
Y370978D01*
X713826Y369979D01*
X718824Y364980D02*
Y365980D01*
X719824D01*
Y364980D01*
X718824D01*
X727821Y370978D02*
X725822Y369979D01*
X723823Y367979D01*
Y365980D01*
X724822Y364980D01*
X726822D01*
X727821Y365980D01*
Y366980D01*
X726822Y367979D01*
X723823D01*
X729821Y364980D02*
Y368979D01*
X730820D01*
X731820Y367979D01*
Y364980D01*
Y367979D01*
X732820Y368979D01*
X733819Y367979D01*
Y364980D01*
X735819D02*
Y368979D01*
X736819D01*
X737818Y367979D01*
Y364980D01*
Y367979D01*
X738818Y368979D01*
X739817Y367979D01*
Y364980D01*
X337948Y345295D02*
X333949D01*
X337948Y349294D01*
Y350294D01*
X336948Y351293D01*
X334948D01*
X333949Y350294D01*
X339947Y345295D02*
Y346295D01*
X340947D01*
Y345295D01*
X339947D01*
X350943Y351293D02*
Y345295D01*
X353942D01*
X354942Y346295D01*
Y347295D01*
X353942Y348294D01*
X350943D01*
X353942D01*
X354942Y349294D01*
Y350294D01*
X353942Y351293D01*
X350943D01*
X359940D02*
X357941D01*
X356941Y350294D01*
Y346295D01*
X357941Y345295D01*
X359940D01*
X360940Y346295D01*
Y350294D01*
X359940Y351293D01*
X362939Y345295D02*
Y349294D01*
X364939Y351293D01*
X366938Y349294D01*
Y345295D01*
Y348294D01*
X362939D01*
X368937Y345295D02*
Y351293D01*
X371936D01*
X372936Y350294D01*
Y348294D01*
X371936Y347295D01*
X368937D01*
X370937D02*
X372936Y345295D01*
X374936Y351293D02*
Y345295D01*
X377935D01*
X378934Y346295D01*
Y350294D01*
X377935Y351293D01*
X374936D01*
X390930D02*
X386932D01*
Y348294D01*
X388931D01*
X386932D01*
Y345295D01*
X392930Y351293D02*
X394929D01*
X393929D01*
Y345295D01*
X392930D01*
X394929D01*
X397928D02*
Y351293D01*
X401927Y345295D01*
Y351293D01*
X403926D02*
X405926D01*
X404926D01*
Y345295D01*
X403926D01*
X405926D01*
X412923Y350294D02*
X411924Y351293D01*
X409924D01*
X408925Y350294D01*
Y349294D01*
X409924Y348294D01*
X411924D01*
X412923Y347295D01*
Y346295D01*
X411924Y345295D01*
X409924D01*
X408925Y346295D01*
X414923Y351293D02*
Y345295D01*
Y348294D01*
X418921D01*
Y351293D01*
Y345295D01*
X420921Y349294D02*
X421920D01*
Y348294D01*
X420921D01*
Y349294D01*
Y346295D02*
X421920D01*
Y345295D01*
X420921D01*
Y346295D01*
X431917Y345295D02*
Y351293D01*
X435916Y345295D01*
Y351293D01*
X440914D02*
X438915D01*
X437915Y350294D01*
Y346295D01*
X438915Y345295D01*
X440914D01*
X441914Y346295D01*
Y350294D01*
X440914Y351293D01*
X443913Y345295D02*
Y351293D01*
X447912Y345295D01*
Y351293D01*
X453910D02*
X449911D01*
Y345295D01*
X453910D01*
X449911Y348294D02*
X451911D01*
X333949Y330609D02*
X334948Y331608D01*
X336948D01*
X337948Y330609D01*
Y329609D01*
X336948Y328609D01*
X335948D01*
X336948D01*
X337948Y327610D01*
Y326610D01*
X336948Y325610D01*
X334948D01*
X333949Y326610D01*
X339947Y325610D02*
Y326610D01*
X340947D01*
Y325610D01*
X339947D01*
X354942Y330609D02*
X353942Y331608D01*
X351943D01*
X350943Y330609D01*
Y329609D01*
X351943Y328609D01*
X353942D01*
X354942Y327610D01*
Y326610D01*
X353942Y325610D01*
X351943D01*
X350943Y326610D01*
X359940Y331608D02*
X357941D01*
X356941Y330609D01*
Y326610D01*
X357941Y325610D01*
X359940D01*
X360940Y326610D01*
Y330609D01*
X359940Y331608D01*
X362939D02*
Y325610D01*
X366938D01*
X368937Y331608D02*
Y325610D01*
X371936D01*
X372936Y326610D01*
Y330609D01*
X371936Y331608D01*
X368937D01*
X378934D02*
X374936D01*
Y325610D01*
X378934D01*
X374936Y328609D02*
X376935D01*
X380934Y325610D02*
Y331608D01*
X383933D01*
X384932Y330609D01*
Y328609D01*
X383933Y327610D01*
X380934D01*
X382933D02*
X384932Y325610D01*
X392930D02*
Y331608D01*
X395929D01*
X396929Y330609D01*
Y328609D01*
X395929Y327610D01*
X392930D01*
X394929D02*
X396929Y325610D01*
X402926Y331608D02*
X398928D01*
Y325610D01*
X402926D01*
X398928Y328609D02*
X400927D01*
X408925Y330609D02*
X407925Y331608D01*
X405926D01*
X404926Y330609D01*
Y329609D01*
X405926Y328609D01*
X407925D01*
X408925Y327610D01*
Y326610D01*
X407925Y325610D01*
X405926D01*
X404926Y326610D01*
X410924Y331608D02*
X412923D01*
X411924D01*
Y325610D01*
X410924D01*
X412923D01*
X419921Y330609D02*
X418921Y331608D01*
X416922D01*
X415922Y330609D01*
Y329609D01*
X416922Y328609D01*
X418921D01*
X419921Y327610D01*
Y326610D01*
X418921Y325610D01*
X416922D01*
X415922Y326610D01*
X421920Y331608D02*
X425919D01*
X423920D01*
Y325610D01*
X427918Y329609D02*
X428918D01*
Y328609D01*
X427918D01*
Y329609D01*
Y326610D02*
X428918D01*
Y325610D01*
X427918D01*
Y326610D01*
X438915Y325610D02*
Y329609D01*
X440914Y331608D01*
X442914Y329609D01*
Y325610D01*
Y328609D01*
X438915D01*
X444913Y325610D02*
Y331608D01*
X447912D01*
X448912Y330609D01*
Y328609D01*
X447912Y327610D01*
X444913D01*
X450911Y325610D02*
Y331608D01*
X453910D01*
X454910Y330609D01*
Y328609D01*
X453910Y327610D01*
X450911D01*
X456909Y331608D02*
Y325610D01*
X460908D01*
X462907Y331608D02*
Y330609D01*
X464907Y328609D01*
X466906Y330609D01*
Y331608D01*
X464907Y328609D02*
Y325610D01*
X474903Y331608D02*
X478902D01*
X476903D01*
Y325610D01*
X483900Y331608D02*
X481901D01*
X480901Y330609D01*
Y326610D01*
X481901Y325610D01*
X483900D01*
X484900Y326610D01*
Y330609D01*
X483900Y331608D01*
X492897D02*
Y325610D01*
X495896D01*
X496896Y326610D01*
Y327610D01*
X495896Y328609D01*
X492897D01*
X495896D01*
X496896Y329609D01*
Y330609D01*
X495896Y331608D01*
X492897D01*
X501895D02*
X499895D01*
X498896Y330609D01*
Y326610D01*
X499895Y325610D01*
X501895D01*
X502894Y326610D01*
Y330609D01*
X501895Y331608D01*
X504893D02*
X508892D01*
X506893D01*
Y325610D01*
X510892Y331608D02*
Y325610D01*
Y328609D01*
X514890D01*
Y331608D01*
Y325610D01*
X526886Y330609D02*
X525887Y331608D01*
X523887D01*
X522888Y330609D01*
Y329609D01*
X523887Y328609D01*
X525887D01*
X526886Y327610D01*
Y326610D01*
X525887Y325610D01*
X523887D01*
X522888Y326610D01*
X528886Y331608D02*
X530885D01*
X529885D01*
Y325610D01*
X528886D01*
X530885D01*
X533884Y331608D02*
Y325610D01*
X536883D01*
X537883Y326610D01*
Y330609D01*
X536883Y331608D01*
X533884D01*
X543881D02*
X539882D01*
Y325610D01*
X543881D01*
X539882Y328609D02*
X541882D01*
X549879Y330609D02*
X548879Y331608D01*
X546880D01*
X545880Y330609D01*
Y329609D01*
X546880Y328609D01*
X548879D01*
X549879Y327610D01*
Y326610D01*
X548879Y325610D01*
X546880D01*
X545880Y326610D01*
X561875Y330609D02*
X560875Y331608D01*
X558876D01*
X557876Y330609D01*
Y326610D01*
X558876Y325610D01*
X560875D01*
X561875Y326610D01*
X566874Y331608D02*
X564874D01*
X563874Y330609D01*
Y326610D01*
X564874Y325610D01*
X566874D01*
X567873Y326610D01*
Y330609D01*
X566874Y331608D01*
X569873D02*
Y325610D01*
X573871D01*
X578870Y331608D02*
X576870D01*
X575871Y330609D01*
Y326610D01*
X576870Y325610D01*
X578870D01*
X579869Y326610D01*
Y330609D01*
X578870Y331608D01*
X581869D02*
Y326610D01*
X582868Y325610D01*
X584868D01*
X585867Y326610D01*
Y331608D01*
X587867Y325610D02*
Y331608D01*
X590866D01*
X591865Y330609D01*
Y328609D01*
X590866Y327610D01*
X587867D01*
X589866D02*
X591865Y325610D01*
X599863Y328609D02*
X603862D01*
X615858Y330609D02*
X614858Y331608D01*
X612859D01*
X611859Y330609D01*
Y326610D01*
X612859Y325610D01*
X614858D01*
X615858Y326610D01*
Y328609D01*
X613858D01*
X617857Y325610D02*
Y331608D01*
X620856D01*
X621856Y330609D01*
Y328609D01*
X620856Y327610D01*
X617857D01*
X619856D02*
X621856Y325610D01*
X627854Y331608D02*
X623855D01*
Y325610D01*
X627854D01*
X623855Y328609D02*
X625854D01*
X633852Y331608D02*
X629853D01*
Y325610D01*
X633852D01*
X629853Y328609D02*
X631852D01*
X635851Y325610D02*
Y331608D01*
X639850Y325610D01*
Y331608D01*
X336948Y305925D02*
Y311923D01*
X333949Y308924D01*
X337948D01*
X339947Y305925D02*
Y306925D01*
X340947D01*
Y305925D01*
X339947D01*
X354942Y310924D02*
X353942Y311923D01*
X351943D01*
X350943Y310924D01*
Y306925D01*
X351943Y305925D01*
X353942D01*
X354942Y306925D01*
X359940Y311923D02*
X357941D01*
X356941Y310924D01*
Y306925D01*
X357941Y305925D01*
X359940D01*
X360940Y306925D01*
Y310924D01*
X359940Y311923D01*
X362939Y305925D02*
Y311923D01*
X364939Y309924D01*
X366938Y311923D01*
Y305925D01*
X368937D02*
Y311923D01*
X371936D01*
X372936Y310924D01*
Y308924D01*
X371936Y307925D01*
X368937D01*
X377935Y311923D02*
X375935D01*
X374936Y310924D01*
Y306925D01*
X375935Y305925D01*
X377935D01*
X378934Y306925D01*
Y310924D01*
X377935Y311923D01*
X380934Y305925D02*
Y311923D01*
X384932Y305925D01*
Y311923D01*
X390930D02*
X386932D01*
Y305925D01*
X390930D01*
X386932Y308924D02*
X388931D01*
X392930Y305925D02*
Y311923D01*
X396929Y305925D01*
Y311923D01*
X398928D02*
X402926D01*
X400927D01*
Y305925D01*
X410924Y311923D02*
X412923D01*
X411924D01*
Y305925D01*
X410924D01*
X412923D01*
X415922Y311923D02*
Y305925D01*
X418921D01*
X419921Y306925D01*
Y310924D01*
X418921Y311923D01*
X415922D01*
X425919D02*
X421920D01*
Y305925D01*
X425919D01*
X421920Y308924D02*
X423920D01*
X427918Y305925D02*
Y311923D01*
X431917Y305925D01*
Y311923D01*
X433917D02*
X437915D01*
X435916D01*
Y305925D01*
X439915Y309924D02*
X440914D01*
Y308924D01*
X439915D01*
Y309924D01*
Y306925D02*
X440914D01*
Y305925D01*
X439915D01*
Y306925D01*
X454910Y310924D02*
X453910Y311923D01*
X451911D01*
X450911Y310924D01*
Y306925D01*
X451911Y305925D01*
X453910D01*
X454910Y306925D01*
X459908Y311923D02*
X457909D01*
X456909Y310924D01*
Y306925D01*
X457909Y305925D01*
X459908D01*
X460908Y306925D01*
Y310924D01*
X459908Y311923D01*
X462907D02*
Y305925D01*
X466906D01*
X471904Y311923D02*
X469905D01*
X468905Y310924D01*
Y306925D01*
X469905Y305925D01*
X471904D01*
X472904Y306925D01*
Y310924D01*
X471904Y311923D01*
X474903D02*
Y306925D01*
X475903Y305925D01*
X477902D01*
X478902Y306925D01*
Y311923D01*
X480901Y305925D02*
Y311923D01*
X483900D01*
X484900Y310924D01*
Y308924D01*
X483900Y307925D01*
X480901D01*
X482901D02*
X484900Y305925D01*
X492897Y311923D02*
X496896D01*
X494897D01*
Y305925D01*
X501895Y311923D02*
X499895D01*
X498896Y310924D01*
Y306925D01*
X499895Y305925D01*
X501895D01*
X502894Y306925D01*
Y310924D01*
X501895Y311923D01*
X510892D02*
Y305925D01*
X513891D01*
X514890Y306925D01*
Y307925D01*
X513891Y308924D01*
X510892D01*
X513891D01*
X514890Y309924D01*
Y310924D01*
X513891Y311923D01*
X510892D01*
X520888D02*
X516890D01*
Y305925D01*
X520888D01*
X516890Y308924D02*
X518889D01*
X528886Y311923D02*
Y305925D01*
X530885Y307925D01*
X532885Y305925D01*
Y311923D01*
X534884D02*
Y305925D01*
Y308924D01*
X538882D01*
Y311923D01*
Y305925D01*
X540882Y311923D02*
X542881D01*
X541882D01*
Y305925D01*
X540882D01*
X542881D01*
X545880Y311923D02*
X549879D01*
X547880D01*
Y305925D01*
X555877Y311923D02*
X551878D01*
Y305925D01*
X555877D01*
X551878Y308924D02*
X553878D01*
D88*
X213512Y-122256D02*
Y-130127D01*
X217447Y-134063D01*
X221383Y-130127D01*
Y-122256D01*
X225319Y-134063D02*
X229255D01*
X227287D01*
Y-122256D01*
X225319Y-124224D01*
X235158Y-122256D02*
X239094D01*
X237126D01*
Y-134063D01*
X235158D01*
X239094D01*
X244998D02*
X248933D01*
X246966D01*
Y-122256D01*
X244998Y-124224D01*
X-62081Y-134063D02*
X-69953D01*
X-62081Y-126191D01*
Y-124224D01*
X-64049Y-122256D01*
X-67985D01*
X-69953Y-124224D01*
X-58146D02*
X-56178Y-122256D01*
X-52242D01*
X-50274Y-124224D01*
Y-126191D01*
X-52242Y-128159D01*
X-50274Y-130127D01*
Y-132095D01*
X-52242Y-134063D01*
X-56178D01*
X-58146Y-132095D01*
Y-130127D01*
X-56178Y-128159D01*
X-58146Y-126191D01*
Y-124224D01*
X-56178Y-128159D02*
X-52242D01*
X-46338Y-134063D02*
Y-122256D01*
X-40435D01*
X-38467Y-124224D01*
Y-128159D01*
X-40435Y-130127D01*
X-46338D01*
X-34531Y-134063D02*
X-30595D01*
X-32563D01*
Y-126191D01*
X-34531D01*
X-24692Y-134063D02*
Y-126191D01*
X-18788D01*
X-16820Y-128159D01*
Y-134063D01*
X-12885D02*
X-6981D01*
X-5013Y-132095D01*
X-6981Y-130127D01*
X-10917D01*
X-12885Y-128159D01*
X-10917Y-126191D01*
X-5013D01*
M02*
