G04*
G04 #@! TF.GenerationSoftware,Altium Limited,Altium Designer,20.1.11 (218)*
G04*
G04 Layer_Color=8421504*
%FSLAX25Y25*%
%MOIN*%
G70*
G04*
G04 #@! TF.SameCoordinates,693C8C31-8EEC-4DF3-A6D9-A21B1C167F78*
G04*
G04*
G04 #@! TF.FilePolarity,Positive*
G04*
G01*
G75*
%ADD14R,0.02700X0.02200*%
%ADD15R,0.02200X0.02700*%
%ADD16R,0.05118X0.02756*%
%ADD17R,0.02756X0.05118*%
%ADD18R,0.07480X0.07480*%
%ADD19R,0.05512X0.06299*%
%ADD20R,0.05315X0.01575*%
%ADD21R,0.03543X0.02362*%
%ADD22R,0.10236X0.09843*%
%ADD23R,0.09843X0.10236*%
%ADD24R,0.04331X0.02362*%
%ADD25R,0.02362X0.04331*%
%ADD26R,0.02362X0.08661*%
%ADD27R,0.13780X0.08661*%
%ADD28R,0.05906X0.02165*%
%ADD29R,0.02165X0.05906*%
%ADD30R,0.10630X0.07874*%
%ADD31R,0.05118X0.03543*%
%ADD32R,0.03543X0.05118*%
%ADD33R,0.03150X0.03150*%
%ADD34R,0.06299X0.11811*%
D14*
X3200Y103400D02*
D03*
Y113000D02*
D03*
D15*
X231100Y96000D02*
D03*
X240700D02*
D03*
D16*
X131400Y18260D02*
D03*
Y25740D02*
D03*
Y33240D02*
D03*
Y25760D02*
D03*
X247900Y88660D02*
D03*
Y96140D02*
D03*
X96358Y57480D02*
D03*
Y64961D02*
D03*
X256700Y82340D02*
D03*
Y74860D02*
D03*
X108100Y25840D02*
D03*
Y18360D02*
D03*
X256700Y88560D02*
D03*
Y96040D02*
D03*
X10400Y103920D02*
D03*
Y111400D02*
D03*
X250800Y162560D02*
D03*
Y170040D02*
D03*
X232400Y186540D02*
D03*
Y179060D02*
D03*
X241000Y186540D02*
D03*
Y179060D02*
D03*
X85200Y104660D02*
D03*
Y112140D02*
D03*
X35900Y110040D02*
D03*
Y102560D02*
D03*
X67700Y154260D02*
D03*
Y161740D02*
D03*
D17*
X49460Y81200D02*
D03*
X56940D02*
D03*
X114340Y33000D02*
D03*
X106860D02*
D03*
X3760Y95800D02*
D03*
X11240D02*
D03*
X236417Y142520D02*
D03*
X228937D02*
D03*
X155140Y89800D02*
D03*
X147660D02*
D03*
X90960Y175600D02*
D03*
X98440D02*
D03*
X231160Y89300D02*
D03*
X238640D02*
D03*
X146840Y39100D02*
D03*
X139360D02*
D03*
X33858Y63976D02*
D03*
X41339D02*
D03*
X41340Y72700D02*
D03*
X33860D02*
D03*
Y81300D02*
D03*
X41340D02*
D03*
X41400Y137200D02*
D03*
X33920D02*
D03*
X104960Y163800D02*
D03*
X112440D02*
D03*
X104860Y172800D02*
D03*
X112340D02*
D03*
D18*
X8500Y78732D02*
D03*
Y69283D02*
D03*
D19*
X18146Y61409D02*
D03*
Y86606D02*
D03*
D20*
X19031Y68890D02*
D03*
Y71449D02*
D03*
Y74008D02*
D03*
Y76567D02*
D03*
Y79126D02*
D03*
D21*
X26800Y66495D02*
D03*
Y72400D02*
D03*
Y84200D02*
D03*
Y78294D02*
D03*
D22*
X97400Y104309D02*
D03*
Y123600D02*
D03*
D23*
X168246Y111000D02*
D03*
X148954D02*
D03*
D24*
X89370Y57284D02*
D03*
Y64764D02*
D03*
X79134Y57284D02*
D03*
Y61024D02*
D03*
Y64764D02*
D03*
X65782Y175240D02*
D03*
Y171500D02*
D03*
Y167760D02*
D03*
X76018Y175240D02*
D03*
Y167760D02*
D03*
D25*
X253240Y67418D02*
D03*
X249500D02*
D03*
X245760D02*
D03*
X253240Y57182D02*
D03*
X245760D02*
D03*
X17560Y97682D02*
D03*
X21300D02*
D03*
X25040D02*
D03*
X17560Y107918D02*
D03*
X25040D02*
D03*
D26*
X52205Y44783D02*
D03*
X57205D02*
D03*
X62205D02*
D03*
X67205D02*
D03*
X72205D02*
D03*
D27*
X62205Y69193D02*
D03*
D28*
X77165Y107087D02*
D03*
Y110236D02*
D03*
Y113386D02*
D03*
Y116535D02*
D03*
Y119685D02*
D03*
Y122835D02*
D03*
Y125984D02*
D03*
Y129134D02*
D03*
X44094D02*
D03*
Y125984D02*
D03*
Y122835D02*
D03*
Y119685D02*
D03*
Y116535D02*
D03*
Y113386D02*
D03*
Y110236D02*
D03*
Y107087D02*
D03*
D29*
X71653Y134646D02*
D03*
X68504D02*
D03*
X65354D02*
D03*
X62205D02*
D03*
X59055D02*
D03*
X55905D02*
D03*
X52756D02*
D03*
X49606D02*
D03*
Y101575D02*
D03*
X52756D02*
D03*
X55905D02*
D03*
X59055D02*
D03*
X62205D02*
D03*
X65354D02*
D03*
X68504D02*
D03*
X71653D02*
D03*
D30*
X10100Y23302D02*
D03*
Y35900D02*
D03*
D31*
X169400Y23460D02*
D03*
Y30940D02*
D03*
X76300Y71560D02*
D03*
Y79040D02*
D03*
X89200Y49140D02*
D03*
Y41660D02*
D03*
X247900Y74460D02*
D03*
Y81940D02*
D03*
X85100Y79100D02*
D03*
Y71620D02*
D03*
X83100Y167860D02*
D03*
Y175340D02*
D03*
X44200Y43620D02*
D03*
Y51100D02*
D03*
X142100Y26640D02*
D03*
Y19160D02*
D03*
X122000Y26640D02*
D03*
Y19160D02*
D03*
X80400Y41620D02*
D03*
Y49100D02*
D03*
X250800Y186240D02*
D03*
Y178760D02*
D03*
X9100Y177740D02*
D03*
Y170260D02*
D03*
X67224Y85728D02*
D03*
Y93209D02*
D03*
X85200Y126840D02*
D03*
Y119360D02*
D03*
X76378Y86417D02*
D03*
Y93898D02*
D03*
X85100Y86320D02*
D03*
Y93800D02*
D03*
D32*
X177560Y21300D02*
D03*
X185040D02*
D03*
X228460Y133800D02*
D03*
X235940D02*
D03*
X41780Y91000D02*
D03*
X34300D02*
D03*
X25540Y115100D02*
D03*
X18060D02*
D03*
X253340Y49000D02*
D03*
X245860D02*
D03*
X162320Y98700D02*
D03*
X169800D02*
D03*
X147420D02*
D03*
X154900D02*
D03*
X175980Y39100D02*
D03*
X168500D02*
D03*
X153720D02*
D03*
X161200D02*
D03*
X161200Y30300D02*
D03*
X153720D02*
D03*
X94960Y190200D02*
D03*
X102440D02*
D03*
X162060Y89800D02*
D03*
X169540D02*
D03*
X185040Y30200D02*
D03*
X177560D02*
D03*
X15840Y205700D02*
D03*
X8360D02*
D03*
X157840Y19900D02*
D03*
X150360D02*
D03*
X93060Y93100D02*
D03*
X100540D02*
D03*
X93160Y134900D02*
D03*
X100640D02*
D03*
X56540Y91000D02*
D03*
X49060D02*
D03*
D33*
X98450Y151900D02*
D03*
X92150D02*
D03*
X98350Y159000D02*
D03*
X92050D02*
D03*
X98350Y167700D02*
D03*
X92050D02*
D03*
X236122Y150295D02*
D03*
X229823D02*
D03*
D34*
X28400Y23071D02*
D03*
Y6929D02*
D03*
X28300Y36400D02*
D03*
Y52542D02*
D03*
M02*
