M48
;Layer_Color=9474304
;FILE_FORMAT=2:5
INCH,LZ
;TYPE=PLATED
T1F00S00C0.01181
T3F00S00C0.03937
T4F00S00C0.04331
T5F00S00C0.05906
T6F00S00C0.12598
;TYPE=NON_PLATED
T7F00S00C0.12598
%
T01
X0142126Y0029921
X0151Y0034
X0151064Y0041936
X0156225Y0025295
X0160531
X016437Y0025394
X016939Y0019094
X0181496Y0017224
X0181Y00338
X0182Y00404
X0173Y0044
X01816Y00608
X01622Y00846
X01744Y00994
X01426Y00987
X0231102Y0070079
X0243001Y0069587
X0242717Y0072638
X02533Y00637
X0259Y0049
X0243012Y0030807
Y0027559
X0131004Y0023327
X0128248Y0025689
X0122047Y0032283
X01152Y00235
X01116Y00716
X01218Y00712
Y00919
X01117Y00862
X01034Y0097
X00852Y00974
X0076378Y0089665
X00807Y00827
X00901Y00792
X0096161Y0072835
X0089Y00533
X008
X0073452Y0053924
X0062897Y0053527
X00596Y0056
X005Y0060335
X0046457
X004311Y0060236
X0039272Y0060138
X0041339Y0063976
X004498Y0063779
X0048917Y0063976
X0047736Y006752
X0044Y007465
Y00778
X0061024Y0079035
X00625Y0082579
X0067524Y0082069
X0067618Y0075886
X0058169Y0095079
X0059Y0106
X0071752Y0112697
X003878Y0114665
X00291Y0115
X0037795Y0126279
X0042Y0095
X0030062Y0094262
X003Y0084
X0022835Y0082776
X0022736Y0080413
X0030399Y006811
X0030118Y0043996
X0033268Y0044094
X00146Y01073
X00036Y01098
X0038091Y0142323
X0041732Y0142421
X0050394Y0155512
X0050591Y0158858
X0050689Y0162795
X0071653Y0157874
X0078347Y0157677
X0082284Y0162205
X00867Y01628
X0094882Y0171653
X0109055Y0169685
X0117815Y0170669
X0120571Y0165748
X0101Y014
X00835Y01401
X0088976Y0188386
X0014093Y0177694
X0021Y0206
X0159646Y0192028
X0163583
X016752
X0171457
X0163878Y0158858
Y0154921
X0159941
Y0158858
X021565Y0166634
X0218898Y0170374
X0215158Y0173917
X0219882Y0162894
X0219783Y015502
X0219193Y0152264
X0219291Y0149213
X02448Y01738
T03
X0234547Y0103347
Y0121063
X0260138
Y0103347
X0096358Y0032395
X0078642
Y0006805
X0096358
T04
X014Y001
X015
X016
X017
X018
X02
X021
X022
X023
X024
X025
X0236476Y00495
X0226476
X0216476
X0206476
X0196476
X0186476
X0176476
X0166476
X0156476
X0146476
X0136476
Y00795
X0146476
X0156476
X0166476
X0176476
X0186476
X0196476
X0206476
X0216476
X0226476
X0236476
X0126476
X0116476
X0106476
Y00495
X0116476
X0126476
X013Y001
X012
X011
X0065748Y0034646
X0055748
X0045748
X002Y012467
Y013467
X001
Y012467
Y0152
Y0162
X002
Y0152
X003
Y0162
Y0186
Y0196
X002
Y0186
X001
Y0196
X005748Y0175591
Y0165591
Y0155591
Y0145591
X0074Y02
X0084
X0094
X0104
X0114
X0124
X0134
X0144
X0154
X0164
X018
X019
X02
X021
X022
X023
X024
X025
X026063Y0184646
Y0174646
Y0164646
T05
X00086Y00085
X00084Y005
T06
X026Y003
X0055Y001
X026Y014
T07
X006Y02
M30
